<svg xmlns="http://www.w3.org/2000/svg" width="169" height="123" viewBox="0 0 169 123" fill="none">
  <path d="M140.47 50.8809L140.47 50.8722L140.469 50.8634C140.368 48.9502 140.358 47.006 140.35 45.0412L140.35 44.9545C140.342 43.0221 140.334 41.0701 140.237 39.1313C140.041 35.1958 139.478 31.2763 137.785 27.5834C132.641 16.0933 122.368 12.0057 110.787 10.3659C100.77 8.65322 90.624 7.56019 80.433 7.50001L80.4227 7.49995L80.4123 7.50031C78.2443 7.57697 75.6481 7.56458 72.7922 7.55095C66.4369 7.52062 58.7955 7.48415 51.7251 8.40923C46.5872 9.08147 41.6904 10.2657 37.7416 12.3533C33.7851 14.445 30.7591 17.4568 29.4244 21.7755C27.8263 26.4657 27.7467 31.4697 27.67 36.2924C27.6609 36.8677 27.6518 37.4405 27.6401 38.0098L27.6399 38.0098L27.64 38.0233C27.7041 47.7046 28.2938 57.3805 28.8826 67.0411C29.2133 72.4668 29.5437 77.8876 29.7805 83.3018L29.7811 83.315L29.7823 83.3281C29.9361 84.9183 30.0263 86.5321 30.1104 88.1617C30.1202 88.3524 30.13 88.5433 30.1397 88.7344C30.2132 90.1734 30.2873 91.6238 30.4016 93.067C30.6605 96.3371 31.1276 99.6051 32.2811 102.723L32.2838 102.731L32.2868 102.738C34.6025 108.435 39.2086 112.002 44.5559 114.187C49.8971 116.369 56.0126 117.189 61.4324 117.38L61.4394 117.38C68.5487 117.53 75.6614 117.392 82.7635 117.253C83.226 117.244 83.6885 117.235 84.1509 117.226C91.718 117.08 99.2734 116.955 106.824 117.2C115.008 117.475 122.007 117.105 127.415 114.339C132.872 111.549 136.625 106.37 138.44 97.2577L138.441 97.2577L138.443 97.246C141.046 82.3427 140.766 67.0646 140.491 52.0376C140.484 51.6519 140.477 51.2663 140.47 50.8809Z" fill="white" stroke="black"/>
  <path d="M11.2707 49.5834L11.2707 49.5835L11.2783 49.5877C12.5143 50.2701 13.7344 50.9671 14.9592 51.6668C15.6282 52.049 16.2986 52.432 16.9736 52.8138C17.4817 53.1615 18.113 53.1897 18.6206 52.9739C19.1483 52.7495 19.57 52.2457 19.57 51.55V51.5366L19.5693 51.5233C19.5522 51.2048 19.3885 50.9297 19.2094 50.713C19.0247 50.4895 18.7792 50.2746 18.5083 50.0712C17.9655 49.6638 17.2498 49.2506 16.521 48.8604C16.0485 48.6075 15.5547 48.3561 15.089 48.1189C14.8374 47.9909 14.5941 47.867 14.3667 47.7492C13.6969 47.4025 13.1807 47.1165 12.9054 46.9041L12.8818 46.8859L12.8562 46.8706C12.4359 46.6198 11.9917 46.5842 11.5978 46.7197C11.2176 46.8504 10.9186 47.1278 10.7318 47.448C10.545 47.7683 10.4508 48.165 10.5234 48.5603C10.5985 48.9696 10.8467 49.3396 11.2707 49.5834Z" fill="white" stroke="black"/>
  <path d="M12.6474 62.7655L12.6512 62.7877L12.657 62.8094C12.8789 63.6375 13.7779 64.1491 14.5997 63.9101L14.6328 63.9004L14.6643 63.8864C14.8713 63.7937 15.1617 63.7238 15.5332 63.6427C15.5662 63.6355 15.5997 63.6282 15.6338 63.6208C15.9604 63.55 16.3319 63.4695 16.669 63.3544C17.0377 63.2286 17.4366 63.0393 17.7177 62.7095C18.0211 62.3536 18.1371 61.8951 18.0426 61.3539L18.0385 61.3309L18.0324 61.3084C17.8136 60.5061 16.9333 59.954 16.0848 60.2115L16.0508 60.2219L16.0186 60.2369C15.8146 60.3321 15.5268 60.4034 15.1566 60.4843C15.1145 60.4936 15.0713 60.5029 15.0274 60.5124C14.7094 60.5812 14.3496 60.6589 14.0234 60.7685C13.6553 60.8921 13.2552 61.0788 12.9731 61.4082C12.6684 61.7639 12.5532 62.2231 12.6474 62.7655Z" fill="white" stroke="black"/>
  <path d="M12.5628 77.7556C12.472 77.9884 12.4348 78.2312 12.4577 78.48H11.9294L12.7751 79.3322C13.1932 79.7535 13.6675 79.9278 14.1651 79.8623C14.6224 79.8021 15.0266 79.5472 15.3576 79.2837C15.643 79.0565 15.9225 78.7819 16.1721 78.5367C16.2152 78.4943 16.2575 78.4528 16.2988 78.4125C16.5968 78.1216 16.8366 77.9028 17.0437 77.7809L17.1236 77.7338L17.1813 77.6613C17.3191 77.4881 17.5407 77.3086 17.8362 77.0953C17.9057 77.0451 17.98 76.9926 18.0569 76.9383C18.2835 76.7782 18.533 76.6019 18.7509 76.4207C19.0447 76.1764 19.3473 75.8721 19.5161 75.4882C19.697 75.0764 19.7043 74.6184 19.4857 74.1343L19.4635 74.0851L19.4313 74.0417C19.0858 73.5768 18.6558 73.3243 18.1618 73.3197C17.7061 73.3155 17.2913 73.5257 16.9559 73.7543C16.614 73.9874 16.286 74.2884 16.004 74.55C15.9894 74.5635 15.975 74.5769 15.9607 74.5902C15.6826 74.8483 15.4592 75.0557 15.2667 75.188L15.2068 75.2292L15.1611 75.2857C15.0081 75.4751 14.7538 75.6782 14.4167 75.9235C14.3513 75.971 14.2828 76.0202 14.2124 76.0707C13.9426 76.2642 13.6449 76.4778 13.3854 76.7008C13.0594 76.981 12.7296 77.3276 12.5628 77.7556Z" fill="white" stroke="black"/>
  <path d="M146.256 52.7237C146.393 53.2609 146.803 53.6409 147.28 53.8029V54.0613L147.916 53.8811C148.557 53.6995 149.14 53.35 149.665 53.0251C149.71 52.9971 149.754 52.9694 149.799 52.9418C150.29 52.6367 150.737 52.3592 151.21 52.1765L151.283 52.1483L151.344 52.0993C151.539 51.9417 151.85 51.7923 152.259 51.6186C152.339 51.5847 152.423 51.5499 152.509 51.5142C152.835 51.3786 153.194 51.2292 153.513 51.0612C153.913 50.8508 154.334 50.5704 154.59 50.1631C154.869 49.7177 154.908 49.1913 154.673 48.6121L154.648 48.55L154.608 48.4967C154.195 47.9556 153.632 47.7899 153.061 47.8455C152.528 47.8974 151.976 48.1406 151.476 48.4099C151.103 48.6113 150.72 48.8499 150.366 49.0704C150.243 49.1466 150.124 49.2206 150.01 49.2903C149.542 49.5769 149.17 49.7805 148.894 49.859L148.821 49.8797L148.757 49.921C148.58 50.0363 148.355 50.1465 148.081 50.2803C148.071 50.285 148.062 50.2898 148.052 50.2946C147.779 50.4279 147.466 50.5824 147.185 50.768C146.906 50.9532 146.621 51.1926 146.432 51.5159C146.233 51.8545 146.158 52.2519 146.25 52.7002L146.253 52.712L146.256 52.7237Z" fill="white" stroke="black"/>
  <path d="M150.19 63.16L150.188 63.66C152.621 63.6699 155.048 63.8574 157.492 64.0669C157.971 64.1353 158.39 63.9978 158.699 63.7242C159.001 63.457 159.171 63.0849 159.222 62.7169C159.272 62.3488 159.209 61.9443 158.989 61.606C158.761 61.2549 158.386 61.01 157.898 60.9533L157.846 60.9473L157.794 60.9521C157.456 60.9836 156.77 60.9157 155.846 60.8086C155.73 60.7952 155.611 60.7812 155.49 60.767C154.679 60.6721 153.761 60.5646 152.883 60.5061C151.884 60.4395 150.882 60.4316 150.119 60.5988C149.739 60.6822 149.367 60.8195 149.085 61.0585C148.783 61.3143 148.609 61.6684 148.62 62.098C148.624 62.9506 149.337 63.66 150.19 63.66V63.16ZM150.19 63.16C149.61 63.16 149.12 62.67 149.12 62.09L157.84 61.45C159.22 61.61 158.92 63.78 157.55 63.57C155.1 63.36 152.65 63.17 150.19 63.16Z" fill="white" stroke="black"/>
  <path d="M146.331 76.128L146.31 76.1975V76.27C146.31 76.9903 146.814 77.602 147.468 77.7852C148.492 78.4563 149.365 79.3262 150.271 80.2285C150.526 80.483 150.784 80.7401 151.049 80.996C151.393 81.3418 151.814 81.4868 152.228 81.4551C152.63 81.4244 152.991 81.2312 153.253 80.968C153.515 80.7048 153.707 80.3441 153.737 79.9427C153.767 79.5269 153.62 79.1058 153.27 78.7629L153.25 78.7434L153.228 78.7262C152.997 78.5451 152.649 78.1898 152.203 77.7339C152.117 77.6459 152.027 77.5543 151.934 77.4594C151.378 76.8937 150.724 76.2441 150.071 75.725C149.442 75.2244 148.719 74.7655 148.033 74.7135C147.663 74.6853 147.292 74.7752 146.977 75.0388C146.674 75.2921 146.467 75.6678 146.331 76.128Z" fill="white" stroke="black"/>
  <path fill-rule="evenodd" clip-rule="evenodd" d="M44.74 71.02C34.55 68.88 39.19 58.37 48.56 61.67C58.27 64.57 52.44 72.1 44.74 71.02Z" fill="#FFD5CD"/>
  <path fill-rule="evenodd" clip-rule="evenodd" d="M119.37 69.57C116.34 68.57 115.06 64.47 117.69 62.29C121.01 59.8 128.61 59.94 130.07 64.53C130.78 69.49 122.92 71.06 119.37 69.57Z" fill="#FFD5CD"/>
  <path fill-rule="evenodd" clip-rule="evenodd" d="M49.5 56.49C47.8 54.39 52.87 51.18 54.85 51.7C56.6 51.52 61.11 54.7 59.18 56.41C57.17 57.25 57.01 52.7 53.37 54.01C51.67 54.26 51.22 57.51 49.5 56.49Z" fill="#631A14"/>
  <path fill-rule="evenodd" clip-rule="evenodd" d="M109.64 55.65C108.21 52.71 114.43 49.3 116.9 50.74C118.16 51.35 121.23 54.13 119.58 55.44C117.24 56.3 117.45 50.82 113.58 53.01C111.58 53.55 111.41 57.02 109.63 55.64L109.64 55.65Z" fill="#631A14"/>
  <path fill-rule="evenodd" clip-rule="evenodd" d="M82.82 64.09C79.42 63.58 78.06 59.99 77.4 57.03C77.26 56.27 76.89 55.35 77.48 54.7C78.6 53.76 79.47 54.97 79.39 56.1C80.02 61.47 84.41 64.67 88.2 59.54C89.24 58.27 89.07 56.39 89.93 55.17C94.36 53.45 89.43 66.06 82.82 64.09Z" fill="#631A14"/>
  <path fill-rule="evenodd" clip-rule="evenodd" d="M48.49 42.25C45.75 39.63 53.18 38.01 54.92 37.67C56.29 37.47 56.59 39.61 55.21 39.79C53.4 40.16 51.52 40.61 49.96 41.63C49.65 42.14 49.08 42.51 48.49 42.24V42.25Z" fill="#631A14"/>
  <path fill-rule="evenodd" clip-rule="evenodd" d="M116.41 37.66C114.56 37.07 112.62 36.89 110.69 36.74C110.11 36.64 109.69 36.12 109.77 35.53C110.06 33.56 115.58 35.32 116.97 35.59C118.31 35.96 117.73 38.05 116.4 37.66H116.41Z" fill="#631A14"/>
</svg>