<svg width="352" height="113" viewBox="0 0 352 113" fill="none" xmlns="http://www.w3.org/2000/svg">
<g filter="url(#filter0_i_388_13)">
<rect width="352" height="113" rx="27" fill="#80CD01"/>
</g>
<rect x="2" y="2" width="348" height="109" rx="25" stroke="black" stroke-width="4"/>
<mask id="path-3-outside-1_388_13" maskUnits="userSpaceOnUse" x="107" y="26" width="139" height="46" fill="black">
<rect fill="white" x="107" y="26" width="139" height="46"/>
<path d="M129.216 67.506C125.291 67.506 122.025 66.862 119.418 65.574C116.811 64.2553 114.864 62.4153 113.576 60.054C112.319 57.6927 111.69 54.9327 111.69 51.774C111.69 48.278 112.411 45.2267 113.852 42.62C115.293 39.9827 117.363 37.9433 120.062 36.502C122.791 35.0607 126.073 34.34 129.906 34.34C133.494 34.34 136.239 35.0607 138.14 36.502C140.072 37.9127 141.038 39.86 141.038 42.344C141.038 44.1533 140.532 45.5947 139.52 46.668C138.539 47.7107 137.097 48.232 135.196 48.232C134.153 48.232 133.249 48.094 132.482 47.818C131.715 47.542 130.949 47.2813 130.182 47.036C129.415 46.76 128.526 46.622 127.514 46.622C126.655 46.622 125.843 46.76 125.076 47.036C124.34 47.2813 123.742 47.726 123.282 48.37C122.853 48.9833 122.638 49.842 122.638 50.946C122.638 52.3873 123.067 53.4147 123.926 54.028C124.815 54.6413 125.981 54.948 127.422 54.948C128.158 54.948 128.986 54.902 129.906 54.81C130.826 54.6873 131.731 54.58 132.62 54.488C133.54 54.396 134.322 54.35 134.966 54.35C136.591 54.35 137.879 54.81 138.83 55.73C139.811 56.6193 140.302 57.9687 140.302 59.778C140.302 62.1393 139.397 64.0253 137.588 65.436C135.809 66.816 133.019 67.506 129.216 67.506ZM149.051 67.092C147.641 67.092 146.506 66.8313 145.647 66.31C144.789 65.758 144.114 64.8227 143.623 63.504C143.133 62.216 142.765 60.422 142.519 58.122C142.305 55.7913 142.197 52.9853 142.197 49.704C142.197 47.7413 142.274 45.748 142.427 43.724C142.611 41.7 142.841 39.86 143.117 38.204C143.424 36.5173 143.746 35.26 144.083 34.432C144.666 33.052 145.31 32.0707 146.015 31.488C146.721 30.9053 147.595 30.614 148.637 30.614C149.741 30.614 150.661 30.9207 151.397 31.534C152.133 32.1167 152.67 33.098 153.007 34.478C153.253 35.49 153.452 36.7013 153.605 38.112C153.759 39.5227 153.835 41.01 153.835 42.574C153.835 44.322 153.728 46.1773 153.513 48.14C153.299 50.072 153.007 51.9733 152.639 53.844C152.302 55.684 151.888 57.386 151.397 58.95L147.211 59.364C148.101 58.6893 149.082 58.168 150.155 57.8C151.259 57.432 152.287 57.248 153.237 57.248C154.495 57.248 155.461 57.57 156.135 58.214C156.841 58.8273 157.193 59.7933 157.193 61.112C157.193 62.216 156.841 63.228 156.135 64.148C155.43 65.0373 154.464 65.758 153.237 66.31C152.041 66.8313 150.646 67.092 149.051 67.092ZM180.404 67.46C178.626 67.46 177.445 67.0613 176.862 66.264C176.31 65.436 176.05 64.1327 176.08 62.354L176.862 62.584C175.206 65.9267 172.032 67.598 167.34 67.598C165.194 67.598 163.415 67.23 162.004 66.494C160.624 65.7273 159.582 64.7307 158.876 63.504C158.202 62.2773 157.864 60.9127 157.864 59.41C157.864 56.8647 158.8 54.856 160.67 53.384C162.572 51.8813 165.086 51.13 168.214 51.13C170.116 51.13 171.787 51.4213 173.228 52.004C174.67 52.5867 175.881 53.3993 176.862 54.442L175.39 54.35C175.39 51.958 174.946 50.256 174.056 49.244C173.167 48.232 171.864 47.726 170.146 47.726C169.41 47.726 168.613 47.8487 167.754 48.094C166.926 48.3087 166.068 48.5387 165.178 48.784C164.289 48.9987 163.384 49.106 162.464 49.106C161.238 49.106 160.272 48.784 159.566 48.14C158.892 47.4653 158.554 46.6067 158.554 45.564C158.554 44.1533 159.152 42.896 160.348 41.792C161.544 40.688 163.124 39.814 165.086 39.17C167.08 38.526 169.226 38.204 171.526 38.204C174.532 38.204 177.138 38.7713 179.346 39.906C181.554 41.01 183.103 42.7273 183.992 45.058C184.667 46.7447 185.142 48.646 185.418 50.762C185.725 52.878 185.878 55.132 185.878 57.524C185.878 60.1307 185.694 62.1547 185.326 63.596C184.958 65.0373 184.36 66.0493 183.532 66.632C182.735 67.184 181.692 67.46 180.404 67.46ZM171.388 60.744C172.002 60.744 172.615 60.652 173.228 60.468C173.872 60.2533 174.409 59.962 174.838 59.594C175.268 59.1953 175.482 58.72 175.482 58.168C175.482 57.616 175.314 57.1713 174.976 56.834C174.639 56.4967 174.179 56.2513 173.596 56.098C173.044 55.9447 172.446 55.868 171.802 55.868C170.637 55.868 169.702 56.1133 168.996 56.604C168.291 57.0947 167.938 57.708 167.938 58.444C167.938 59.1187 168.245 59.6707 168.858 60.1C169.502 60.5293 170.346 60.744 171.388 60.744ZM193.683 31.718C195.585 31.718 196.934 32.1627 197.731 33.052C198.559 33.9413 198.973 34.9687 198.973 36.134C198.973 37.5447 198.467 38.6487 197.455 39.446C196.443 40.2127 195.033 40.596 193.223 40.596C191.445 40.596 190.111 40.1667 189.221 39.308C188.363 38.4493 187.933 37.4373 187.933 36.272C187.933 34.7693 188.455 33.6347 189.497 32.868C190.571 32.1013 191.966 31.718 193.683 31.718ZM194.189 41.976C195.692 41.976 196.857 42.896 197.685 44.736C198.544 46.576 198.973 49.5047 198.973 53.522C198.973 58.4593 198.437 62.0167 197.363 64.194C196.321 66.3713 194.726 67.46 192.579 67.46C190.893 67.46 189.651 66.6627 188.853 65.068C188.087 63.4427 187.703 60.6213 187.703 56.604C187.703 51.6667 188.301 48.002 189.497 45.61C190.693 43.1873 192.257 41.976 194.189 41.976ZM225.016 45.932C225.323 44.6747 225.875 43.54 226.672 42.528C227.47 41.516 228.436 40.7187 229.57 40.136C230.736 39.5227 232.008 39.216 233.388 39.216C235.044 39.216 236.516 39.5993 237.804 40.366C239.092 41.1327 240.104 42.39 240.84 44.138C241.576 45.886 241.944 48.2167 241.944 51.13C241.944 52.5407 241.883 53.982 241.76 55.454C241.638 56.8953 241.484 58.2447 241.3 59.502C241.116 60.7287 240.917 61.756 240.702 62.584C240.334 64.0867 239.644 65.206 238.632 65.942C237.651 66.678 236.44 67.046 234.998 67.046C233.618 67.046 232.53 66.6627 231.732 65.896C230.935 65.1293 230.536 64.0407 230.536 62.63C230.536 62.1087 230.613 61.4033 230.766 60.514C230.92 59.594 231.088 58.6127 231.272 57.57C231.456 56.5273 231.625 55.5153 231.778 54.534C231.932 53.522 232.008 52.6787 232.008 52.004C232.008 51.0227 231.824 50.2713 231.456 49.75C231.119 49.198 230.628 48.922 229.984 48.922C229.126 48.922 228.436 49.474 227.914 50.578C227.393 51.682 227.071 53.2767 226.948 55.362C226.856 56.9567 226.734 58.3673 226.58 59.594C226.458 60.8207 226.243 61.848 225.936 62.676C225.538 63.8107 224.955 64.6693 224.188 65.252C223.452 65.804 222.456 66.08 221.198 66.08C219.818 66.08 218.714 65.6967 217.886 64.93C217.058 64.1327 216.614 62.906 216.552 61.25C216.522 60.33 216.506 59.2413 216.506 57.984C216.537 56.7267 216.552 55.4847 216.552 54.258C216.583 53.0313 216.568 52.0193 216.506 51.222C216.445 50.0873 216.215 49.2593 215.816 48.738C215.448 48.186 214.912 47.91 214.206 47.91C213.44 47.91 212.842 48.3087 212.412 49.106C211.983 49.9033 211.692 51.0227 211.538 52.464C211.508 53.1693 211.492 54.0433 211.492 55.086C211.492 56.1287 211.492 57.1713 211.492 58.214C211.523 59.226 211.523 60.0847 211.492 60.79C211.431 62.998 210.971 64.5773 210.112 65.528C209.254 66.4787 208.058 66.954 206.524 66.954C204.807 66.954 203.534 66.4787 202.706 65.528C201.878 64.5773 201.372 63.044 201.188 60.928C201.066 59.732 200.974 58.536 200.912 57.34C200.851 56.144 200.82 54.948 200.82 53.752C200.82 52.556 200.866 51.2833 200.958 49.934C201.05 48.554 201.158 47.2507 201.28 46.024C201.526 43.9693 202.016 42.2673 202.752 40.918C203.519 39.538 204.746 38.848 206.432 38.848C207.966 38.848 209.07 39.2927 209.744 40.182C210.419 41.0407 210.756 42.3747 210.756 44.184C210.756 44.7973 210.71 45.3647 210.618 45.886L210.48 44.966C211.094 42.9727 212.121 41.424 213.562 40.32C215.004 39.1853 216.598 38.618 218.346 38.618C220.585 38.618 222.333 39.3233 223.59 40.734C224.848 42.114 225.538 44.0307 225.66 46.484L225.016 45.932Z"/>
</mask>
<path d="M129.216 67.506C125.291 67.506 122.025 66.862 119.418 65.574C116.811 64.2553 114.864 62.4153 113.576 60.054C112.319 57.6927 111.69 54.9327 111.69 51.774C111.69 48.278 112.411 45.2267 113.852 42.62C115.293 39.9827 117.363 37.9433 120.062 36.502C122.791 35.0607 126.073 34.34 129.906 34.34C133.494 34.34 136.239 35.0607 138.14 36.502C140.072 37.9127 141.038 39.86 141.038 42.344C141.038 44.1533 140.532 45.5947 139.52 46.668C138.539 47.7107 137.097 48.232 135.196 48.232C134.153 48.232 133.249 48.094 132.482 47.818C131.715 47.542 130.949 47.2813 130.182 47.036C129.415 46.76 128.526 46.622 127.514 46.622C126.655 46.622 125.843 46.76 125.076 47.036C124.34 47.2813 123.742 47.726 123.282 48.37C122.853 48.9833 122.638 49.842 122.638 50.946C122.638 52.3873 123.067 53.4147 123.926 54.028C124.815 54.6413 125.981 54.948 127.422 54.948C128.158 54.948 128.986 54.902 129.906 54.81C130.826 54.6873 131.731 54.58 132.62 54.488C133.54 54.396 134.322 54.35 134.966 54.35C136.591 54.35 137.879 54.81 138.83 55.73C139.811 56.6193 140.302 57.9687 140.302 59.778C140.302 62.1393 139.397 64.0253 137.588 65.436C135.809 66.816 133.019 67.506 129.216 67.506ZM149.051 67.092C147.641 67.092 146.506 66.8313 145.647 66.31C144.789 65.758 144.114 64.8227 143.623 63.504C143.133 62.216 142.765 60.422 142.519 58.122C142.305 55.7913 142.197 52.9853 142.197 49.704C142.197 47.7413 142.274 45.748 142.427 43.724C142.611 41.7 142.841 39.86 143.117 38.204C143.424 36.5173 143.746 35.26 144.083 34.432C144.666 33.052 145.31 32.0707 146.015 31.488C146.721 30.9053 147.595 30.614 148.637 30.614C149.741 30.614 150.661 30.9207 151.397 31.534C152.133 32.1167 152.67 33.098 153.007 34.478C153.253 35.49 153.452 36.7013 153.605 38.112C153.759 39.5227 153.835 41.01 153.835 42.574C153.835 44.322 153.728 46.1773 153.513 48.14C153.299 50.072 153.007 51.9733 152.639 53.844C152.302 55.684 151.888 57.386 151.397 58.95L147.211 59.364C148.101 58.6893 149.082 58.168 150.155 57.8C151.259 57.432 152.287 57.248 153.237 57.248C154.495 57.248 155.461 57.57 156.135 58.214C156.841 58.8273 157.193 59.7933 157.193 61.112C157.193 62.216 156.841 63.228 156.135 64.148C155.43 65.0373 154.464 65.758 153.237 66.31C152.041 66.8313 150.646 67.092 149.051 67.092ZM180.404 67.46C178.626 67.46 177.445 67.0613 176.862 66.264C176.31 65.436 176.05 64.1327 176.08 62.354L176.862 62.584C175.206 65.9267 172.032 67.598 167.34 67.598C165.194 67.598 163.415 67.23 162.004 66.494C160.624 65.7273 159.582 64.7307 158.876 63.504C158.202 62.2773 157.864 60.9127 157.864 59.41C157.864 56.8647 158.8 54.856 160.67 53.384C162.572 51.8813 165.086 51.13 168.214 51.13C170.116 51.13 171.787 51.4213 173.228 52.004C174.67 52.5867 175.881 53.3993 176.862 54.442L175.39 54.35C175.39 51.958 174.946 50.256 174.056 49.244C173.167 48.232 171.864 47.726 170.146 47.726C169.41 47.726 168.613 47.8487 167.754 48.094C166.926 48.3087 166.068 48.5387 165.178 48.784C164.289 48.9987 163.384 49.106 162.464 49.106C161.238 49.106 160.272 48.784 159.566 48.14C158.892 47.4653 158.554 46.6067 158.554 45.564C158.554 44.1533 159.152 42.896 160.348 41.792C161.544 40.688 163.124 39.814 165.086 39.17C167.08 38.526 169.226 38.204 171.526 38.204C174.532 38.204 177.138 38.7713 179.346 39.906C181.554 41.01 183.103 42.7273 183.992 45.058C184.667 46.7447 185.142 48.646 185.418 50.762C185.725 52.878 185.878 55.132 185.878 57.524C185.878 60.1307 185.694 62.1547 185.326 63.596C184.958 65.0373 184.36 66.0493 183.532 66.632C182.735 67.184 181.692 67.46 180.404 67.46ZM171.388 60.744C172.002 60.744 172.615 60.652 173.228 60.468C173.872 60.2533 174.409 59.962 174.838 59.594C175.268 59.1953 175.482 58.72 175.482 58.168C175.482 57.616 175.314 57.1713 174.976 56.834C174.639 56.4967 174.179 56.2513 173.596 56.098C173.044 55.9447 172.446 55.868 171.802 55.868C170.637 55.868 169.702 56.1133 168.996 56.604C168.291 57.0947 167.938 57.708 167.938 58.444C167.938 59.1187 168.245 59.6707 168.858 60.1C169.502 60.5293 170.346 60.744 171.388 60.744ZM193.683 31.718C195.585 31.718 196.934 32.1627 197.731 33.052C198.559 33.9413 198.973 34.9687 198.973 36.134C198.973 37.5447 198.467 38.6487 197.455 39.446C196.443 40.2127 195.033 40.596 193.223 40.596C191.445 40.596 190.111 40.1667 189.221 39.308C188.363 38.4493 187.933 37.4373 187.933 36.272C187.933 34.7693 188.455 33.6347 189.497 32.868C190.571 32.1013 191.966 31.718 193.683 31.718ZM194.189 41.976C195.692 41.976 196.857 42.896 197.685 44.736C198.544 46.576 198.973 49.5047 198.973 53.522C198.973 58.4593 198.437 62.0167 197.363 64.194C196.321 66.3713 194.726 67.46 192.579 67.46C190.893 67.46 189.651 66.6627 188.853 65.068C188.087 63.4427 187.703 60.6213 187.703 56.604C187.703 51.6667 188.301 48.002 189.497 45.61C190.693 43.1873 192.257 41.976 194.189 41.976ZM225.016 45.932C225.323 44.6747 225.875 43.54 226.672 42.528C227.47 41.516 228.436 40.7187 229.57 40.136C230.736 39.5227 232.008 39.216 233.388 39.216C235.044 39.216 236.516 39.5993 237.804 40.366C239.092 41.1327 240.104 42.39 240.84 44.138C241.576 45.886 241.944 48.2167 241.944 51.13C241.944 52.5407 241.883 53.982 241.76 55.454C241.638 56.8953 241.484 58.2447 241.3 59.502C241.116 60.7287 240.917 61.756 240.702 62.584C240.334 64.0867 239.644 65.206 238.632 65.942C237.651 66.678 236.44 67.046 234.998 67.046C233.618 67.046 232.53 66.6627 231.732 65.896C230.935 65.1293 230.536 64.0407 230.536 62.63C230.536 62.1087 230.613 61.4033 230.766 60.514C230.92 59.594 231.088 58.6127 231.272 57.57C231.456 56.5273 231.625 55.5153 231.778 54.534C231.932 53.522 232.008 52.6787 232.008 52.004C232.008 51.0227 231.824 50.2713 231.456 49.75C231.119 49.198 230.628 48.922 229.984 48.922C229.126 48.922 228.436 49.474 227.914 50.578C227.393 51.682 227.071 53.2767 226.948 55.362C226.856 56.9567 226.734 58.3673 226.58 59.594C226.458 60.8207 226.243 61.848 225.936 62.676C225.538 63.8107 224.955 64.6693 224.188 65.252C223.452 65.804 222.456 66.08 221.198 66.08C219.818 66.08 218.714 65.6967 217.886 64.93C217.058 64.1327 216.614 62.906 216.552 61.25C216.522 60.33 216.506 59.2413 216.506 57.984C216.537 56.7267 216.552 55.4847 216.552 54.258C216.583 53.0313 216.568 52.0193 216.506 51.222C216.445 50.0873 216.215 49.2593 215.816 48.738C215.448 48.186 214.912 47.91 214.206 47.91C213.44 47.91 212.842 48.3087 212.412 49.106C211.983 49.9033 211.692 51.0227 211.538 52.464C211.508 53.1693 211.492 54.0433 211.492 55.086C211.492 56.1287 211.492 57.1713 211.492 58.214C211.523 59.226 211.523 60.0847 211.492 60.79C211.431 62.998 210.971 64.5773 210.112 65.528C209.254 66.4787 208.058 66.954 206.524 66.954C204.807 66.954 203.534 66.4787 202.706 65.528C201.878 64.5773 201.372 63.044 201.188 60.928C201.066 59.732 200.974 58.536 200.912 57.34C200.851 56.144 200.82 54.948 200.82 53.752C200.82 52.556 200.866 51.2833 200.958 49.934C201.05 48.554 201.158 47.2507 201.28 46.024C201.526 43.9693 202.016 42.2673 202.752 40.918C203.519 39.538 204.746 38.848 206.432 38.848C207.966 38.848 209.07 39.2927 209.744 40.182C210.419 41.0407 210.756 42.3747 210.756 44.184C210.756 44.7973 210.71 45.3647 210.618 45.886L210.48 44.966C211.094 42.9727 212.121 41.424 213.562 40.32C215.004 39.1853 216.598 38.618 218.346 38.618C220.585 38.618 222.333 39.3233 223.59 40.734C224.848 42.114 225.538 44.0307 225.66 46.484L225.016 45.932Z" fill="white"/>
<path d="M119.418 65.574L117.612 69.1433C117.624 69.1489 117.635 69.1545 117.646 69.1601L119.418 65.574ZM113.576 60.054L110.045 61.934C110.052 61.9458 110.058 61.9576 110.064 61.9694L113.576 60.054ZM113.852 42.62L117.353 44.5556C117.356 44.5498 117.359 44.544 117.362 44.5383L113.852 42.62ZM120.062 36.502L118.194 32.9649C118.189 32.9678 118.183 32.9708 118.178 32.9737L120.062 36.502ZM138.14 36.502L135.724 39.6896C135.743 39.7041 135.762 39.7184 135.781 39.7325L138.14 36.502ZM139.52 46.668L136.61 43.9239L136.607 43.9265L139.52 46.668ZM132.482 47.818L131.127 51.5815H131.127L132.482 47.818ZM130.182 47.036L128.827 50.7995C128.872 50.8157 128.917 50.8311 128.963 50.8457L130.182 47.036ZM125.076 47.036L126.341 50.8307C126.371 50.8207 126.401 50.8103 126.431 50.7995L125.076 47.036ZM123.282 48.37L120.027 46.045C120.02 46.0554 120.012 46.0657 120.005 46.0762L123.282 48.37ZM123.926 54.028L121.601 57.2829C121.619 57.2957 121.637 57.3084 121.655 57.3209L123.926 54.028ZM129.906 54.81L130.304 58.7901C130.348 58.7858 130.391 58.7807 130.435 58.7749L129.906 54.81ZM132.62 54.488L132.222 50.5078L132.208 50.5092L132.62 54.488ZM138.83 55.73L136.048 58.6044C136.08 58.6348 136.112 58.6646 136.144 58.6939L138.83 55.73ZM137.588 65.436L140.04 68.5963L140.047 68.5905L137.588 65.436ZM129.216 63.506C125.701 63.506 123.088 62.9255 121.19 61.9879L117.646 69.1601C120.962 70.7985 124.881 71.506 129.216 71.506V63.506ZM121.224 62.0047C119.275 61.0188 117.954 59.727 117.088 58.1386L110.064 61.9694C111.774 65.1037 114.348 67.4918 117.612 69.1433L121.224 62.0047ZM117.107 58.174C116.209 56.4876 115.69 54.3954 115.69 51.774H107.69C107.69 55.4699 108.429 58.8977 110.045 61.934L117.107 58.174ZM115.69 51.774C115.69 48.837 116.292 46.4743 117.353 44.5556L110.351 40.6844C108.53 43.979 107.69 47.719 107.69 51.774H115.69ZM117.362 44.5383C118.423 42.5973 119.922 41.1117 121.946 40.0303L118.178 32.9737C114.805 34.775 112.164 37.368 110.342 40.7017L117.362 44.5383ZM121.93 40.0391C123.961 38.9667 126.569 38.34 129.906 38.34V30.34C125.576 30.34 121.622 31.1547 118.194 32.9649L121.93 40.0391ZM129.906 38.34C133.039 38.34 134.79 38.9817 135.724 39.6896L140.556 33.3144C137.688 31.1396 133.949 30.34 129.906 30.34V38.34ZM135.781 39.7325C136.636 40.3567 137.038 41.0793 137.038 42.344H145.038C145.038 38.6407 143.508 35.4687 140.499 33.2715L135.781 39.7325ZM137.038 42.344C137.038 43.3766 136.771 43.7528 136.61 43.9239L142.43 49.4121C144.293 47.4365 145.038 44.9301 145.038 42.344H137.038ZM136.607 43.9265C136.607 43.9271 136.372 44.232 135.196 44.232V52.232C137.822 52.232 140.471 51.4942 142.433 49.4095L136.607 43.9265ZM135.196 44.232C134.492 44.232 134.067 44.1372 133.837 44.0544L131.127 51.5815C132.431 52.0508 133.814 52.232 135.196 52.232V44.232ZM133.837 44.0544C133.026 43.7625 132.214 43.4864 131.401 43.2263L128.963 50.8457C129.683 51.0763 130.405 51.3215 131.127 51.5815L133.837 44.0544ZM131.537 43.2724C130.245 42.8073 128.88 42.622 127.514 42.622V50.622C128.172 50.622 128.586 50.7127 128.827 50.7995L131.537 43.2724ZM127.514 42.622C126.219 42.622 124.945 42.8317 123.721 43.2724L126.431 50.7995C126.74 50.6883 127.092 50.622 127.514 50.622V42.622ZM123.811 43.2413C122.256 43.7596 120.968 44.728 120.027 46.045L126.537 50.695C126.54 50.6902 126.517 50.7227 126.462 50.7633C126.407 50.8045 126.359 50.8248 126.341 50.8307L123.811 43.2413ZM120.005 46.0762C118.93 47.6118 118.638 49.3911 118.638 50.946H126.638C126.638 50.6442 126.668 50.4895 126.68 50.4441C126.689 50.4046 126.671 50.5041 126.559 50.6638L120.005 46.0762ZM118.638 50.946C118.638 53.1665 119.334 55.6635 121.601 57.2829L126.251 50.7731C126.342 50.8383 126.432 50.9225 126.509 51.0204C126.585 51.1171 126.628 51.2021 126.651 51.2551C126.691 51.3509 126.638 51.2861 126.638 50.946H118.638ZM121.655 57.3209C123.402 58.5258 125.436 58.948 127.422 58.948V50.948C126.525 50.948 126.228 50.7568 126.197 50.7351L121.655 57.3209ZM127.422 58.948C128.319 58.948 129.284 58.8922 130.304 58.7901L129.508 50.8299C128.688 50.9118 127.997 50.948 127.422 50.948V58.948ZM130.435 58.7749C131.317 58.6572 132.183 58.5546 133.032 58.4668L132.208 50.5092C131.279 50.6054 130.335 50.7174 129.377 50.8451L130.435 58.7749ZM133.018 58.4681C133.857 58.3842 134.498 58.35 134.966 58.35V50.35C134.146 50.35 133.223 50.4078 132.222 50.5079L133.018 58.4681ZM134.966 58.35C135.804 58.35 136.006 58.5638 136.048 58.6044L141.612 52.8556C139.752 51.0562 137.379 50.35 134.966 50.35V58.35ZM136.144 58.6939C136.112 58.6654 136.133 58.6603 136.175 58.776C136.225 58.9152 136.302 59.2234 136.302 59.778H144.302C144.302 57.2697 143.607 54.661 141.516 52.7661L136.144 58.6939ZM136.302 59.778C136.302 60.9487 135.933 61.6542 135.129 62.2815L140.047 68.5905C142.862 66.3964 144.302 63.33 144.302 59.778H136.302ZM135.136 62.2757C134.398 62.8479 132.687 63.506 129.216 63.506V71.506C133.351 71.506 137.22 70.7841 140.04 68.5963L135.136 62.2757ZM145.647 66.31L143.484 69.6747C143.513 69.6932 143.542 69.7114 143.571 69.7291L145.647 66.31ZM143.623 63.504L147.372 62.1091C147.369 62.0994 147.365 62.0897 147.361 62.08L143.623 63.504ZM142.519 58.122L138.536 58.4889C138.538 58.508 138.54 58.5271 138.542 58.5463L142.519 58.122ZM142.427 43.724L138.444 43.3619C138.442 43.3818 138.44 43.4018 138.439 43.4218L142.427 43.724ZM143.117 38.204L139.182 37.4885C139.178 37.5077 139.175 37.5271 139.172 37.5464L143.117 38.204ZM144.083 34.432L140.398 32.8761C140.392 32.8916 140.385 32.9072 140.379 32.9228L144.083 34.432ZM146.015 31.488L148.563 34.5718V34.5718L146.015 31.488ZM151.397 31.534L148.837 34.6069C148.862 34.6283 148.888 34.6494 148.915 34.6702L151.397 31.534ZM153.007 34.478L156.895 33.5356L156.893 33.5282L153.007 34.478ZM153.513 48.14L157.489 48.5817L157.49 48.5749L153.513 48.14ZM152.639 53.844L148.715 53.0719C148.711 53.0888 148.708 53.1057 148.705 53.1227L152.639 53.844ZM151.397 58.95L151.791 62.9306C153.387 62.7728 154.734 61.6773 155.214 60.1474L151.397 58.95ZM147.211 59.364L144.794 56.1772C143.367 57.2594 142.834 59.1577 143.488 60.8246C144.141 62.4915 145.823 63.5208 147.605 63.3446L147.211 59.364ZM150.155 57.8L148.89 54.0053C148.88 54.0089 148.869 54.0125 148.858 54.0162L150.155 57.8ZM156.135 58.214L153.373 61.1074C153.418 61.1501 153.464 61.1918 153.511 61.2324L156.135 58.214ZM156.135 64.148L159.269 66.6336C159.283 66.6164 159.296 66.5991 159.31 66.5817L156.135 64.148ZM153.237 66.31L154.836 69.9768C154.85 69.9705 154.864 69.9641 154.879 69.9577L153.237 66.31ZM149.051 63.092C148.091 63.092 147.752 62.9085 147.723 62.8909L143.571 69.7291C145.26 70.7542 147.191 71.092 149.051 71.092V63.092ZM147.81 62.9453C147.91 63.0092 147.673 62.9179 147.372 62.1091L139.874 64.8989C140.555 66.7274 141.668 68.5068 143.484 69.6747L147.81 62.9453ZM147.361 62.08C147.048 61.2575 146.727 59.8532 146.497 57.6977L138.542 58.5463C138.803 60.9908 139.217 63.1745 139.885 64.928L147.361 62.08ZM146.502 57.7551C146.303 55.5839 146.197 52.9073 146.197 49.704H138.197C138.197 53.0633 138.307 55.9988 138.536 58.4889L146.502 57.7551ZM146.197 49.704C146.197 47.8455 146.27 45.953 146.416 44.0262L138.439 43.4218C138.278 45.543 138.197 47.6371 138.197 49.704H146.197ZM146.411 44.0861C146.588 42.1413 146.806 40.4018 147.063 38.8616L139.172 37.5464C138.876 39.3182 138.635 41.2587 138.444 43.3619L146.411 44.0861ZM147.053 38.9195C147.346 37.3054 147.61 36.3767 147.788 35.9412L140.379 32.9228C139.882 34.1433 139.502 35.7293 139.182 37.4885L147.053 38.9195ZM147.768 35.9879C147.99 35.463 148.189 35.0977 148.348 34.8556C148.509 34.61 148.592 34.548 148.563 34.5718L143.468 28.4042C142.046 29.579 141.09 31.2379 140.398 32.8761L147.768 35.9879ZM148.563 34.5718C148.552 34.5812 148.534 34.5936 148.513 34.6055C148.491 34.6173 148.474 34.6242 148.465 34.6272C148.456 34.6301 148.462 34.6271 148.488 34.6232C148.514 34.6192 148.563 34.614 148.637 34.614V26.614C146.802 26.614 144.989 27.1473 143.468 28.4042L148.563 34.5718ZM148.637 34.614C148.818 34.614 148.89 34.6387 148.89 34.6387C148.891 34.6391 148.883 34.6361 148.868 34.6281C148.854 34.6201 148.843 34.612 148.837 34.6069L153.958 28.4611C152.396 27.159 150.527 26.614 148.637 26.614V34.614ZM148.915 34.6702C148.79 34.5714 148.783 34.5175 148.842 34.6262C148.906 34.7423 149.015 34.9896 149.122 35.4278L156.893 33.5282C156.447 31.7059 155.592 29.7528 153.88 28.3978L148.915 34.6702ZM149.12 35.4204C149.313 36.2167 149.488 37.2484 149.629 38.5442L157.582 37.6798C157.416 36.1543 157.192 34.7633 156.895 33.5356L149.12 35.4204ZM149.629 38.5442C149.765 39.7977 149.835 41.14 149.835 42.574H157.835C157.835 40.88 157.752 39.2476 157.582 37.6798L149.629 38.5442ZM149.835 42.574C149.835 44.1595 149.738 45.8687 149.537 47.7051L157.49 48.5749C157.718 46.4859 157.835 44.4845 157.835 42.574H149.835ZM149.538 47.6983C149.335 49.5217 149.061 51.3127 148.715 53.0719L156.564 54.6161C156.954 52.6339 157.262 50.6223 157.489 48.5817L149.538 47.6983ZM148.705 53.1227C148.393 54.8237 148.016 56.3647 147.581 57.7526L155.214 60.1474C155.76 58.4073 156.211 56.5443 156.574 54.5653L148.705 53.1227ZM151.004 54.9694L146.818 55.3834L147.605 63.3446L151.791 62.9306L151.004 54.9694ZM149.629 62.5508C150.173 62.1377 150.775 61.816 151.453 61.5838L148.858 54.0162C147.389 54.52 146.028 55.2409 144.794 56.1772L149.629 62.5508ZM151.42 61.5947C152.204 61.3333 152.8 61.248 153.237 61.248V53.248C151.773 53.248 150.314 53.5307 148.89 54.0053L151.42 61.5947ZM153.237 61.248C153.533 61.248 153.648 61.2868 153.64 61.2842C153.633 61.2821 153.598 61.2695 153.545 61.2383C153.491 61.2065 153.431 61.1628 153.373 61.1074L158.897 55.3206C157.25 53.7485 155.157 53.248 153.237 53.248V61.248ZM153.511 61.2324C153.416 61.1498 153.336 61.0577 153.275 60.9664C153.215 60.8766 153.184 60.8055 153.171 60.7703C153.149 60.7093 153.193 60.7948 153.193 61.112H161.193C161.193 59.1278 160.652 56.841 158.76 55.1956L153.511 61.2324ZM153.193 61.112C153.193 61.29 153.16 61.4552 152.961 61.7143L159.31 66.5817C160.522 65.0009 161.193 63.142 161.193 61.112H153.193ZM153.001 61.6624C152.761 61.9658 152.347 62.3244 151.596 62.6623L154.879 69.9577C156.581 69.1916 158.099 68.1089 159.269 66.6336L153.001 61.6624ZM151.639 62.6432C151.046 62.9017 150.215 63.092 149.051 63.092V71.092C151.077 71.092 153.037 70.761 154.836 69.9768L151.639 62.6432ZM176.862 66.264L173.534 68.4828C173.566 68.5306 173.599 68.5777 173.633 68.6241L176.862 66.264ZM176.08 62.354L177.209 58.5165C176.011 58.1643 174.718 58.3914 173.712 59.1308C172.706 59.8701 172.102 61.0367 172.081 62.285L176.08 62.354ZM176.862 62.584L180.447 64.3597C180.971 63.3006 181.001 62.0637 180.527 60.9808C180.053 59.898 179.125 59.08 177.991 58.7465L176.862 62.584ZM162.004 66.494L160.062 69.9906C160.092 70.0076 160.123 70.0242 160.154 70.0403L162.004 66.494ZM158.876 63.504L155.371 65.4317C155.384 65.4539 155.396 65.4759 155.409 65.4979L158.876 63.504ZM160.67 53.384L163.144 56.5275L163.151 56.5222L160.67 53.384ZM173.228 52.004L171.729 55.7124H171.729L173.228 52.004ZM176.862 54.442L176.613 58.4342C178.251 58.5366 179.785 57.6279 180.483 56.1423C181.181 54.6567 180.9 52.8957 179.775 51.7005L176.862 54.442ZM175.39 54.35H171.39C171.39 56.4623 173.033 58.2104 175.141 58.3422L175.39 54.35ZM174.056 49.244L171.052 51.8845L174.056 49.244ZM167.754 48.094L168.758 51.966C168.79 51.9577 168.822 51.9491 168.853 51.9401L167.754 48.094ZM165.178 48.784L166.117 52.6723C166.159 52.6622 166.2 52.6514 166.242 52.64L165.178 48.784ZM159.566 48.14L156.738 50.9684C156.781 51.0113 156.824 51.0531 156.869 51.0939L159.566 48.14ZM160.348 41.792L157.635 38.8528L160.348 41.792ZM165.086 39.17L163.857 35.3637C163.851 35.3656 163.845 35.3675 163.839 35.3694L165.086 39.17ZM179.346 39.906L177.518 43.4637C177.531 43.4705 177.544 43.4771 177.557 43.4837L179.346 39.906ZM183.992 45.058L180.255 46.484C180.263 46.5039 180.27 46.5238 180.278 46.5436L183.992 45.058ZM185.418 50.762L181.452 51.2794C181.454 51.2982 181.457 51.3169 181.46 51.3357L185.418 50.762ZM185.326 63.596L189.202 64.5855V64.5855L185.326 63.596ZM183.532 66.632L185.809 69.9208C185.818 69.915 185.826 69.9091 185.834 69.9032L183.532 66.632ZM173.228 60.468L174.378 64.2993C174.416 64.2877 174.455 64.2755 174.493 64.2627L173.228 60.468ZM174.838 59.594L177.441 62.631C177.482 62.5965 177.521 62.5612 177.56 62.5252L174.838 59.594ZM174.976 56.834L177.805 54.0056V54.0056L174.976 56.834ZM173.596 56.098L172.526 59.9521C172.543 59.9569 172.561 59.9617 172.578 59.9663L173.596 56.098ZM168.996 56.604L166.712 53.3204H166.712L168.996 56.604ZM168.858 60.1L166.564 63.3769C166.589 63.3943 166.614 63.4114 166.639 63.4282L168.858 60.1ZM180.404 63.46C180.106 63.46 179.88 63.4431 179.716 63.4211C179.552 63.3989 179.475 63.3749 179.464 63.3712C179.455 63.368 179.533 63.3928 179.657 63.4769C179.787 63.5649 179.946 63.7041 180.092 63.9039L173.633 68.6241C175.404 71.0474 178.331 71.46 180.404 71.46V63.46ZM180.19 64.0452C180.284 64.1852 180.235 64.1828 180.175 63.881C180.116 63.5863 180.068 63.1155 180.08 62.423L172.081 62.285C172.046 64.3167 172.297 66.6273 173.534 68.4828L180.19 64.0452ZM174.952 66.1915L175.734 66.4215L177.991 58.7465L177.209 58.5165L174.952 66.1915ZM173.278 60.8083C172.483 62.4138 170.981 63.598 167.34 63.598V71.598C173.084 71.598 177.93 69.4396 180.447 64.3597L173.278 60.8083ZM167.34 63.598C165.623 63.598 164.53 63.3 163.855 62.9477L160.154 70.0403C162.3 71.16 164.764 71.598 167.34 71.598V63.598ZM163.947 62.9974C163.127 62.5418 162.646 62.0357 162.344 61.5101L155.409 65.4979C156.517 67.4256 158.122 68.9129 160.062 69.9906L163.947 62.9974ZM162.381 61.5763C162.055 60.9833 161.864 60.2896 161.864 59.41H153.864C153.864 61.5357 154.348 63.5714 155.371 65.4317L162.381 61.5763ZM161.864 59.41C161.864 57.9931 162.311 57.1825 163.144 56.5275L158.197 50.2405C155.288 52.5295 153.864 55.7363 153.864 59.41H161.864ZM163.151 56.5222C164.163 55.7222 165.722 55.13 168.214 55.13V47.13C164.451 47.13 160.98 48.0405 158.19 50.2458L163.151 56.5222ZM168.214 55.13C169.713 55.13 170.857 55.3601 171.729 55.7124L174.727 48.2956C172.716 47.4826 170.518 47.13 168.214 47.13V55.13ZM171.729 55.7124C172.682 56.0974 173.397 56.5965 173.949 57.1835L179.775 51.7005C178.365 50.2022 176.658 49.0759 174.727 48.2956L171.729 55.7124ZM177.112 50.4498L175.64 50.3578L175.141 58.3422L176.613 58.4342L177.112 50.4498ZM179.39 54.35C179.39 51.6663 178.931 48.7315 177.061 46.6035L171.052 51.8845C170.979 51.8014 171.076 51.8651 171.187 52.2906C171.298 52.7174 171.39 53.3819 171.39 54.35H179.39ZM177.061 46.6035C175.214 44.5019 172.675 43.726 170.146 43.726V51.726C170.619 51.726 170.866 51.7963 170.964 51.8343C171.04 51.8639 171.047 51.8795 171.052 51.8845L177.061 46.6035ZM170.146 43.726C168.969 43.726 167.798 43.9214 166.655 44.2479L168.853 51.9401C169.428 51.7759 169.851 51.726 170.146 51.726V43.726ZM166.75 44.222C165.901 44.4422 165.022 44.6776 164.115 44.928L166.242 52.64C167.113 52.3997 167.952 52.1751 168.758 51.966L166.75 44.222ZM164.24 44.8957C163.659 45.0357 163.07 45.106 162.464 45.106V53.106C163.699 53.106 164.918 52.9616 166.117 52.6723L164.24 44.8957ZM162.464 45.106C162.196 45.106 162.086 45.0703 162.085 45.0698C162.085 45.0697 162.091 45.0717 162.102 45.0766C162.113 45.0816 162.128 45.089 162.146 45.0995C162.184 45.1214 162.225 45.1507 162.263 45.1861L156.869 51.0939C158.503 52.5853 160.533 53.106 162.464 53.106V45.106ZM162.395 45.3116C162.409 45.3262 162.434 45.3543 162.462 45.3961C162.49 45.4383 162.513 45.4835 162.53 45.5274C162.567 45.6207 162.554 45.6495 162.554 45.564H154.554C154.554 47.5592 155.24 49.4703 156.738 50.9684L162.395 45.3116ZM162.554 45.564C162.554 45.4452 162.547 45.2058 163.061 44.7312L157.635 38.8528C155.757 40.5862 154.554 42.8615 154.554 45.564H162.554ZM163.061 44.7312C163.739 44.1059 164.774 43.4824 166.333 42.9706L163.839 35.3694C161.473 36.1456 159.35 37.2701 157.635 38.8528L163.061 44.7312ZM166.316 42.9763C167.875 42.4726 169.603 42.204 171.526 42.204V34.204C168.849 34.204 166.284 34.5794 163.857 35.3637L166.316 42.9763ZM171.526 42.204C174.028 42.204 175.983 42.6748 177.518 43.4637L181.175 36.3483C178.294 34.8679 175.035 34.204 171.526 34.204V42.204ZM177.557 43.4837C178.859 44.1345 179.719 45.0783 180.255 46.484L187.729 43.632C186.487 40.3763 184.249 37.8855 181.135 36.3283L177.557 43.4837ZM180.278 46.5436C180.809 47.8708 181.212 49.4392 181.452 51.2794L189.385 50.2446C189.073 47.8528 188.525 45.6185 187.706 43.5724L180.278 46.5436ZM181.46 51.3357C181.736 53.2409 181.878 55.3018 181.878 57.524H189.878C189.878 54.9622 189.714 52.5151 189.377 50.1883L181.46 51.3357ZM181.878 57.524C181.878 60.0066 181.697 61.6428 181.451 62.6065L189.202 64.5855C189.692 62.6665 189.878 60.2547 189.878 57.524H181.878ZM181.451 62.6065C181.337 63.0524 181.221 63.2944 181.158 63.4011C181.102 63.4968 181.112 63.4444 181.23 63.3608L185.834 69.9032C187.737 68.5645 188.706 66.5284 189.202 64.5855L181.451 62.6065ZM181.255 63.3432C181.315 63.3021 181.142 63.46 180.404 63.46V71.46C182.243 71.46 184.155 71.0659 185.809 69.9208L181.255 63.3432ZM171.388 64.744C172.408 64.744 173.408 64.5902 174.378 64.2993L172.079 56.6367C171.822 56.7138 171.595 56.744 171.388 56.744V64.744ZM174.493 64.2627C175.532 63.9165 176.549 63.396 177.441 62.631L172.235 56.557C172.269 56.528 172.213 56.5902 171.963 56.6733L174.493 64.2627ZM177.56 62.5252C178.748 61.4218 179.482 59.9067 179.482 58.168H171.482C171.482 57.9101 171.536 57.6018 171.676 57.2922C171.813 56.9879 171.989 56.7813 172.116 56.6628L177.56 62.5252ZM179.482 58.168C179.482 56.7355 179.011 55.2116 177.805 54.0056L172.148 59.6624C171.918 59.4322 171.733 59.1476 171.616 58.8391C171.503 58.5417 171.482 58.3001 171.482 58.168H179.482ZM177.805 54.0056C176.851 53.0519 175.704 52.5166 174.614 52.2297L172.578 59.9663C172.654 59.9861 172.427 59.9414 172.148 59.6624L177.805 54.0056ZM174.667 52.2439C173.726 51.9826 172.764 51.868 171.802 51.868V59.868C172.129 59.868 172.362 59.9067 172.526 59.9521L174.667 52.2439ZM171.802 51.868C170.105 51.868 168.289 52.2236 166.712 53.3204L171.281 59.8876C171.115 60.0031 171.169 59.868 171.802 59.868V51.868ZM166.712 53.3204C165.139 54.4149 163.938 56.1653 163.938 58.444H171.938C171.938 58.7464 171.857 59.1009 171.67 59.4259C171.496 59.7291 171.311 59.8667 171.281 59.8876L166.712 53.3204ZM163.938 58.444C163.938 60.5824 165.019 62.2948 166.564 63.3769L171.152 56.8231C171.251 56.8922 171.474 57.0776 171.665 57.4214C171.864 57.7803 171.938 58.1496 171.938 58.444H163.938ZM166.639 63.4282C168.133 64.4236 169.824 64.744 171.388 64.744V56.744C171.136 56.744 171.004 56.7176 170.961 56.7066C170.924 56.6972 170.979 56.7062 171.077 56.7718L166.639 63.4282ZM197.731 33.052L194.753 35.7222C194.77 35.7408 194.787 35.7593 194.804 35.7777L197.731 33.052ZM197.455 39.446L199.871 42.6344C199.891 42.6191 199.911 42.6036 199.931 42.588L197.455 39.446ZM189.221 39.308L186.393 42.1364C186.409 42.153 186.426 42.1694 186.443 42.1856L189.221 39.308ZM189.497 32.868L187.172 29.6131C187.157 29.6237 187.142 29.6345 187.128 29.6454L189.497 32.868ZM197.685 44.736L194.038 46.3775C194.045 46.3942 194.053 46.4109 194.06 46.4275L197.685 44.736ZM197.363 64.194L193.775 62.4254C193.769 62.439 193.762 62.4527 193.756 62.4664L197.363 64.194ZM188.853 65.068L185.235 66.7745C185.249 66.8021 185.262 66.8295 185.275 66.8569L188.853 65.068ZM189.497 45.61L193.075 47.3989C193.078 47.3928 193.081 47.3867 193.084 47.3807L189.497 45.61ZM193.683 35.718C194.343 35.718 194.709 35.7977 194.869 35.8505C195.006 35.8956 194.903 35.889 194.753 35.7222L200.709 30.3818C198.803 28.2553 196.061 27.718 193.683 27.718V35.718ZM194.804 35.7777C194.916 35.8984 194.946 35.9678 194.953 35.9846C194.958 35.9986 194.973 36.0366 194.973 36.134H202.973C202.973 33.9105 202.144 31.9211 200.659 30.3263L194.804 35.7777ZM194.973 36.134C194.973 36.2477 194.963 36.3152 194.957 36.3454C194.951 36.3741 194.948 36.3732 194.957 36.3534C194.967 36.3328 194.98 36.3112 194.993 36.2948C195.006 36.2791 195.006 36.2833 194.98 36.304L199.931 42.588C202.005 40.9534 202.973 38.637 202.973 36.134H194.973ZM195.04 36.2576C194.964 36.3154 194.52 36.596 193.223 36.596V44.596C195.545 44.596 197.923 44.1099 199.871 42.6344L195.04 36.2576ZM193.223 36.596C192.027 36.596 191.87 36.3054 192 36.4304L186.443 42.1856C188.351 44.0279 190.862 44.596 193.223 44.596V36.596ZM192.05 36.4796C191.995 36.4252 191.966 36.3869 191.952 36.3668C191.939 36.3474 191.936 36.3399 191.938 36.3428C191.939 36.3459 191.939 36.3477 191.938 36.3434C191.937 36.3385 191.933 36.3165 191.933 36.272H183.933C183.933 38.5469 184.819 40.5628 186.393 42.1364L192.05 36.4796ZM191.933 36.272C191.933 35.9819 191.983 35.912 191.959 35.964C191.948 35.9884 191.928 36.0212 191.902 36.0531C191.876 36.0844 191.86 36.0959 191.867 36.0906L187.128 29.6454C184.885 31.2943 183.933 33.7306 183.933 36.272H191.933ZM191.822 36.1229C192.038 35.9686 192.549 35.718 193.683 35.718V27.718C191.383 27.718 189.103 28.2341 187.172 29.6131L191.822 36.1229ZM194.189 45.976C194.15 45.976 194.062 45.9688 193.949 45.93C193.836 45.891 193.754 45.8393 193.712 45.8055C193.674 45.7756 193.695 45.7824 193.758 45.8705C193.823 45.9604 193.922 46.1201 194.038 46.3775L201.333 43.0945C200.122 40.4044 197.82 37.976 194.189 37.976V45.976ZM194.06 46.4275C194.532 47.4371 194.973 49.6269 194.973 53.522H202.973C202.973 49.3824 202.556 45.7149 201.31 43.0445L194.06 46.4275ZM194.973 53.522C194.973 58.3534 194.418 61.121 193.775 62.4254L200.951 65.9626C202.455 62.9124 202.973 58.5653 202.973 53.522H194.973ZM193.756 62.4664C193.463 63.077 193.217 63.2806 193.13 63.3399C193.071 63.3805 192.941 63.46 192.579 63.46V71.46C194.364 71.46 196.105 70.9952 197.641 69.9471C199.148 68.9178 200.221 67.4884 200.971 65.9216L193.756 62.4664ZM192.579 63.46C192.474 63.46 192.436 63.4477 192.448 63.451C192.464 63.4553 192.502 63.469 192.544 63.4959C192.585 63.5222 192.595 63.5388 192.578 63.5194C192.559 63.4969 192.505 63.4265 192.431 63.2791L185.275 66.8569C185.929 68.1637 186.88 69.367 188.222 70.2281C189.576 71.0974 191.082 71.46 192.579 71.46V63.46ZM192.471 63.3615C192.117 62.6109 191.703 60.5859 191.703 56.604H183.703C183.703 60.6568 184.056 64.2745 185.235 66.7745L192.471 63.3615ZM191.703 56.604C191.703 51.847 192.303 48.9432 193.075 47.3989L185.919 43.8211C184.3 47.0608 183.703 51.4863 183.703 56.604H191.703ZM193.084 47.3807C193.506 46.5252 193.857 46.1708 194.017 46.0469C194.054 46.0179 194.08 46.002 194.095 45.9939C194.109 45.9861 194.117 45.9834 194.119 45.9827C194.121 45.982 194.124 45.9809 194.132 45.9797C194.139 45.9784 194.158 45.976 194.189 45.976V37.976C190.143 37.976 187.471 40.6778 185.91 43.8393L193.084 47.3807ZM225.016 45.932L221.13 44.9842C220.773 46.4481 221.269 47.9884 222.413 48.969L225.016 45.932ZM226.672 42.528L223.53 40.0525V40.0525L226.672 42.528ZM229.57 40.136L231.398 43.6943C231.41 43.6881 231.421 43.6819 231.433 43.6757L229.57 40.136ZM237.804 40.366L239.85 36.9288V36.9288L237.804 40.366ZM240.84 44.138L237.154 45.6902L240.84 44.138ZM241.76 55.454L245.746 55.7932L245.747 55.7862L241.76 55.454ZM241.3 59.502L245.256 60.0954C245.257 60.0906 245.258 60.0859 245.258 60.0812L241.3 59.502ZM240.702 62.584L236.83 61.5801C236.826 61.5976 236.821 61.615 236.817 61.6325L240.702 62.584ZM238.632 65.942L236.28 62.7071C236.264 62.7186 236.248 62.7302 236.232 62.742L238.632 65.942ZM231.732 65.896L228.96 68.7793L231.732 65.896ZM230.766 60.514L234.708 61.1936C234.709 61.1863 234.711 61.1789 234.712 61.1716L230.766 60.514ZM231.272 57.57L227.333 56.8749L231.272 57.57ZM231.778 54.534L235.73 55.1515C235.731 55.1454 235.732 55.1393 235.733 55.1332L231.778 54.534ZM231.456 49.75L228.043 51.8358C228.089 51.911 228.138 51.9847 228.189 52.0567L231.456 49.75ZM227.914 50.578L224.297 48.87L227.914 50.578ZM226.948 55.362L222.955 55.1271L222.955 55.1316L226.948 55.362ZM226.58 59.594L222.611 59.0979C222.607 59.1305 222.604 59.1632 222.6 59.196L226.58 59.594ZM225.936 62.676L222.185 61.2867C222.178 61.3078 222.17 61.3289 222.163 61.3501L225.936 62.676ZM224.188 65.252L226.588 68.452C226.595 68.4469 226.602 68.4418 226.609 68.4366L224.188 65.252ZM217.886 64.93L215.112 67.8113C215.131 67.8294 215.15 67.8473 215.169 67.865L217.886 64.93ZM216.552 61.25L212.555 61.3833C212.555 61.3882 212.555 61.3931 212.555 61.398L216.552 61.25ZM216.506 57.984L212.508 57.8865C212.507 57.919 212.506 57.9515 212.506 57.984H216.506ZM216.552 54.258L212.554 54.158C212.553 54.1913 212.552 54.2247 212.552 54.258H216.552ZM216.506 51.222L212.512 51.4379C212.514 51.4682 212.516 51.4985 212.518 51.5288L216.506 51.222ZM215.816 48.738L212.488 50.9568C212.536 51.0287 212.586 51.0991 212.639 51.1678L215.816 48.738ZM212.412 49.106L208.891 47.2096L208.891 47.2096L212.412 49.106ZM211.538 52.464L207.561 52.0409C207.552 52.1238 207.546 52.2069 207.542 52.2902L211.538 52.464ZM211.492 58.214H207.492C207.492 58.2544 207.493 58.2948 207.494 58.3352L211.492 58.214ZM211.492 60.79L207.496 60.6162C207.495 60.6371 207.495 60.658 207.494 60.6789L211.492 60.79ZM210.112 65.528L213.081 68.2091L210.112 65.528ZM202.706 65.528L205.723 62.9009L202.706 65.528ZM201.188 60.928L205.173 60.5815C205.172 60.5609 205.17 60.5404 205.168 60.5199L201.188 60.928ZM200.912 57.34L204.907 57.1351L200.912 57.34ZM200.958 49.934L204.949 50.2061L204.95 50.2001L200.958 49.934ZM201.28 46.024L197.309 45.5498C197.306 45.5751 197.303 45.6005 197.3 45.626L201.28 46.024ZM202.752 40.918L199.256 38.9754C199.251 38.9845 199.246 38.9935 199.241 39.0026L202.752 40.918ZM209.744 40.182L206.558 42.5995C206.571 42.6176 206.585 42.6355 206.599 42.6533L209.744 40.182ZM210.618 45.886L206.663 46.4794C206.953 48.4181 208.607 49.8604 210.567 49.8857C212.527 49.9109 214.217 48.5118 214.558 46.5811L210.618 45.886ZM210.48 44.966L206.657 43.7897C206.481 44.3622 206.436 44.967 206.525 45.5594L210.48 44.966ZM213.562 40.32L215.995 43.4955C216.009 43.4847 216.023 43.4739 216.037 43.4629L213.562 40.32ZM223.59 40.734L220.604 43.3955C220.614 43.4064 220.624 43.4172 220.634 43.428L223.59 40.734ZM225.66 46.484L223.057 49.521C224.271 50.5612 225.987 50.7791 227.422 50.0752C228.857 49.3712 229.735 47.8806 229.655 46.2843L225.66 46.484ZM228.902 46.8798C229.074 46.1765 229.373 45.5633 229.814 45.0035L223.53 40.0525C222.377 41.5167 221.572 43.1728 221.13 44.9842L228.902 46.8798ZM229.814 45.0035C230.26 44.4379 230.779 44.0119 231.398 43.6943L227.743 36.5777C226.092 37.4255 224.679 38.5941 223.53 40.0525L229.814 45.0035ZM231.433 43.6757C231.996 43.3793 232.625 43.216 233.388 43.216V35.216C231.391 35.216 229.475 35.666 227.707 36.5963L231.433 43.6757ZM233.388 43.216C234.402 43.216 235.153 43.4427 235.758 43.8032L239.85 36.9288C237.88 35.756 235.687 35.216 233.388 35.216V43.216ZM235.758 43.8032C236.138 44.0288 236.661 44.5188 237.154 45.6902L244.527 42.5858C243.548 40.2612 242.047 38.2365 239.85 36.9288L235.758 43.8032ZM237.154 45.6902C237.602 46.7556 237.944 48.4932 237.944 51.13H245.944C245.944 47.9401 245.55 45.0164 244.527 42.5858L237.154 45.6902ZM237.944 51.13C237.944 52.4247 237.888 53.7552 237.774 55.1218L245.747 55.7862C245.878 54.2088 245.944 52.6566 245.944 51.13H237.944ZM237.775 55.1148C237.658 56.4866 237.513 57.7552 237.343 58.9228L245.258 60.0812C245.455 58.7342 245.617 57.3041 245.746 55.7932L237.775 55.1148ZM237.345 58.9086C237.173 60.0527 236.998 60.9326 236.83 61.5801L244.574 63.5879C244.836 62.5793 245.06 61.4047 245.256 60.0954L237.345 58.9086ZM236.817 61.6325C236.619 62.4413 236.359 62.6495 236.28 62.7071L240.985 69.1769C242.93 67.7625 244.05 65.732 244.588 63.5355L236.817 61.6325ZM236.232 62.742C236.059 62.8719 235.731 63.046 234.998 63.046V71.046C237.148 71.046 239.243 70.4841 241.032 69.142L236.232 62.742ZM234.998 63.046C234.675 63.046 234.519 63.0008 234.475 62.9856C234.446 62.9754 234.473 62.9824 234.505 63.0127L228.96 68.7793C230.676 70.4294 232.854 71.046 234.998 71.046V63.046ZM234.505 63.0127C234.529 63.0355 234.552 63.064 234.571 63.0934C234.59 63.1222 234.595 63.1375 234.591 63.129C234.584 63.1092 234.536 62.9646 234.536 62.63H226.536C226.536 64.8125 227.176 67.0643 228.96 68.7793L234.505 63.0127ZM234.536 62.63C234.536 62.4426 234.57 61.9955 234.708 61.1936L226.825 59.8344C226.656 60.8112 226.536 61.7747 226.536 62.63H234.536ZM234.712 61.1716C234.863 60.2657 235.029 59.2969 235.212 58.2651L227.333 56.8749C227.147 57.9284 226.976 58.9223 226.821 59.8564L234.712 61.1716ZM235.212 58.2651C235.4 57.1983 235.573 56.1604 235.73 55.1515L227.826 53.9165C227.677 54.8703 227.513 55.8563 227.333 56.8749L235.212 58.2651ZM235.733 55.1332C235.903 54.0131 236.008 52.9535 236.008 52.004H228.008C228.008 52.4038 227.96 53.0309 227.824 53.9348L235.733 55.1332ZM236.008 52.004C236.008 50.6119 235.762 48.9138 234.724 47.4433L228.189 52.0567C228.03 51.8316 227.988 51.6663 227.985 51.656C227.984 51.6496 227.99 51.6733 227.996 51.7335C228.003 51.7936 228.008 51.8825 228.008 52.004H236.008ZM234.87 47.6642C233.81 45.9298 232.03 44.922 229.984 44.922V52.922C229.72 52.922 229.309 52.86 228.874 52.6153C228.44 52.371 228.177 52.0551 228.043 51.8358L234.87 47.6642ZM229.984 44.922C226.946 44.922 225.158 47.0474 224.297 48.87L231.531 52.286C231.626 52.0867 231.598 52.2384 231.322 52.4595C231.173 52.5781 230.97 52.7024 230.715 52.7933C230.459 52.8847 230.207 52.922 229.984 52.922V44.922ZM224.297 48.87C223.455 50.6529 223.09 52.8422 222.955 55.1271L230.941 55.5969C231.052 53.7111 231.331 52.7111 231.531 52.286L224.297 48.87ZM222.955 55.1316C222.867 56.6616 222.751 57.9806 222.611 59.0979L230.55 60.0901C230.717 58.7541 230.846 57.2518 230.942 55.5924L222.955 55.1316ZM222.6 59.196C222.499 60.2066 222.337 60.8761 222.185 61.2867L229.687 64.0653C230.149 62.8199 230.416 61.4347 230.561 59.992L222.6 59.196ZM222.163 61.3501C221.959 61.9301 221.772 62.0641 221.768 62.0673L226.609 68.4366C228.138 67.2746 229.117 65.6912 229.71 64.0019L222.163 61.3501ZM221.788 62.052C221.959 61.9242 221.903 62.08 221.198 62.08V70.08C223.009 70.08 224.946 69.6838 226.588 68.452L221.788 62.052ZM221.198 62.08C220.876 62.08 220.709 62.0352 220.647 62.0138C220.617 62.0032 220.605 61.996 220.605 61.996C220.604 61.9956 220.605 61.9958 220.605 61.9963C220.606 61.9967 220.606 61.9965 220.604 61.995L215.169 67.865C216.893 69.4615 219.047 70.08 221.198 70.08V62.08ZM220.661 62.0487C220.743 62.1281 220.735 62.1655 220.692 62.0488C220.644 61.9147 220.569 61.6216 220.55 61.102L212.555 61.398C212.638 63.6328 213.263 66.0313 215.112 67.8113L220.661 62.0487ZM220.55 61.1167C220.521 60.2538 220.506 59.2117 220.506 57.984H212.506C212.506 59.271 212.522 60.4062 212.555 61.3833L220.55 61.1167ZM220.505 58.0815C220.537 56.7925 220.552 55.518 220.552 54.258H212.552C212.552 55.4513 212.537 56.6608 212.508 57.8865L220.505 58.0815ZM220.551 54.358C220.584 53.059 220.57 51.899 220.495 50.9152L212.518 51.5288C212.565 52.1397 212.582 53.0037 212.554 54.158L220.551 54.358ZM220.501 51.0061C220.424 49.5887 220.123 47.785 218.994 46.3082L212.639 51.1678C212.541 51.04 212.486 50.9351 212.458 50.8758C212.431 50.8171 212.426 50.794 212.434 50.8206C212.441 50.8467 212.456 50.9092 212.472 51.0158C212.488 51.1218 212.503 51.2611 212.512 51.4379L220.501 51.0061ZM219.145 46.5192C217.981 44.7732 216.149 43.91 214.206 43.91V51.91C214.03 51.91 213.694 51.8726 213.309 51.6742C212.913 51.4706 212.643 51.1896 212.488 50.9568L219.145 46.5192ZM214.206 43.91C211.673 43.91 209.865 45.3989 208.891 47.2096L215.934 51.0024C215.917 51.0337 215.771 51.2907 215.402 51.5372C214.999 51.8056 214.557 51.91 214.206 51.91V43.91ZM208.891 47.2096C208.112 48.6557 207.74 50.3568 207.561 52.0409L215.516 52.8871C215.643 51.6886 215.854 51.151 215.934 51.0024L208.891 47.2096ZM207.542 52.2902C207.508 53.0736 207.492 54.0099 207.492 55.086H215.492C215.492 54.0768 215.507 53.2651 215.535 52.6378L207.542 52.2902ZM207.492 55.086C207.492 55.088 207.492 55.0901 207.492 55.0921C207.492 55.0941 207.492 55.0962 207.492 55.0982C207.492 55.1003 207.492 55.1023 207.492 55.1043C207.492 55.1064 207.492 55.1084 207.492 55.1104C207.492 55.1125 207.492 55.1145 207.492 55.1165C207.492 55.1186 207.492 55.1206 207.492 55.1227C207.492 55.1247 207.492 55.1267 207.492 55.1288C207.492 55.1308 207.492 55.1328 207.492 55.1349C207.492 55.1369 207.492 55.1389 207.492 55.141C207.492 55.143 207.492 55.1451 207.492 55.1471C207.492 55.1491 207.492 55.1512 207.492 55.1532C207.492 55.1552 207.492 55.1573 207.492 55.1593C207.492 55.1614 207.492 55.1634 207.492 55.1654C207.492 55.1675 207.492 55.1695 207.492 55.1715C207.492 55.1736 207.492 55.1756 207.492 55.1776C207.492 55.1797 207.492 55.1817 207.492 55.1838C207.492 55.1858 207.492 55.1878 207.492 55.1899C207.492 55.1919 207.492 55.1939 207.492 55.196C207.492 55.198 207.492 55.2 207.492 55.2021C207.492 55.2041 207.492 55.2062 207.492 55.2082C207.492 55.2102 207.492 55.2123 207.492 55.2143C207.492 55.2163 207.492 55.2184 207.492 55.2204C207.492 55.2224 207.492 55.2245 207.492 55.2265C207.492 55.2286 207.492 55.2306 207.492 55.2326C207.492 55.2347 207.492 55.2367 207.492 55.2387C207.492 55.2408 207.492 55.2428 207.492 55.2448C207.492 55.2469 207.492 55.2489 207.492 55.251C207.492 55.253 207.492 55.255 207.492 55.2571C207.492 55.2591 207.492 55.2611 207.492 55.2632C207.492 55.2652 207.492 55.2672 207.492 55.2693C207.492 55.2713 207.492 55.2734 207.492 55.2754C207.492 55.2774 207.492 55.2795 207.492 55.2815C207.492 55.2835 207.492 55.2856 207.492 55.2876C207.492 55.2896 207.492 55.2917 207.492 55.2937C207.492 55.2958 207.492 55.2978 207.492 55.2998C207.492 55.3019 207.492 55.3039 207.492 55.3059C207.492 55.308 207.492 55.31 207.492 55.312C207.492 55.3141 207.492 55.3161 207.492 55.3182C207.492 55.3202 207.492 55.3222 207.492 55.3243C207.492 55.3263 207.492 55.3283 207.492 55.3304C207.492 55.3324 207.492 55.3344 207.492 55.3365C207.492 55.3385 207.492 55.3406 207.492 55.3426C207.492 55.3446 207.492 55.3467 207.492 55.3487C207.492 55.3507 207.492 55.3528 207.492 55.3548C207.492 55.3568 207.492 55.3589 207.492 55.3609C207.492 55.363 207.492 55.365 207.492 55.367C207.492 55.3691 207.492 55.3711 207.492 55.3731C207.492 55.3752 207.492 55.3772 207.492 55.3792C207.492 55.3813 207.492 55.3833 207.492 55.3854C207.492 55.3874 207.492 55.3894 207.492 55.3915C207.492 55.3935 207.492 55.3955 207.492 55.3976C207.492 55.3996 207.492 55.4016 207.492 55.4037C207.492 55.4057 207.492 55.4078 207.492 55.4098C207.492 55.4118 207.492 55.4139 207.492 55.4159C207.492 55.4179 207.492 55.42 207.492 55.422C207.492 55.4241 207.492 55.4261 207.492 55.4281C207.492 55.4302 207.492 55.4322 207.492 55.4342C207.492 55.4363 207.492 55.4383 207.492 55.4403C207.492 55.4424 207.492 55.4444 207.492 55.4465C207.492 55.4485 207.492 55.4505 207.492 55.4526C207.492 55.4546 207.492 55.4566 207.492 55.4587C207.492 55.4607 207.492 55.4627 207.492 55.4648C207.492 55.4668 207.492 55.4689 207.492 55.4709C207.492 55.4729 207.492 55.475 207.492 55.477C207.492 55.479 207.492 55.4811 207.492 55.4831C207.492 55.4851 207.492 55.4872 207.492 55.4892C207.492 55.4913 207.492 55.4933 207.492 55.4953C207.492 55.4974 207.492 55.4994 207.492 55.5014C207.492 55.5035 207.492 55.5055 207.492 55.5075C207.492 55.5096 207.492 55.5116 207.492 55.5137C207.492 55.5157 207.492 55.5177 207.492 55.5198C207.492 55.5218 207.492 55.5238 207.492 55.5259C207.492 55.5279 207.492 55.5299 207.492 55.532C207.492 55.534 207.492 55.5361 207.492 55.5381C207.492 55.5401 207.492 55.5422 207.492 55.5442C207.492 55.5462 207.492 55.5483 207.492 55.5503C207.492 55.5523 207.492 55.5544 207.492 55.5564C207.492 55.5585 207.492 55.5605 207.492 55.5625C207.492 55.5646 207.492 55.5666 207.492 55.5686C207.492 55.5707 207.492 55.5727 207.492 55.5747C207.492 55.5768 207.492 55.5788 207.492 55.5809C207.492 55.5829 207.492 55.5849 207.492 55.587C207.492 55.589 207.492 55.591 207.492 55.5931C207.492 55.5951 207.492 55.5972 207.492 55.5992C207.492 55.6012 207.492 55.6033 207.492 55.6053C207.492 55.6073 207.492 55.6094 207.492 55.6114C207.492 55.6134 207.492 55.6155 207.492 55.6175C207.492 55.6196 207.492 55.6216 207.492 55.6236C207.492 55.6257 207.492 55.6277 207.492 55.6297C207.492 55.6318 207.492 55.6338 207.492 55.6358C207.492 55.6379 207.492 55.6399 207.492 55.642C207.492 55.644 207.492 55.646 207.492 55.6481C207.492 55.6501 207.492 55.6521 207.492 55.6542C207.492 55.6562 207.492 55.6582 207.492 55.6603C207.492 55.6623 207.492 55.6644 207.492 55.6664C207.492 55.6684 207.492 55.6705 207.492 55.6725C207.492 55.6745 207.492 55.6766 207.492 55.6786C207.492 55.6806 207.492 55.6827 207.492 55.6847C207.492 55.6868 207.492 55.6888 207.492 55.6908C207.492 55.6929 207.492 55.6949 207.492 55.6969C207.492 55.699 207.492 55.701 207.492 55.703C207.492 55.7051 207.492 55.7071 207.492 55.7092C207.492 55.7112 207.492 55.7132 207.492 55.7153C207.492 55.7173 207.492 55.7193 207.492 55.7214C207.492 55.7234 207.492 55.7254 207.492 55.7275C207.492 55.7295 207.492 55.7316 207.492 55.7336C207.492 55.7356 207.492 55.7377 207.492 55.7397C207.492 55.7417 207.492 55.7438 207.492 55.7458C207.492 55.7478 207.492 55.7499 207.492 55.7519C207.492 55.754 207.492 55.756 207.492 55.758C207.492 55.7601 207.492 55.7621 207.492 55.7641C207.492 55.7662 207.492 55.7682 207.492 55.7702C207.492 55.7723 207.492 55.7743 207.492 55.7764C207.492 55.7784 207.492 55.7804 207.492 55.7825C207.492 55.7845 207.492 55.7865 207.492 55.7886C207.492 55.7906 207.492 55.7927 207.492 55.7947C207.492 55.7967 207.492 55.7988 207.492 55.8008C207.492 55.8028 207.492 55.8049 207.492 55.8069C207.492 55.8089 207.492 55.811 207.492 55.813C207.492 55.8151 207.492 55.8171 207.492 55.8191C207.492 55.8212 207.492 55.8232 207.492 55.8252C207.492 55.8273 207.492 55.8293 207.492 55.8313C207.492 55.8334 207.492 55.8354 207.492 55.8375C207.492 55.8395 207.492 55.8415 207.492 55.8436C207.492 55.8456 207.492 55.8476 207.492 55.8497C207.492 55.8517 207.492 55.8537 207.492 55.8558C207.492 55.8578 207.492 55.8599 207.492 55.8619C207.492 55.8639 207.492 55.866 207.492 55.868C207.492 55.87 207.492 55.8721 207.492 55.8741C207.492 55.8761 207.492 55.8782 207.492 55.8802C207.492 55.8823 207.492 55.8843 207.492 55.8863C207.492 55.8884 207.492 55.8904 207.492 55.8924C207.492 55.8945 207.492 55.8965 207.492 55.8985C207.492 55.9006 207.492 55.9026 207.492 55.9047C207.492 55.9067 207.492 55.9087 207.492 55.9108C207.492 55.9128 207.492 55.9148 207.492 55.9169C207.492 55.9189 207.492 55.9209 207.492 55.923C207.492 55.925 207.492 55.9271 207.492 55.9291C207.492 55.9311 207.492 55.9332 207.492 55.9352C207.492 55.9372 207.492 55.9393 207.492 55.9413C207.492 55.9433 207.492 55.9454 207.492 55.9474C207.492 55.9495 207.492 55.9515 207.492 55.9535C207.492 55.9556 207.492 55.9576 207.492 55.9596C207.492 55.9617 207.492 55.9637 207.492 55.9657C207.492 55.9678 207.492 55.9698 207.492 55.9719C207.492 55.9739 207.492 55.9759 207.492 55.978C207.492 55.98 207.492 55.982 207.492 55.9841C207.492 55.9861 207.492 55.9882 207.492 55.9902C207.492 55.9922 207.492 55.9943 207.492 55.9963C207.492 55.9983 207.492 56.0004 207.492 56.0024C207.492 56.0044 207.492 56.0065 207.492 56.0085C207.492 56.0106 207.492 56.0126 207.492 56.0146C207.492 56.0167 207.492 56.0187 207.492 56.0207C207.492 56.0228 207.492 56.0248 207.492 56.0268C207.492 56.0289 207.492 56.0309 207.492 56.033C207.492 56.035 207.492 56.037 207.492 56.0391C207.492 56.0411 207.492 56.0431 207.492 56.0452C207.492 56.0472 207.492 56.0492 207.492 56.0513C207.492 56.0533 207.492 56.0554 207.492 56.0574C207.492 56.0594 207.492 56.0615 207.492 56.0635C207.492 56.0655 207.492 56.0676 207.492 56.0696C207.492 56.0716 207.492 56.0737 207.492 56.0757C207.492 56.0778 207.492 56.0798 207.492 56.0818C207.492 56.0839 207.492 56.0859 207.492 56.0879C207.492 56.09 207.492 56.092 207.492 56.094C207.492 56.0961 207.492 56.0981 207.492 56.1002C207.492 56.1022 207.492 56.1042 207.492 56.1063C207.492 56.1083 207.492 56.1103 207.492 56.1124C207.492 56.1144 207.492 56.1164 207.492 56.1185C207.492 56.1205 207.492 56.1226 207.492 56.1246C207.492 56.1266 207.492 56.1287 207.492 56.1307C207.492 56.1327 207.492 56.1348 207.492 56.1368C207.492 56.1388 207.492 56.1409 207.492 56.1429C207.492 56.145 207.492 56.147 207.492 56.149C207.492 56.1511 207.492 56.1531 207.492 56.1551C207.492 56.1572 207.492 56.1592 207.492 56.1613C207.492 56.1633 207.492 56.1653 207.492 56.1674C207.492 56.1694 207.492 56.1714 207.492 56.1735C207.492 56.1755 207.492 56.1775 207.492 56.1796C207.492 56.1816 207.492 56.1837 207.492 56.1857C207.492 56.1877 207.492 56.1898 207.492 56.1918C207.492 56.1938 207.492 56.1959 207.492 56.1979C207.492 56.1999 207.492 56.202 207.492 56.204C207.492 56.2061 207.492 56.2081 207.492 56.2101C207.492 56.2122 207.492 56.2142 207.492 56.2162C207.492 56.2183 207.492 56.2203 207.492 56.2223C207.492 56.2244 207.492 56.2264 207.492 56.2285C207.492 56.2305 207.492 56.2325 207.492 56.2346C207.492 56.2366 207.492 56.2386 207.492 56.2407C207.492 56.2427 207.492 56.2447 207.492 56.2468C207.492 56.2488 207.492 56.2509 207.492 56.2529C207.492 56.2549 207.492 56.257 207.492 56.259C207.492 56.261 207.492 56.2631 207.492 56.2651C207.492 56.2671 207.492 56.2692 207.492 56.2712C207.492 56.2733 207.492 56.2753 207.492 56.2773C207.492 56.2794 207.492 56.2814 207.492 56.2834C207.492 56.2855 207.492 56.2875 207.492 56.2895C207.492 56.2916 207.492 56.2936 207.492 56.2957C207.492 56.2977 207.492 56.2997 207.492 56.3018C207.492 56.3038 207.492 56.3058 207.492 56.3079C207.492 56.3099 207.492 56.3119 207.492 56.314C207.492 56.316 207.492 56.3181 207.492 56.3201C207.492 56.3221 207.492 56.3242 207.492 56.3262C207.492 56.3282 207.492 56.3303 207.492 56.3323C207.492 56.3343 207.492 56.3364 207.492 56.3384C207.492 56.3405 207.492 56.3425 207.492 56.3445C207.492 56.3466 207.492 56.3486 207.492 56.3506C207.492 56.3527 207.492 56.3547 207.492 56.3568C207.492 56.3588 207.492 56.3608 207.492 56.3629C207.492 56.3649 207.492 56.3669 207.492 56.369C207.492 56.371 207.492 56.373 207.492 56.3751C207.492 56.3771 207.492 56.3792 207.492 56.3812C207.492 56.3832 207.492 56.3853 207.492 56.3873C207.492 56.3893 207.492 56.3914 207.492 56.3934C207.492 56.3954 207.492 56.3975 207.492 56.3995C207.492 56.4016 207.492 56.4036 207.492 56.4056C207.492 56.4077 207.492 56.4097 207.492 56.4117C207.492 56.4138 207.492 56.4158 207.492 56.4178C207.492 56.4199 207.492 56.4219 207.492 56.424C207.492 56.426 207.492 56.428 207.492 56.4301C207.492 56.4321 207.492 56.4341 207.492 56.4362C207.492 56.4382 207.492 56.4402 207.492 56.4423C207.492 56.4443 207.492 56.4464 207.492 56.4484C207.492 56.4504 207.492 56.4525 207.492 56.4545C207.492 56.4565 207.492 56.4586 207.492 56.4606C207.492 56.4626 207.492 56.4647 207.492 56.4667C207.492 56.4688 207.492 56.4708 207.492 56.4728C207.492 56.4749 207.492 56.4769 207.492 56.4789C207.492 56.481 207.492 56.483 207.492 56.485C207.492 56.4871 207.492 56.4891 207.492 56.4912C207.492 56.4932 207.492 56.4952 207.492 56.4973C207.492 56.4993 207.492 56.5013 207.492 56.5034C207.492 56.5054 207.492 56.5074 207.492 56.5095C207.492 56.5115 207.492 56.5136 207.492 56.5156C207.492 56.5176 207.492 56.5197 207.492 56.5217C207.492 56.5237 207.492 56.5258 207.492 56.5278C207.492 56.5299 207.492 56.5319 207.492 56.5339C207.492 56.536 207.492 56.538 207.492 56.54C207.492 56.5421 207.492 56.5441 207.492 56.5461C207.492 56.5482 207.492 56.5502 207.492 56.5522C207.492 56.5543 207.492 56.5563 207.492 56.5584C207.492 56.5604 207.492 56.5624 207.492 56.5645C207.492 56.5665 207.492 56.5685 207.492 56.5706C207.492 56.5726 207.492 56.5746 207.492 56.5767C207.492 56.5787 207.492 56.5808 207.492 56.5828C207.492 56.5848 207.492 56.5869 207.492 56.5889C207.492 56.5909 207.492 56.593 207.492 56.595C207.492 56.5971 207.492 56.5991 207.492 56.6011C207.492 56.6032 207.492 56.6052 207.492 56.6072C207.492 56.6093 207.492 56.6113 207.492 56.6133C207.492 56.6154 207.492 56.6174 207.492 56.6195C207.492 56.6215 207.492 56.6235 207.492 56.6256C207.492 56.6276 207.492 56.6296 207.492 56.6317C207.492 56.6337 207.492 56.6357 207.492 56.6378C207.492 56.6398 207.492 56.6419 207.492 56.6439C207.492 56.6459 207.492 56.648 207.492 56.65C207.492 56.652 207.492 56.6541 207.492 56.6561C207.492 56.6581 207.492 56.6602 207.492 56.6622C207.492 56.6643 207.492 56.6663 207.492 56.6683C207.492 56.6704 207.492 56.6724 207.492 56.6744C207.492 56.6765 207.492 56.6785 207.492 56.6805C207.492 56.6826 207.492 56.6846 207.492 56.6867C207.492 56.6887 207.492 56.6907 207.492 56.6928C207.492 56.6948 207.492 56.6968 207.492 56.6989C207.492 56.7009 207.492 56.7029 207.492 56.705C207.492 56.707 207.492 56.7091 207.492 56.7111C207.492 56.7131 207.492 56.7152 207.492 56.7172C207.492 56.7192 207.492 56.7213 207.492 56.7233C207.492 56.7253 207.492 56.7274 207.492 56.7294C207.492 56.7315 207.492 56.7335 207.492 56.7355C207.492 56.7376 207.492 56.7396 207.492 56.7416C207.492 56.7437 207.492 56.7457 207.492 56.7477C207.492 56.7498 207.492 56.7518 207.492 56.7539C207.492 56.7559 207.492 56.7579 207.492 56.76C207.492 56.762 207.492 56.764 207.492 56.7661C207.492 56.7681 207.492 56.7701 207.492 56.7722C207.492 56.7742 207.492 56.7763 207.492 56.7783C207.492 56.7803 207.492 56.7824 207.492 56.7844C207.492 56.7864 207.492 56.7885 207.492 56.7905C207.492 56.7926 207.492 56.7946 207.492 56.7966C207.492 56.7987 207.492 56.8007 207.492 56.8027C207.492 56.8048 207.492 56.8068 207.492 56.8088C207.492 56.8109 207.492 56.8129 207.492 56.815C207.492 56.817 207.492 56.819 207.492 56.8211C207.492 56.8231 207.492 56.8251 207.492 56.8272C207.492 56.8292 207.492 56.8312 207.492 56.8333C207.492 56.8353 207.492 56.8374 207.492 56.8394C207.492 56.8414 207.492 56.8435 207.492 56.8455C207.492 56.8475 207.492 56.8496 207.492 56.8516C207.492 56.8536 207.492 56.8557 207.492 56.8577C207.492 56.8598 207.492 56.8618 207.492 56.8638C207.492 56.8659 207.492 56.8679 207.492 56.8699C207.492 56.872 207.492 56.874 207.492 56.876C207.492 56.8781 207.492 56.8801 207.492 56.8822C207.492 56.8842 207.492 56.8862 207.492 56.8883C207.492 56.8903 207.492 56.8923 207.492 56.8944C207.492 56.8964 207.492 56.8984 207.492 56.9005C207.492 56.9025 207.492 56.9046 207.492 56.9066C207.492 56.9086 207.492 56.9107 207.492 56.9127C207.492 56.9147 207.492 56.9168 207.492 56.9188C207.492 56.9208 207.492 56.9229 207.492 56.9249C207.492 56.927 207.492 56.929 207.492 56.931C207.492 56.9331 207.492 56.9351 207.492 56.9371C207.492 56.9392 207.492 56.9412 207.492 56.9432C207.492 56.9453 207.492 56.9473 207.492 56.9494C207.492 56.9514 207.492 56.9534 207.492 56.9555C207.492 56.9575 207.492 56.9595 207.492 56.9616C207.492 56.9636 207.492 56.9657 207.492 56.9677C207.492 56.9697 207.492 56.9718 207.492 56.9738C207.492 56.9758 207.492 56.9779 207.492 56.9799C207.492 56.9819 207.492 56.984 207.492 56.986C207.492 56.9881 207.492 56.9901 207.492 56.9921C207.492 56.9942 207.492 56.9962 207.492 56.9982C207.492 57.0003 207.492 57.0023 207.492 57.0043C207.492 57.0064 207.492 57.0084 207.492 57.0105C207.492 57.0125 207.492 57.0145 207.492 57.0166C207.492 57.0186 207.492 57.0206 207.492 57.0227C207.492 57.0247 207.492 57.0267 207.492 57.0288C207.492 57.0308 207.492 57.0329 207.492 57.0349C207.492 57.0369 207.492 57.039 207.492 57.041C207.492 57.043 207.492 57.0451 207.492 57.0471C207.492 57.0491 207.492 57.0512 207.492 57.0532C207.492 57.0553 207.492 57.0573 207.492 57.0593C207.492 57.0614 207.492 57.0634 207.492 57.0654C207.492 57.0675 207.492 57.0695 207.492 57.0715C207.492 57.0736 207.492 57.0756 207.492 57.0777C207.492 57.0797 207.492 57.0817 207.492 57.0838C207.492 57.0858 207.492 57.0878 207.492 57.0899C207.492 57.0919 207.492 57.0939 207.492 57.096C207.492 57.098 207.492 57.1001 207.492 57.1021C207.492 57.1041 207.492 57.1062 207.492 57.1082C207.492 57.1102 207.492 57.1123 207.492 57.1143C207.492 57.1163 207.492 57.1184 207.492 57.1204C207.492 57.1225 207.492 57.1245 207.492 57.1265C207.492 57.1286 207.492 57.1306 207.492 57.1326C207.492 57.1347 207.492 57.1367 207.492 57.1387C207.492 57.1408 207.492 57.1428 207.492 57.1449C207.492 57.1469 207.492 57.1489 207.492 57.151C207.492 57.153 207.492 57.155 207.492 57.1571C207.492 57.1591 207.492 57.1612 207.492 57.1632C207.492 57.1652 207.492 57.1673 207.492 57.1693C207.492 57.1713 207.492 57.1734 207.492 57.1754C207.492 57.1774 207.492 57.1795 207.492 57.1815C207.492 57.1836 207.492 57.1856 207.492 57.1876C207.492 57.1897 207.492 57.1917 207.492 57.1937C207.492 57.1958 207.492 57.1978 207.492 57.1998C207.492 57.2019 207.492 57.2039 207.492 57.206C207.492 57.208 207.492 57.21 207.492 57.2121C207.492 57.2141 207.492 57.2161 207.492 57.2182C207.492 57.2202 207.492 57.2222 207.492 57.2243C207.492 57.2263 207.492 57.2284 207.492 57.2304C207.492 57.2324 207.492 57.2345 207.492 57.2365C207.492 57.2385 207.492 57.2406 207.492 57.2426C207.492 57.2446 207.492 57.2467 207.492 57.2487C207.492 57.2508 207.492 57.2528 207.492 57.2548C207.492 57.2569 207.492 57.2589 207.492 57.2609C207.492 57.263 207.492 57.265 207.492 57.267C207.492 57.2691 207.492 57.2711 207.492 57.2732C207.492 57.2752 207.492 57.2772 207.492 57.2793C207.492 57.2813 207.492 57.2833 207.492 57.2854C207.492 57.2874 207.492 57.2894 207.492 57.2915C207.492 57.2935 207.492 57.2956 207.492 57.2976C207.492 57.2996 207.492 57.3017 207.492 57.3037C207.492 57.3057 207.492 57.3078 207.492 57.3098C207.492 57.3118 207.492 57.3139 207.492 57.3159C207.492 57.318 207.492 57.32 207.492 57.322C207.492 57.3241 207.492 57.3261 207.492 57.3281C207.492 57.3302 207.492 57.3322 207.492 57.3342C207.492 57.3363 207.492 57.3383 207.492 57.3404C207.492 57.3424 207.492 57.3444 207.492 57.3465C207.492 57.3485 207.492 57.3505 207.492 57.3526C207.492 57.3546 207.492 57.3567 207.492 57.3587C207.492 57.3607 207.492 57.3628 207.492 57.3648C207.492 57.3668 207.492 57.3689 207.492 57.3709C207.492 57.3729 207.492 57.375 207.492 57.377C207.492 57.3791 207.492 57.3811 207.492 57.3831C207.492 57.3852 207.492 57.3872 207.492 57.3892C207.492 57.3913 207.492 57.3933 207.492 57.3953C207.492 57.3974 207.492 57.3994 207.492 57.4015C207.492 57.4035 207.492 57.4055 207.492 57.4076C207.492 57.4096 207.492 57.4116 207.492 57.4137C207.492 57.4157 207.492 57.4177 207.492 57.4198C207.492 57.4218 207.492 57.4239 207.492 57.4259C207.492 57.4279 207.492 57.43 207.492 57.432C207.492 57.434 207.492 57.4361 207.492 57.4381C207.492 57.4401 207.492 57.4422 207.492 57.4442C207.492 57.4463 207.492 57.4483 207.492 57.4503C207.492 57.4524 207.492 57.4544 207.492 57.4564C207.492 57.4585 207.492 57.4605 207.492 57.4625C207.492 57.4646 207.492 57.4666 207.492 57.4687C207.492 57.4707 207.492 57.4727 207.492 57.4748C207.492 57.4768 207.492 57.4788 207.492 57.4809C207.492 57.4829 207.492 57.4849 207.492 57.487C207.492 57.489 207.492 57.4911 207.492 57.4931C207.492 57.4951 207.492 57.4972 207.492 57.4992C207.492 57.5012 207.492 57.5033 207.492 57.5053C207.492 57.5073 207.492 57.5094 207.492 57.5114C207.492 57.5135 207.492 57.5155 207.492 57.5175C207.492 57.5196 207.492 57.5216 207.492 57.5236C207.492 57.5257 207.492 57.5277 207.492 57.5298C207.492 57.5318 207.492 57.5338 207.492 57.5359C207.492 57.5379 207.492 57.5399 207.492 57.542C207.492 57.544 207.492 57.546 207.492 57.5481C207.492 57.5501 207.492 57.5522 207.492 57.5542C207.492 57.5562 207.492 57.5583 207.492 57.5603C207.492 57.5623 207.492 57.5644 207.492 57.5664C207.492 57.5684 207.492 57.5705 207.492 57.5725C207.492 57.5746 207.492 57.5766 207.492 57.5786C207.492 57.5807 207.492 57.5827 207.492 57.5847C207.492 57.5868 207.492 57.5888 207.492 57.5908C207.492 57.5929 207.492 57.5949 207.492 57.597C207.492 57.599 207.492 57.601 207.492 57.6031C207.492 57.6051 207.492 57.6071 207.492 57.6092C207.492 57.6112 207.492 57.6132 207.492 57.6153C207.492 57.6173 207.492 57.6194 207.492 57.6214C207.492 57.6234 207.492 57.6255 207.492 57.6275C207.492 57.6295 207.492 57.6316 207.492 57.6336C207.492 57.6356 207.492 57.6377 207.492 57.6397C207.492 57.6418 207.492 57.6438 207.492 57.6458C207.492 57.6479 207.492 57.6499 207.492 57.6519C207.492 57.654 207.492 57.656 207.492 57.658C207.492 57.6601 207.492 57.6621 207.492 57.6642C207.492 57.6662 207.492 57.6682 207.492 57.6703C207.492 57.6723 207.492 57.6743 207.492 57.6764C207.492 57.6784 207.492 57.6804 207.492 57.6825C207.492 57.6845 207.492 57.6866 207.492 57.6886C207.492 57.6906 207.492 57.6927 207.492 57.6947C207.492 57.6967 207.492 57.6988 207.492 57.7008C207.492 57.7028 207.492 57.7049 207.492 57.7069C207.492 57.709 207.492 57.711 207.492 57.713C207.492 57.7151 207.492 57.7171 207.492 57.7191C207.492 57.7212 207.492 57.7232 207.492 57.7253C207.492 57.7273 207.492 57.7293 207.492 57.7314C207.492 57.7334 207.492 57.7354 207.492 57.7375C207.492 57.7395 207.492 57.7415 207.492 57.7436C207.492 57.7456 207.492 57.7477 207.492 57.7497C207.492 57.7517 207.492 57.7538 207.492 57.7558C207.492 57.7578 207.492 57.7599 207.492 57.7619C207.492 57.7639 207.492 57.766 207.492 57.768C207.492 57.7701 207.492 57.7721 207.492 57.7741C207.492 57.7762 207.492 57.7782 207.492 57.7802C207.492 57.7823 207.492 57.7843 207.492 57.7863C207.492 57.7884 207.492 57.7904 207.492 57.7925C207.492 57.7945 207.492 57.7965 207.492 57.7986C207.492 57.8006 207.492 57.8026 207.492 57.8047C207.492 57.8067 207.492 57.8087 207.492 57.8108C207.492 57.8128 207.492 57.8149 207.492 57.8169C207.492 57.8189 207.492 57.821 207.492 57.823C207.492 57.825 207.492 57.8271 207.492 57.8291C207.492 57.8311 207.492 57.8332 207.492 57.8352C207.492 57.8373 207.492 57.8393 207.492 57.8413C207.492 57.8434 207.492 57.8454 207.492 57.8474C207.492 57.8495 207.492 57.8515 207.492 57.8535C207.492 57.8556 207.492 57.8576 207.492 57.8597C207.492 57.8617 207.492 57.8637 207.492 57.8658C207.492 57.8678 207.492 57.8698 207.492 57.8719C207.492 57.8739 207.492 57.8759 207.492 57.878C207.492 57.88 207.492 57.8821 207.492 57.8841C207.492 57.8861 207.492 57.8882 207.492 57.8902C207.492 57.8922 207.492 57.8943 207.492 57.8963C207.492 57.8983 207.492 57.9004 207.492 57.9024C207.492 57.9045 207.492 57.9065 207.492 57.9085C207.492 57.9106 207.492 57.9126 207.492 57.9146C207.492 57.9167 207.492 57.9187 207.492 57.9207C207.492 57.9228 207.492 57.9248 207.492 57.9269C207.492 57.9289 207.492 57.9309 207.492 57.933C207.492 57.935 207.492 57.937 207.492 57.9391C207.492 57.9411 207.492 57.9431 207.492 57.9452C207.492 57.9472 207.492 57.9493 207.492 57.9513C207.492 57.9533 207.492 57.9554 207.492 57.9574C207.492 57.9594 207.492 57.9615 207.492 57.9635C207.492 57.9656 207.492 57.9676 207.492 57.9696C207.492 57.9717 207.492 57.9737 207.492 57.9757C207.492 57.9778 207.492 57.9798 207.492 57.9818C207.492 57.9839 207.492 57.9859 207.492 57.988C207.492 57.99 207.492 57.992 207.492 57.9941C207.492 57.9961 207.492 57.9981 207.492 58.0002C207.492 58.0022 207.492 58.0042 207.492 58.0063C207.492 58.0083 207.492 58.0104 207.492 58.0124C207.492 58.0144 207.492 58.0165 207.492 58.0185C207.492 58.0205 207.492 58.0226 207.492 58.0246C207.492 58.0266 207.492 58.0287 207.492 58.0307C207.492 58.0328 207.492 58.0348 207.492 58.0368C207.492 58.0389 207.492 58.0409 207.492 58.0429C207.492 58.045 207.492 58.047 207.492 58.049C207.492 58.0511 207.492 58.0531 207.492 58.0552C207.492 58.0572 207.492 58.0592 207.492 58.0613C207.492 58.0633 207.492 58.0653 207.492 58.0674C207.492 58.0694 207.492 58.0714 207.492 58.0735C207.492 58.0755 207.492 58.0776 207.492 58.0796C207.492 58.0816 207.492 58.0837 207.492 58.0857C207.492 58.0877 207.492 58.0898 207.492 58.0918C207.492 58.0938 207.492 58.0959 207.492 58.0979C207.492 58.1 207.492 58.102 207.492 58.104C207.492 58.1061 207.492 58.1081 207.492 58.1101C207.492 58.1122 207.492 58.1142 207.492 58.1162C207.492 58.1183 207.492 58.1203 207.492 58.1224C207.492 58.1244 207.492 58.1264 207.492 58.1285C207.492 58.1305 207.492 58.1325 207.492 58.1346C207.492 58.1366 207.492 58.1386 207.492 58.1407C207.492 58.1427 207.492 58.1448 207.492 58.1468C207.492 58.1488 207.492 58.1509 207.492 58.1529C207.492 58.1549 207.492 58.157 207.492 58.159C207.492 58.1611 207.492 58.1631 207.492 58.1651C207.492 58.1672 207.492 58.1692 207.492 58.1712C207.492 58.1733 207.492 58.1753 207.492 58.1773C207.492 58.1794 207.492 58.1814 207.492 58.1835C207.492 58.1855 207.492 58.1875 207.492 58.1896C207.492 58.1916 207.492 58.1936 207.492 58.1957C207.492 58.1977 207.492 58.1997 207.492 58.2018C207.492 58.2038 207.492 58.2059 207.492 58.2079C207.492 58.2099 207.492 58.212 207.492 58.214H215.492C215.492 58.212 215.492 58.2099 215.492 58.2079C215.492 58.2059 215.492 58.2038 215.492 58.2018C215.492 58.1997 215.492 58.1977 215.492 58.1957C215.492 58.1936 215.492 58.1916 215.492 58.1896C215.492 58.1875 215.492 58.1855 215.492 58.1835C215.492 58.1814 215.492 58.1794 215.492 58.1773C215.492 58.1753 215.492 58.1733 215.492 58.1712C215.492 58.1692 215.492 58.1672 215.492 58.1651C215.492 58.1631 215.492 58.1611 215.492 58.159C215.492 58.157 215.492 58.1549 215.492 58.1529C215.492 58.1509 215.492 58.1488 215.492 58.1468C215.492 58.1448 215.492 58.1427 215.492 58.1407C215.492 58.1386 215.492 58.1366 215.492 58.1346C215.492 58.1325 215.492 58.1305 215.492 58.1285C215.492 58.1264 215.492 58.1244 215.492 58.1224C215.492 58.1203 215.492 58.1183 215.492 58.1162C215.492 58.1142 215.492 58.1122 215.492 58.1101C215.492 58.1081 215.492 58.1061 215.492 58.104C215.492 58.102 215.492 58.1 215.492 58.0979C215.492 58.0959 215.492 58.0938 215.492 58.0918C215.492 58.0898 215.492 58.0877 215.492 58.0857C215.492 58.0837 215.492 58.0816 215.492 58.0796C215.492 58.0776 215.492 58.0755 215.492 58.0735C215.492 58.0714 215.492 58.0694 215.492 58.0674C215.492 58.0653 215.492 58.0633 215.492 58.0613C215.492 58.0592 215.492 58.0572 215.492 58.0552C215.492 58.0531 215.492 58.0511 215.492 58.049C215.492 58.047 215.492 58.045 215.492 58.0429C215.492 58.0409 215.492 58.0389 215.492 58.0368C215.492 58.0348 215.492 58.0328 215.492 58.0307C215.492 58.0287 215.492 58.0266 215.492 58.0246C215.492 58.0226 215.492 58.0205 215.492 58.0185C215.492 58.0165 215.492 58.0144 215.492 58.0124C215.492 58.0104 215.492 58.0083 215.492 58.0063C215.492 58.0042 215.492 58.0022 215.492 58.0002C215.492 57.9981 215.492 57.9961 215.492 57.9941C215.492 57.992 215.492 57.99 215.492 57.988C215.492 57.9859 215.492 57.9839 215.492 57.9818C215.492 57.9798 215.492 57.9778 215.492 57.9757C215.492 57.9737 215.492 57.9717 215.492 57.9696C215.492 57.9676 215.492 57.9656 215.492 57.9635C215.492 57.9615 215.492 57.9594 215.492 57.9574C215.492 57.9554 215.492 57.9533 215.492 57.9513C215.492 57.9493 215.492 57.9472 215.492 57.9452C215.492 57.9431 215.492 57.9411 215.492 57.9391C215.492 57.937 215.492 57.935 215.492 57.933C215.492 57.9309 215.492 57.9289 215.492 57.9269C215.492 57.9248 215.492 57.9228 215.492 57.9207C215.492 57.9187 215.492 57.9167 215.492 57.9146C215.492 57.9126 215.492 57.9106 215.492 57.9085C215.492 57.9065 215.492 57.9045 215.492 57.9024C215.492 57.9004 215.492 57.8983 215.492 57.8963C215.492 57.8943 215.492 57.8922 215.492 57.8902C215.492 57.8882 215.492 57.8861 215.492 57.8841C215.492 57.8821 215.492 57.88 215.492 57.878C215.492 57.8759 215.492 57.8739 215.492 57.8719C215.492 57.8698 215.492 57.8678 215.492 57.8658C215.492 57.8637 215.492 57.8617 215.492 57.8597C215.492 57.8576 215.492 57.8556 215.492 57.8535C215.492 57.8515 215.492 57.8495 215.492 57.8474C215.492 57.8454 215.492 57.8434 215.492 57.8413C215.492 57.8393 215.492 57.8373 215.492 57.8352C215.492 57.8332 215.492 57.8311 215.492 57.8291C215.492 57.8271 215.492 57.825 215.492 57.823C215.492 57.821 215.492 57.8189 215.492 57.8169C215.492 57.8149 215.492 57.8128 215.492 57.8108C215.492 57.8087 215.492 57.8067 215.492 57.8047C215.492 57.8026 215.492 57.8006 215.492 57.7986C215.492 57.7965 215.492 57.7945 215.492 57.7925C215.492 57.7904 215.492 57.7884 215.492 57.7863C215.492 57.7843 215.492 57.7823 215.492 57.7802C215.492 57.7782 215.492 57.7762 215.492 57.7741C215.492 57.7721 215.492 57.7701 215.492 57.768C215.492 57.766 215.492 57.7639 215.492 57.7619C215.492 57.7599 215.492 57.7578 215.492 57.7558C215.492 57.7538 215.492 57.7517 215.492 57.7497C215.492 57.7477 215.492 57.7456 215.492 57.7436C215.492 57.7415 215.492 57.7395 215.492 57.7375C215.492 57.7354 215.492 57.7334 215.492 57.7314C215.492 57.7293 215.492 57.7273 215.492 57.7253C215.492 57.7232 215.492 57.7212 215.492 57.7191C215.492 57.7171 215.492 57.7151 215.492 57.713C215.492 57.711 215.492 57.709 215.492 57.7069C215.492 57.7049 215.492 57.7028 215.492 57.7008C215.492 57.6988 215.492 57.6967 215.492 57.6947C215.492 57.6927 215.492 57.6906 215.492 57.6886C215.492 57.6866 215.492 57.6845 215.492 57.6825C215.492 57.6804 215.492 57.6784 215.492 57.6764C215.492 57.6743 215.492 57.6723 215.492 57.6703C215.492 57.6682 215.492 57.6662 215.492 57.6642C215.492 57.6621 215.492 57.6601 215.492 57.658C215.492 57.656 215.492 57.654 215.492 57.6519C215.492 57.6499 215.492 57.6479 215.492 57.6458C215.492 57.6438 215.492 57.6418 215.492 57.6397C215.492 57.6377 215.492 57.6356 215.492 57.6336C215.492 57.6316 215.492 57.6295 215.492 57.6275C215.492 57.6255 215.492 57.6234 215.492 57.6214C215.492 57.6194 215.492 57.6173 215.492 57.6153C215.492 57.6132 215.492 57.6112 215.492 57.6092C215.492 57.6071 215.492 57.6051 215.492 57.6031C215.492 57.601 215.492 57.599 215.492 57.597C215.492 57.5949 215.492 57.5929 215.492 57.5908C215.492 57.5888 215.492 57.5868 215.492 57.5847C215.492 57.5827 215.492 57.5807 215.492 57.5786C215.492 57.5766 215.492 57.5746 215.492 57.5725C215.492 57.5705 215.492 57.5684 215.492 57.5664C215.492 57.5644 215.492 57.5623 215.492 57.5603C215.492 57.5583 215.492 57.5562 215.492 57.5542C215.492 57.5522 215.492 57.5501 215.492 57.5481C215.492 57.546 215.492 57.544 215.492 57.542C215.492 57.5399 215.492 57.5379 215.492 57.5359C215.492 57.5338 215.492 57.5318 215.492 57.5298C215.492 57.5277 215.492 57.5257 215.492 57.5236C215.492 57.5216 215.492 57.5196 215.492 57.5175C215.492 57.5155 215.492 57.5135 215.492 57.5114C215.492 57.5094 215.492 57.5073 215.492 57.5053C215.492 57.5033 215.492 57.5012 215.492 57.4992C215.492 57.4972 215.492 57.4951 215.492 57.4931C215.492 57.4911 215.492 57.489 215.492 57.487C215.492 57.4849 215.492 57.4829 215.492 57.4809C215.492 57.4788 215.492 57.4768 215.492 57.4748C215.492 57.4727 215.492 57.4707 215.492 57.4687C215.492 57.4666 215.492 57.4646 215.492 57.4625C215.492 57.4605 215.492 57.4585 215.492 57.4564C215.492 57.4544 215.492 57.4524 215.492 57.4503C215.492 57.4483 215.492 57.4463 215.492 57.4442C215.492 57.4422 215.492 57.4401 215.492 57.4381C215.492 57.4361 215.492 57.434 215.492 57.432C215.492 57.43 215.492 57.4279 215.492 57.4259C215.492 57.4239 215.492 57.4218 215.492 57.4198C215.492 57.4177 215.492 57.4157 215.492 57.4137C215.492 57.4116 215.492 57.4096 215.492 57.4076C215.492 57.4055 215.492 57.4035 215.492 57.4015C215.492 57.3994 215.492 57.3974 215.492 57.3953C215.492 57.3933 215.492 57.3913 215.492 57.3892C215.492 57.3872 215.492 57.3852 215.492 57.3831C215.492 57.3811 215.492 57.3791 215.492 57.377C215.492 57.375 215.492 57.3729 215.492 57.3709C215.492 57.3689 215.492 57.3668 215.492 57.3648C215.492 57.3628 215.492 57.3607 215.492 57.3587C215.492 57.3567 215.492 57.3546 215.492 57.3526C215.492 57.3505 215.492 57.3485 215.492 57.3465C215.492 57.3444 215.492 57.3424 215.492 57.3404C215.492 57.3383 215.492 57.3363 215.492 57.3342C215.492 57.3322 215.492 57.3302 215.492 57.3281C215.492 57.3261 215.492 57.3241 215.492 57.322C215.492 57.32 215.492 57.318 215.492 57.3159C215.492 57.3139 215.492 57.3118 215.492 57.3098C215.492 57.3078 215.492 57.3057 215.492 57.3037C215.492 57.3017 215.492 57.2996 215.492 57.2976C215.492 57.2956 215.492 57.2935 215.492 57.2915C215.492 57.2894 215.492 57.2874 215.492 57.2854C215.492 57.2833 215.492 57.2813 215.492 57.2793C215.492 57.2772 215.492 57.2752 215.492 57.2732C215.492 57.2711 215.492 57.2691 215.492 57.267C215.492 57.265 215.492 57.263 215.492 57.2609C215.492 57.2589 215.492 57.2569 215.492 57.2548C215.492 57.2528 215.492 57.2508 215.492 57.2487C215.492 57.2467 215.492 57.2446 215.492 57.2426C215.492 57.2406 215.492 57.2385 215.492 57.2365C215.492 57.2345 215.492 57.2324 215.492 57.2304C215.492 57.2284 215.492 57.2263 215.492 57.2243C215.492 57.2222 215.492 57.2202 215.492 57.2182C215.492 57.2161 215.492 57.2141 215.492 57.2121C215.492 57.21 215.492 57.208 215.492 57.206C215.492 57.2039 215.492 57.2019 215.492 57.1998C215.492 57.1978 215.492 57.1958 215.492 57.1937C215.492 57.1917 215.492 57.1897 215.492 57.1876C215.492 57.1856 215.492 57.1836 215.492 57.1815C215.492 57.1795 215.492 57.1774 215.492 57.1754C215.492 57.1734 215.492 57.1713 215.492 57.1693C215.492 57.1673 215.492 57.1652 215.492 57.1632C215.492 57.1612 215.492 57.1591 215.492 57.1571C215.492 57.155 215.492 57.153 215.492 57.151C215.492 57.1489 215.492 57.1469 215.492 57.1449C215.492 57.1428 215.492 57.1408 215.492 57.1387C215.492 57.1367 215.492 57.1347 215.492 57.1326C215.492 57.1306 215.492 57.1286 215.492 57.1265C215.492 57.1245 215.492 57.1225 215.492 57.1204C215.492 57.1184 215.492 57.1163 215.492 57.1143C215.492 57.1123 215.492 57.1102 215.492 57.1082C215.492 57.1062 215.492 57.1041 215.492 57.1021C215.492 57.1001 215.492 57.098 215.492 57.096C215.492 57.0939 215.492 57.0919 215.492 57.0899C215.492 57.0878 215.492 57.0858 215.492 57.0838C215.492 57.0817 215.492 57.0797 215.492 57.0777C215.492 57.0756 215.492 57.0736 215.492 57.0715C215.492 57.0695 215.492 57.0675 215.492 57.0654C215.492 57.0634 215.492 57.0614 215.492 57.0593C215.492 57.0573 215.492 57.0553 215.492 57.0532C215.492 57.0512 215.492 57.0491 215.492 57.0471C215.492 57.0451 215.492 57.043 215.492 57.041C215.492 57.039 215.492 57.0369 215.492 57.0349C215.492 57.0329 215.492 57.0308 215.492 57.0288C215.492 57.0267 215.492 57.0247 215.492 57.0227C215.492 57.0206 215.492 57.0186 215.492 57.0166C215.492 57.0145 215.492 57.0125 215.492 57.0105C215.492 57.0084 215.492 57.0064 215.492 57.0043C215.492 57.0023 215.492 57.0003 215.492 56.9982C215.492 56.9962 215.492 56.9942 215.492 56.9921C215.492 56.9901 215.492 56.9881 215.492 56.986C215.492 56.984 215.492 56.9819 215.492 56.9799C215.492 56.9779 215.492 56.9758 215.492 56.9738C215.492 56.9718 215.492 56.9697 215.492 56.9677C215.492 56.9657 215.492 56.9636 215.492 56.9616C215.492 56.9595 215.492 56.9575 215.492 56.9555C215.492 56.9534 215.492 56.9514 215.492 56.9494C215.492 56.9473 215.492 56.9453 215.492 56.9432C215.492 56.9412 215.492 56.9392 215.492 56.9371C215.492 56.9351 215.492 56.9331 215.492 56.931C215.492 56.929 215.492 56.927 215.492 56.9249C215.492 56.9229 215.492 56.9208 215.492 56.9188C215.492 56.9168 215.492 56.9147 215.492 56.9127C215.492 56.9107 215.492 56.9086 215.492 56.9066C215.492 56.9046 215.492 56.9025 215.492 56.9005C215.492 56.8984 215.492 56.8964 215.492 56.8944C215.492 56.8923 215.492 56.8903 215.492 56.8883C215.492 56.8862 215.492 56.8842 215.492 56.8822C215.492 56.8801 215.492 56.8781 215.492 56.876C215.492 56.874 215.492 56.872 215.492 56.8699C215.492 56.8679 215.492 56.8659 215.492 56.8638C215.492 56.8618 215.492 56.8598 215.492 56.8577C215.492 56.8557 215.492 56.8536 215.492 56.8516C215.492 56.8496 215.492 56.8475 215.492 56.8455C215.492 56.8435 215.492 56.8414 215.492 56.8394C215.492 56.8374 215.492 56.8353 215.492 56.8333C215.492 56.8312 215.492 56.8292 215.492 56.8272C215.492 56.8251 215.492 56.8231 215.492 56.8211C215.492 56.819 215.492 56.817 215.492 56.815C215.492 56.8129 215.492 56.8109 215.492 56.8088C215.492 56.8068 215.492 56.8048 215.492 56.8027C215.492 56.8007 215.492 56.7987 215.492 56.7966C215.492 56.7946 215.492 56.7926 215.492 56.7905C215.492 56.7885 215.492 56.7864 215.492 56.7844C215.492 56.7824 215.492 56.7803 215.492 56.7783C215.492 56.7763 215.492 56.7742 215.492 56.7722C215.492 56.7701 215.492 56.7681 215.492 56.7661C215.492 56.764 215.492 56.762 215.492 56.76C215.492 56.7579 215.492 56.7559 215.492 56.7539C215.492 56.7518 215.492 56.7498 215.492 56.7477C215.492 56.7457 215.492 56.7437 215.492 56.7416C215.492 56.7396 215.492 56.7376 215.492 56.7355C215.492 56.7335 215.492 56.7315 215.492 56.7294C215.492 56.7274 215.492 56.7253 215.492 56.7233C215.492 56.7213 215.492 56.7192 215.492 56.7172C215.492 56.7152 215.492 56.7131 215.492 56.7111C215.492 56.7091 215.492 56.707 215.492 56.705C215.492 56.7029 215.492 56.7009 215.492 56.6989C215.492 56.6968 215.492 56.6948 215.492 56.6928C215.492 56.6907 215.492 56.6887 215.492 56.6867C215.492 56.6846 215.492 56.6826 215.492 56.6805C215.492 56.6785 215.492 56.6765 215.492 56.6744C215.492 56.6724 215.492 56.6704 215.492 56.6683C215.492 56.6663 215.492 56.6643 215.492 56.6622C215.492 56.6602 215.492 56.6581 215.492 56.6561C215.492 56.6541 215.492 56.652 215.492 56.65C215.492 56.648 215.492 56.6459 215.492 56.6439C215.492 56.6419 215.492 56.6398 215.492 56.6378C215.492 56.6357 215.492 56.6337 215.492 56.6317C215.492 56.6296 215.492 56.6276 215.492 56.6256C215.492 56.6235 215.492 56.6215 215.492 56.6195C215.492 56.6174 215.492 56.6154 215.492 56.6133C215.492 56.6113 215.492 56.6093 215.492 56.6072C215.492 56.6052 215.492 56.6032 215.492 56.6011C215.492 56.5991 215.492 56.5971 215.492 56.595C215.492 56.593 215.492 56.5909 215.492 56.5889C215.492 56.5869 215.492 56.5848 215.492 56.5828C215.492 56.5808 215.492 56.5787 215.492 56.5767C215.492 56.5746 215.492 56.5726 215.492 56.5706C215.492 56.5685 215.492 56.5665 215.492 56.5645C215.492 56.5624 215.492 56.5604 215.492 56.5584C215.492 56.5563 215.492 56.5543 215.492 56.5522C215.492 56.5502 215.492 56.5482 215.492 56.5461C215.492 56.5441 215.492 56.5421 215.492 56.54C215.492 56.538 215.492 56.536 215.492 56.5339C215.492 56.5319 215.492 56.5299 215.492 56.5278C215.492 56.5258 215.492 56.5237 215.492 56.5217C215.492 56.5197 215.492 56.5176 215.492 56.5156C215.492 56.5136 215.492 56.5115 215.492 56.5095C215.492 56.5074 215.492 56.5054 215.492 56.5034C215.492 56.5013 215.492 56.4993 215.492 56.4973C215.492 56.4952 215.492 56.4932 215.492 56.4912C215.492 56.4891 215.492 56.4871 215.492 56.485C215.492 56.483 215.492 56.481 215.492 56.4789C215.492 56.4769 215.492 56.4749 215.492 56.4728C215.492 56.4708 215.492 56.4688 215.492 56.4667C215.492 56.4647 215.492 56.4626 215.492 56.4606C215.492 56.4586 215.492 56.4565 215.492 56.4545C215.492 56.4525 215.492 56.4504 215.492 56.4484C215.492 56.4464 215.492 56.4443 215.492 56.4423C215.492 56.4402 215.492 56.4382 215.492 56.4362C215.492 56.4341 215.492 56.4321 215.492 56.4301C215.492 56.428 215.492 56.426 215.492 56.424C215.492 56.4219 215.492 56.4199 215.492 56.4178C215.492 56.4158 215.492 56.4138 215.492 56.4117C215.492 56.4097 215.492 56.4077 215.492 56.4056C215.492 56.4036 215.492 56.4016 215.492 56.3995C215.492 56.3975 215.492 56.3954 215.492 56.3934C215.492 56.3914 215.492 56.3893 215.492 56.3873C215.492 56.3853 215.492 56.3832 215.492 56.3812C215.492 56.3792 215.492 56.3771 215.492 56.3751C215.492 56.373 215.492 56.371 215.492 56.369C215.492 56.3669 215.492 56.3649 215.492 56.3629C215.492 56.3608 215.492 56.3588 215.492 56.3568C215.492 56.3547 215.492 56.3527 215.492 56.3506C215.492 56.3486 215.492 56.3466 215.492 56.3445C215.492 56.3425 215.492 56.3405 215.492 56.3384C215.492 56.3364 215.492 56.3343 215.492 56.3323C215.492 56.3303 215.492 56.3282 215.492 56.3262C215.492 56.3242 215.492 56.3221 215.492 56.3201C215.492 56.3181 215.492 56.316 215.492 56.314C215.492 56.3119 215.492 56.3099 215.492 56.3079C215.492 56.3058 215.492 56.3038 215.492 56.3018C215.492 56.2997 215.492 56.2977 215.492 56.2957C215.492 56.2936 215.492 56.2916 215.492 56.2895C215.492 56.2875 215.492 56.2855 215.492 56.2834C215.492 56.2814 215.492 56.2794 215.492 56.2773C215.492 56.2753 215.492 56.2733 215.492 56.2712C215.492 56.2692 215.492 56.2671 215.492 56.2651C215.492 56.2631 215.492 56.261 215.492 56.259C215.492 56.257 215.492 56.2549 215.492 56.2529C215.492 56.2509 215.492 56.2488 215.492 56.2468C215.492 56.2447 215.492 56.2427 215.492 56.2407C215.492 56.2386 215.492 56.2366 215.492 56.2346C215.492 56.2325 215.492 56.2305 215.492 56.2285C215.492 56.2264 215.492 56.2244 215.492 56.2223C215.492 56.2203 215.492 56.2183 215.492 56.2162C215.492 56.2142 215.492 56.2122 215.492 56.2101C215.492 56.2081 215.492 56.2061 215.492 56.204C215.492 56.202 215.492 56.1999 215.492 56.1979C215.492 56.1959 215.492 56.1938 215.492 56.1918C215.492 56.1898 215.492 56.1877 215.492 56.1857C215.492 56.1837 215.492 56.1816 215.492 56.1796C215.492 56.1775 215.492 56.1755 215.492 56.1735C215.492 56.1714 215.492 56.1694 215.492 56.1674C215.492 56.1653 215.492 56.1633 215.492 56.1613C215.492 56.1592 215.492 56.1572 215.492 56.1551C215.492 56.1531 215.492 56.1511 215.492 56.149C215.492 56.147 215.492 56.145 215.492 56.1429C215.492 56.1409 215.492 56.1388 215.492 56.1368C215.492 56.1348 215.492 56.1327 215.492 56.1307C215.492 56.1287 215.492 56.1266 215.492 56.1246C215.492 56.1226 215.492 56.1205 215.492 56.1185C215.492 56.1164 215.492 56.1144 215.492 56.1124C215.492 56.1103 215.492 56.1083 215.492 56.1063C215.492 56.1042 215.492 56.1022 215.492 56.1002C215.492 56.0981 215.492 56.0961 215.492 56.094C215.492 56.092 215.492 56.09 215.492 56.0879C215.492 56.0859 215.492 56.0839 215.492 56.0818C215.492 56.0798 215.492 56.0778 215.492 56.0757C215.492 56.0737 215.492 56.0716 215.492 56.0696C215.492 56.0676 215.492 56.0655 215.492 56.0635C215.492 56.0615 215.492 56.0594 215.492 56.0574C215.492 56.0554 215.492 56.0533 215.492 56.0513C215.492 56.0492 215.492 56.0472 215.492 56.0452C215.492 56.0431 215.492 56.0411 215.492 56.0391C215.492 56.037 215.492 56.035 215.492 56.033C215.492 56.0309 215.492 56.0289 215.492 56.0268C215.492 56.0248 215.492 56.0228 215.492 56.0207C215.492 56.0187 215.492 56.0167 215.492 56.0146C215.492 56.0126 215.492 56.0106 215.492 56.0085C215.492 56.0065 215.492 56.0044 215.492 56.0024C215.492 56.0004 215.492 55.9983 215.492 55.9963C215.492 55.9943 215.492 55.9922 215.492 55.9902C215.492 55.9882 215.492 55.9861 215.492 55.9841C215.492 55.982 215.492 55.98 215.492 55.978C215.492 55.9759 215.492 55.9739 215.492 55.9719C215.492 55.9698 215.492 55.9678 215.492 55.9657C215.492 55.9637 215.492 55.9617 215.492 55.9596C215.492 55.9576 215.492 55.9556 215.492 55.9535C215.492 55.9515 215.492 55.9495 215.492 55.9474C215.492 55.9454 215.492 55.9433 215.492 55.9413C215.492 55.9393 215.492 55.9372 215.492 55.9352C215.492 55.9332 215.492 55.9311 215.492 55.9291C215.492 55.9271 215.492 55.925 215.492 55.923C215.492 55.9209 215.492 55.9189 215.492 55.9169C215.492 55.9148 215.492 55.9128 215.492 55.9108C215.492 55.9087 215.492 55.9067 215.492 55.9047C215.492 55.9026 215.492 55.9006 215.492 55.8985C215.492 55.8965 215.492 55.8945 215.492 55.8924C215.492 55.8904 215.492 55.8884 215.492 55.8863C215.492 55.8843 215.492 55.8823 215.492 55.8802C215.492 55.8782 215.492 55.8761 215.492 55.8741C215.492 55.8721 215.492 55.87 215.492 55.868C215.492 55.866 215.492 55.8639 215.492 55.8619C215.492 55.8599 215.492 55.8578 215.492 55.8558C215.492 55.8537 215.492 55.8517 215.492 55.8497C215.492 55.8476 215.492 55.8456 215.492 55.8436C215.492 55.8415 215.492 55.8395 215.492 55.8375C215.492 55.8354 215.492 55.8334 215.492 55.8313C215.492 55.8293 215.492 55.8273 215.492 55.8252C215.492 55.8232 215.492 55.8212 215.492 55.8191C215.492 55.8171 215.492 55.8151 215.492 55.813C215.492 55.811 215.492 55.8089 215.492 55.8069C215.492 55.8049 215.492 55.8028 215.492 55.8008C215.492 55.7988 215.492 55.7967 215.492 55.7947C215.492 55.7927 215.492 55.7906 215.492 55.7886C215.492 55.7865 215.492 55.7845 215.492 55.7825C215.492 55.7804 215.492 55.7784 215.492 55.7764C215.492 55.7743 215.492 55.7723 215.492 55.7702C215.492 55.7682 215.492 55.7662 215.492 55.7641C215.492 55.7621 215.492 55.7601 215.492 55.758C215.492 55.756 215.492 55.754 215.492 55.7519C215.492 55.7499 215.492 55.7478 215.492 55.7458C215.492 55.7438 215.492 55.7417 215.492 55.7397C215.492 55.7377 215.492 55.7356 215.492 55.7336C215.492 55.7316 215.492 55.7295 215.492 55.7275C215.492 55.7254 215.492 55.7234 215.492 55.7214C215.492 55.7193 215.492 55.7173 215.492 55.7153C215.492 55.7132 215.492 55.7112 215.492 55.7092C215.492 55.7071 215.492 55.7051 215.492 55.703C215.492 55.701 215.492 55.699 215.492 55.6969C215.492 55.6949 215.492 55.6929 215.492 55.6908C215.492 55.6888 215.492 55.6868 215.492 55.6847C215.492 55.6827 215.492 55.6806 215.492 55.6786C215.492 55.6766 215.492 55.6745 215.492 55.6725C215.492 55.6705 215.492 55.6684 215.492 55.6664C215.492 55.6644 215.492 55.6623 215.492 55.6603C215.492 55.6582 215.492 55.6562 215.492 55.6542C215.492 55.6521 215.492 55.6501 215.492 55.6481C215.492 55.646 215.492 55.644 215.492 55.642C215.492 55.6399 215.492 55.6379 215.492 55.6358C215.492 55.6338 215.492 55.6318 215.492 55.6297C215.492 55.6277 215.492 55.6257 215.492 55.6236C215.492 55.6216 215.492 55.6196 215.492 55.6175C215.492 55.6155 215.492 55.6134 215.492 55.6114C215.492 55.6094 215.492 55.6073 215.492 55.6053C215.492 55.6033 215.492 55.6012 215.492 55.5992C215.492 55.5972 215.492 55.5951 215.492 55.5931C215.492 55.591 215.492 55.589 215.492 55.587C215.492 55.5849 215.492 55.5829 215.492 55.5809C215.492 55.5788 215.492 55.5768 215.492 55.5747C215.492 55.5727 215.492 55.5707 215.492 55.5686C215.492 55.5666 215.492 55.5646 215.492 55.5625C215.492 55.5605 215.492 55.5585 215.492 55.5564C215.492 55.5544 215.492 55.5523 215.492 55.5503C215.492 55.5483 215.492 55.5462 215.492 55.5442C215.492 55.5422 215.492 55.5401 215.492 55.5381C215.492 55.5361 215.492 55.534 215.492 55.532C215.492 55.5299 215.492 55.5279 215.492 55.5259C215.492 55.5238 215.492 55.5218 215.492 55.5198C215.492 55.5177 215.492 55.5157 215.492 55.5137C215.492 55.5116 215.492 55.5096 215.492 55.5075C215.492 55.5055 215.492 55.5035 215.492 55.5014C215.492 55.4994 215.492 55.4974 215.492 55.4953C215.492 55.4933 215.492 55.4913 215.492 55.4892C215.492 55.4872 215.492 55.4851 215.492 55.4831C215.492 55.4811 215.492 55.479 215.492 55.477C215.492 55.475 215.492 55.4729 215.492 55.4709C215.492 55.4689 215.492 55.4668 215.492 55.4648C215.492 55.4627 215.492 55.4607 215.492 55.4587C215.492 55.4566 215.492 55.4546 215.492 55.4526C215.492 55.4505 215.492 55.4485 215.492 55.4465C215.492 55.4444 215.492 55.4424 215.492 55.4403C215.492 55.4383 215.492 55.4363 215.492 55.4342C215.492 55.4322 215.492 55.4302 215.492 55.4281C215.492 55.4261 215.492 55.4241 215.492 55.422C215.492 55.42 215.492 55.4179 215.492 55.4159C215.492 55.4139 215.492 55.4118 215.492 55.4098C215.492 55.4078 215.492 55.4057 215.492 55.4037C215.492 55.4016 215.492 55.3996 215.492 55.3976C215.492 55.3955 215.492 55.3935 215.492 55.3915C215.492 55.3894 215.492 55.3874 215.492 55.3854C215.492 55.3833 215.492 55.3813 215.492 55.3792C215.492 55.3772 215.492 55.3752 215.492 55.3731C215.492 55.3711 215.492 55.3691 215.492 55.367C215.492 55.365 215.492 55.363 215.492 55.3609C215.492 55.3589 215.492 55.3568 215.492 55.3548C215.492 55.3528 215.492 55.3507 215.492 55.3487C215.492 55.3467 215.492 55.3446 215.492 55.3426C215.492 55.3406 215.492 55.3385 215.492 55.3365C215.492 55.3344 215.492 55.3324 215.492 55.3304C215.492 55.3283 215.492 55.3263 215.492 55.3243C215.492 55.3222 215.492 55.3202 215.492 55.3182C215.492 55.3161 215.492 55.3141 215.492 55.312C215.492 55.31 215.492 55.308 215.492 55.3059C215.492 55.3039 215.492 55.3019 215.492 55.2998C215.492 55.2978 215.492 55.2958 215.492 55.2937C215.492 55.2917 215.492 55.2896 215.492 55.2876C215.492 55.2856 215.492 55.2835 215.492 55.2815C215.492 55.2795 215.492 55.2774 215.492 55.2754C215.492 55.2734 215.492 55.2713 215.492 55.2693C215.492 55.2672 215.492 55.2652 215.492 55.2632C215.492 55.2611 215.492 55.2591 215.492 55.2571C215.492 55.255 215.492 55.253 215.492 55.251C215.492 55.2489 215.492 55.2469 215.492 55.2448C215.492 55.2428 215.492 55.2408 215.492 55.2387C215.492 55.2367 215.492 55.2347 215.492 55.2326C215.492 55.2306 215.492 55.2286 215.492 55.2265C215.492 55.2245 215.492 55.2224 215.492 55.2204C215.492 55.2184 215.492 55.2163 215.492 55.2143C215.492 55.2123 215.492 55.2102 215.492 55.2082C215.492 55.2062 215.492 55.2041 215.492 55.2021C215.492 55.2 215.492 55.198 215.492 55.196C215.492 55.1939 215.492 55.1919 215.492 55.1899C215.492 55.1878 215.492 55.1858 215.492 55.1838C215.492 55.1817 215.492 55.1797 215.492 55.1776C215.492 55.1756 215.492 55.1736 215.492 55.1715C215.492 55.1695 215.492 55.1675 215.492 55.1654C215.492 55.1634 215.492 55.1614 215.492 55.1593C215.492 55.1573 215.492 55.1552 215.492 55.1532C215.492 55.1512 215.492 55.1491 215.492 55.1471C215.492 55.1451 215.492 55.143 215.492 55.141C215.492 55.1389 215.492 55.1369 215.492 55.1349C215.492 55.1328 215.492 55.1308 215.492 55.1288C215.492 55.1267 215.492 55.1247 215.492 55.1227C215.492 55.1206 215.492 55.1186 215.492 55.1165C215.492 55.1145 215.492 55.1125 215.492 55.1104C215.492 55.1084 215.492 55.1064 215.492 55.1043C215.492 55.1023 215.492 55.1003 215.492 55.0982C215.492 55.0962 215.492 55.0941 215.492 55.0921C215.492 55.0901 215.492 55.088 215.492 55.086H207.492ZM207.494 58.3352C207.523 59.2871 207.521 60.0411 207.496 60.6162L215.489 60.9638C215.525 60.1282 215.523 59.1649 215.491 58.0928L207.494 58.3352ZM207.494 60.6789C207.47 61.5502 207.369 62.1399 207.261 62.5119C207.154 62.8808 207.07 62.9285 207.144 62.8469L213.081 68.2091C214.9 66.1946 215.421 63.4329 215.491 60.9011L207.494 60.6789ZM207.144 62.8469C207.128 62.8649 207.125 62.868 207.094 62.8803C207.047 62.8991 206.88 62.954 206.524 62.954V70.954C208.947 70.954 211.315 70.1641 213.081 68.2091L207.144 62.8469ZM206.524 62.954C206.023 62.954 205.769 62.8832 205.681 62.8503C205.619 62.827 205.666 62.8355 205.723 62.9009L199.69 68.1551C201.525 70.2621 204.09 70.954 206.524 70.954V62.954ZM205.723 62.9009C205.741 62.9223 205.636 62.8089 205.504 62.4115C205.373 62.0143 205.246 61.4216 205.173 60.5815L197.203 61.2745C197.415 63.7125 198.04 66.2603 199.69 68.1551L205.723 62.9009ZM205.168 60.5199C205.052 59.3912 204.965 58.263 204.907 57.1351L196.918 57.5449C196.982 58.809 197.08 60.0728 197.209 61.3361L205.168 60.5199ZM204.907 57.1351C204.849 56.0073 204.82 54.8796 204.82 53.752H196.82C196.82 55.0164 196.853 56.2807 196.918 57.5449L204.907 57.1351ZM204.82 53.752C204.82 52.6576 204.863 51.4763 204.949 50.2061L196.968 49.6619C196.87 51.0903 196.82 52.4544 196.82 53.752H204.82ZM204.95 50.2001C205.039 48.8589 205.143 47.5999 205.261 46.422L197.3 45.626C197.173 46.9015 197.062 48.2491 196.967 49.6679L204.95 50.2001ZM205.252 46.4982C205.457 44.7843 205.84 43.6105 206.264 42.8334L199.241 39.0026C198.193 40.9241 197.595 43.1543 197.309 45.5498L205.252 46.4982ZM206.249 42.8606C206.289 42.7889 206.308 42.773 206.295 42.7869C206.279 42.8031 206.249 42.8292 206.208 42.8518C206.169 42.8738 206.152 42.8753 206.176 42.8697C206.202 42.8633 206.283 42.848 206.432 42.848V34.848C205.038 34.848 203.607 35.1364 202.286 35.8792C200.952 36.6297 199.953 37.7196 199.256 38.9754L206.249 42.8606ZM206.432 42.848C206.625 42.848 206.756 42.8621 206.837 42.8757C206.917 42.8892 206.938 42.9006 206.916 42.8918C206.892 42.8821 206.833 42.8546 206.758 42.7984C206.682 42.7412 206.613 42.6721 206.558 42.5995L212.931 37.7645C211.242 35.5376 208.717 34.848 206.432 34.848V42.848ZM206.599 42.6533C206.513 42.5438 206.56 42.5463 206.625 42.8071C206.692 43.0713 206.756 43.5128 206.756 44.184H214.756C214.756 42.0185 214.378 39.6055 212.89 37.7107L206.599 42.6533ZM206.756 44.184C206.756 44.6 206.725 44.9317 206.679 45.1909L214.558 46.5811C214.696 45.7976 214.756 44.9947 214.756 44.184H206.756ZM214.574 45.2926L214.436 44.3726L206.525 45.5594L206.663 46.4794L214.574 45.2926ZM214.304 46.1423C214.71 44.8213 215.308 44.0212 215.995 43.4955L211.13 37.1445C208.934 38.8268 207.477 41.124 206.657 43.7897L214.304 46.1423ZM216.037 43.4629C216.81 42.854 217.543 42.618 218.346 42.618V34.618C215.654 34.618 213.197 35.5167 211.088 37.177L216.037 43.4629ZM218.346 42.618C219.675 42.618 220.247 42.9946 220.604 43.3955L226.576 38.0725C224.419 35.6521 221.495 34.618 218.346 34.618V42.618ZM220.634 43.428C221.092 43.9314 221.574 44.8617 221.665 46.6837L229.655 46.2843C229.501 43.1996 228.603 40.2966 226.547 38.04L220.634 43.428ZM228.264 43.447L227.62 42.895L222.413 48.969L223.057 49.521L228.264 43.447Z" fill="black" mask="url(#path-3-outside-1_388_13)"/>
<defs>
<filter id="filter0_i_388_13" x="0" y="0" width="352" height="113" filterUnits="userSpaceOnUse" color-interpolation-filters="sRGB">
<feFlood flood-opacity="0" result="BackgroundImageFix"/>
<feBlend mode="normal" in="SourceGraphic" in2="BackgroundImageFix" result="shape"/>
<feColorMatrix in="SourceAlpha" type="matrix" values="0 0 0 0 0 0 0 0 0 0 0 0 0 0 0 0 0 0 127 0" result="hardAlpha"/>
<feOffset dy="-15"/>
<feComposite in2="hardAlpha" operator="arithmetic" k2="-1" k3="1"/>
<feColorMatrix type="matrix" values="0 0 0 0 0.380392 0 0 0 0 0.596078 0 0 0 0 0.027451 0 0 0 1 0"/>
<feBlend mode="normal" in2="shape" result="effect1_innerShadow_388_13"/>
</filter>
</defs>
</svg>
