<svg width="349" height="195" viewBox="0 0 349 195" fill="none" xmlns="http://www.w3.org/2000/svg">
<path d="M326.238 143.561C325.76 142.472 324.96 140.655 324.311 138.938C324.311 138.938 324.311 138.938 324.311 138.935C324.311 138.935 324.311 138.935 324.311 138.933C323.994 138.097 323.754 137.392 323.601 136.835C323.545 136.63 323.476 136.426 323.396 136.227C323.356 136.122 323.317 136.03 323.276 135.94C323.241 135.859 323.202 135.782 323.161 135.7C323.154 135.685 323.141 135.662 323.133 135.647C323.095 135.575 323.057 135.501 323.016 135.429C322.957 135.327 322.903 135.235 322.852 135.153C322.819 135.1 322.781 135.041 322.747 134.987C322.732 134.964 322.717 134.939 322.699 134.916L322.691 134.903C322.681 134.888 322.671 134.872 322.661 134.857C322.622 134.801 322.584 134.747 322.543 134.696L322.517 134.663C322.502 134.64 322.487 134.619 322.474 134.604L322.469 134.599C322.441 134.558 322.41 134.52 322.382 134.484V134.489C322.344 134.433 322.298 134.382 322.254 134.328L322.241 134.313C322.198 134.259 322.139 134.193 322.073 134.118C322.042 134.083 322.009 134.047 321.976 134.014C321.94 133.975 321.904 133.937 321.868 133.899C321.781 133.807 321.689 133.715 321.595 133.628C321.587 133.62 321.58 133.612 321.572 133.605C321.562 133.595 321.549 133.584 321.539 133.572L321.513 133.546C321.47 133.508 321.429 133.469 321.388 133.431L321.36 133.408C321.319 133.372 321.281 133.339 321.242 133.306C321.194 133.265 321.145 133.224 321.097 133.186C320.887 133.014 320.667 132.848 320.442 132.695L320.435 132.69C320.389 132.659 320.345 132.629 320.302 132.6L320.294 132.595C320.256 132.57 320.218 132.544 320.182 132.521C320.054 132.437 319.924 132.36 319.786 132.284C319.778 132.279 319.77 132.276 319.763 132.271C319.737 132.256 319.709 132.24 319.681 132.227L319.617 132.194C319.574 132.174 319.53 132.151 319.487 132.133C319.397 132.095 319.305 132.056 319.218 132.015C319.137 131.98 319.055 131.944 318.973 131.908C313.992 129.746 311.549 128.545 310.407 127.881C310.928 127.413 311.675 126.8 312.646 126.041C312.763 125.949 312.873 125.864 312.97 125.788C313.195 125.614 313.331 125.504 313.438 125.409C314.003 124.926 326.828 112.87 335.198 104.981L336.179 104.056C336.825 103.445 337.459 102.85 338.072 102.272C341.32 99.2083 345.389 95.3649 346.337 94.4424C349.805 91.0743 349.01 88.5521 348.693 87.8749C348.66 87.8008 345.251 80.4896 342.818 75.5474C342.476 74.8497 342.202 74.3054 341.964 73.8327C340.74 71.4101 340.416 70.9373 340.173 70.6485C340.027 70.4722 339.345 69.6979 338.356 69.2022C338.354 69.2022 338.351 69.1996 338.348 69.197C338.341 69.1919 338.333 69.1894 338.323 69.1843C338.318 69.1817 338.313 69.1792 338.308 69.1766C338.308 69.1766 338.302 69.1766 338.3 69.174C338.267 69.1562 338.231 69.1383 338.198 69.1229L337.492 68.6834C337.196 68.2771 336.787 67.9551 336.302 67.7685L272.29 42.8758C269.717 41.8767 266.949 41.7284 264.286 42.4491C261.621 43.1697 259.306 44.6953 257.591 46.8572L203.075 115.499C201.667 117.273 201.425 119.688 202.436 121.704C202.47 121.788 202.526 121.931 202.603 122.121C202.613 122.149 202.626 122.179 202.638 122.207C202.646 122.228 202.654 122.246 202.661 122.266C202.661 122.269 202.664 122.274 202.666 122.276C202.723 122.414 202.787 122.57 202.856 122.742C202.879 122.798 202.904 122.857 202.927 122.918C202.942 122.956 202.96 122.997 202.976 123.038C203.019 123.14 203.063 123.248 203.109 123.36C203.119 123.383 203.126 123.406 203.137 123.429C203.201 123.582 203.27 123.741 203.339 123.907C204.128 125.752 204.859 127.252 205.506 128.369C205.83 128.926 206.259 129.69 206.714 130.497C209.495 135.435 210.627 137.313 211.442 138.01C211.922 138.424 212.878 138.943 215.487 140.315L215.6 140.374L215.735 140.446C215.934 140.551 216.139 140.658 216.346 140.768C216.606 140.906 216.872 141.044 217.138 141.187C217.355 141.302 217.572 141.417 217.79 141.532C218.699 142.017 219.589 142.5 220.312 142.919L203.134 173.409C202.896 173.823 202.794 174.277 202.815 174.727C202.71 175.162 202.659 175.624 202.659 176.11C202.659 176.112 202.659 176.117 202.659 176.12C202.659 176.12 202.659 176.122 202.659 176.125C202.659 176.128 202.659 176.133 202.659 176.135C202.659 176.138 202.659 176.143 202.659 176.145C202.664 178.093 203.52 180.375 204.798 181.839C204.818 181.865 204.913 182 205.12 182.406C205.293 182.741 205.488 183.153 205.71 183.625C207.085 186.523 209.16 190.903 213.095 193.18C213.44 193.379 213.806 193.553 214.181 193.701C216.642 194.66 219.745 194.504 223.404 193.244C225.543 192.506 227.24 191.598 227.784 191.294L238.152 187.456L299.544 164.73C299.914 164.605 303.771 163.289 308.314 161.646C308.465 161.592 308.616 161.536 308.769 161.482L309.025 161.39C309.541 161.201 310.067 161.012 310.594 160.815C310.596 160.815 310.599 160.815 310.601 160.813C310.681 160.785 310.76 160.754 310.839 160.726L311.056 160.647C311.056 160.647 311.069 160.642 311.074 160.639C311.202 160.59 311.33 160.544 311.457 160.496L311.825 160.358C311.825 160.358 311.83 160.358 311.833 160.358C311.838 160.358 311.843 160.355 311.848 160.353L312.702 160.033C317.417 158.26 320.836 156.849 322.86 155.835C322.865 155.832 322.873 155.83 322.878 155.827L322.893 155.819C322.916 155.809 322.937 155.796 322.957 155.786C322.975 155.779 322.99 155.771 323.005 155.761C323.471 155.526 323.856 155.313 324.186 155.112C324.281 155.055 324.383 154.991 324.472 154.933C324.477 154.93 324.48 154.928 324.485 154.925C324.705 154.779 324.891 154.641 325.055 154.506C327.794 152.209 328.237 148.12 326.241 143.574L326.238 143.561Z" fill="black"/>
<path d="M308.021 159.43C303.035 161.239 298.811 162.673 298.811 162.673L237.39 185.409L226.857 189.311C226.857 189.311 218.871 194.008 214.177 191.292C210.218 189.002 208.271 183.789 207.047 181.405L232.129 172.328L304.093 146.285C303.929 145.454 303.745 144.703 303.549 144.026C303.687 144.473 303.934 145.27 304.236 146.231C305.056 148.848 306.28 152.689 306.812 154.056C307.239 155.145 307.683 157.437 308.021 159.428V159.43Z" fill="#0042C6"/>
<path d="M308.02 159.43C303.034 161.239 298.81 162.673 298.81 162.673L237.389 185.409L232.125 172.328L304.089 146.285C303.926 145.454 303.742 144.703 303.545 144.026C303.683 144.473 303.931 145.27 304.232 146.231C305.053 148.848 306.277 152.689 306.808 154.056C307.235 155.145 307.68 157.437 308.017 159.428L308.02 159.43Z" fill="#265DFA"/>
<path d="M311.08 158.306C310.824 158.403 310.564 158.498 310.308 158.595C310.152 158.651 310.002 158.707 309.846 158.766C310.05 158.689 310.255 158.613 310.462 158.536C310.666 158.459 310.873 158.383 311.08 158.309V158.306Z" fill="#265DFA"/>
<path d="M229.278 131.404L226.362 136.582C226.181 136.924 225.982 137.277 225.769 137.632L223.188 142.217C223.048 142.081 222.826 141.918 222.539 141.728C221.274 140.885 218.76 139.572 216.6 138.437C214.771 137.474 213.191 136.646 212.846 136.347C211.978 135.6 208.804 129.728 207.375 127.262C206.647 126.005 205.891 124.354 205.326 123.038C204.802 121.811 204.439 120.878 204.416 120.822C204.804 121.538 205.441 122.133 206.284 122.46L229.278 131.402V131.404Z" fill="#215DFA"/>
<path d="M229.275 131.404L226.359 136.582C226.178 136.924 225.979 137.277 225.767 137.632L223.186 142.217C223.045 142.081 222.823 141.918 222.537 141.728C221.272 140.885 218.757 139.572 216.598 138.437C216.961 135.368 217.27 131.456 217.467 128.657C217.515 127.985 217.556 127.377 217.592 126.861L229.275 131.404Z" fill="#0357E4"/>
<path d="M305.967 109.356C312.433 103.246 320.508 95.6259 327.369 89.1606C327.558 88.9817 327.748 88.8028 327.937 88.6265C327.896 89.181 327.962 89.7739 328.238 90.3361C328.931 91.762 332.143 99.5945 333.689 103.387C324.323 112.213 312.471 123.347 312.001 123.751C311.914 123.828 311.781 123.933 311.612 124.063C310.117 120.999 307.209 112.883 305.965 109.354L305.967 109.356Z" fill="#0042C6"/>
<path d="M318.092 133.896C317.318 134.717 316.025 135.675 313.927 136.309L302.164 140.599L301.469 140.855L243.123 162.142H243.12L204.824 176.115C204.822 175.635 204.896 175.187 205.059 174.799C205.126 174.865 205.225 174.894 205.33 174.855L247.958 159.039L300.22 139.649L315.836 133.855C316.035 133.781 316.04 133.5 315.846 133.416L284.836 120.184C284.557 120.066 284.493 119.703 284.708 119.496L335.669 70.6258C335.791 70.5108 335.837 70.3523 335.822 70.2041L337.171 71.0448C337.23 71.0678 337.286 71.0934 337.343 71.1241L322.053 85.6314L286.834 119.052C286.834 119.052 286.2 119.527 287.889 120.12C289.576 120.713 292.108 121.766 292.108 121.766C292.108 121.766 292.625 122.254 294.191 120.485C294.191 120.485 299.197 115.753 305.969 109.359C307.214 112.888 310.122 121.004 311.617 124.068C310.372 125.047 307.27 127.385 307.569 128.159C307.904 129.018 308.578 129.769 318.092 133.899V133.896Z" fill="#0042C6"/>
<path d="M309.846 158.764C310.05 158.687 310.255 158.61 310.462 158.534C310.41 158.554 310.359 158.575 310.308 158.592C310.152 158.649 310.002 158.705 309.846 158.764Z" fill="#0042C6"/>
<path d="M225.767 137.635L223.186 142.22C223.046 142.084 222.823 141.921 222.537 141.732C223.797 140.615 224.898 139.094 225.767 137.635Z" fill="#0649D1"/>
<path d="M226.361 136.582C227.33 134.775 227.876 133.265 227.843 133.043C227.767 132.534 219.073 129.289 217.77 128.783C217.703 128.757 217.601 128.716 217.473 128.66C215.766 127.922 208.981 124.753 205.33 123.041C204.806 121.814 204.443 120.881 204.42 120.825C204.808 121.541 205.445 122.136 206.288 122.463L229.282 131.405L226.366 136.582H226.361Z" fill="#0649D1"/>
<path d="M315.832 133.853L300.216 139.646L247.954 159.037L205.327 174.853C205.222 174.891 205.122 174.863 205.056 174.797C204.974 174.717 204.946 174.59 205.012 174.475L223.184 142.217L225.765 137.633C225.977 137.277 226.177 136.925 226.358 136.582L229.274 131.405L206.28 122.463C205.437 122.136 204.803 121.541 204.412 120.825C203.753 119.606 203.804 118.042 204.759 116.841L259.278 48.1992C262.183 44.5398 267.133 43.2007 271.487 44.8924L335.499 69.7851C335.688 69.8592 335.798 70.0254 335.819 70.2042C335.834 70.3525 335.785 70.5083 335.665 70.6259L284.704 119.496C284.487 119.703 284.551 120.066 284.832 120.184L315.843 133.416C316.037 133.5 316.032 133.781 315.832 133.856V133.853Z" fill="#34B8FE"/>
<path d="M226.36 136.582C226.179 136.924 225.98 137.277 225.768 137.632L226.36 136.582Z" fill="#34B7FE"/>
<path d="M333.689 103.389C324.323 112.216 312.471 123.35 312.001 123.754C311.914 123.83 311.781 123.935 311.612 124.066C310.117 121.002 307.209 112.885 305.965 109.356C312.43 103.246 320.505 95.6259 327.367 89.1606C327.556 88.9817 327.745 88.8028 327.934 88.6265C327.893 89.181 327.96 89.7739 328.236 90.3361C328.928 91.762 332.14 99.5945 333.686 103.387L333.689 103.389Z" fill="#275EFB"/>
<path d="M344.808 92.8734C343.995 93.6631 340.737 96.7449 336.569 100.678C335.647 101.544 334.683 102.454 333.689 103.389C332.141 99.5968 328.931 91.7644 328.238 90.3384C327.962 89.7736 327.896 89.1808 327.937 88.6288C328.41 88.1816 328.877 87.7421 329.337 87.3102C334.604 82.3449 338.925 78.2869 340.855 76.498C343.305 81.4761 346.709 88.7847 346.709 88.7847C346.709 88.7847 347.494 90.2668 344.808 92.8734Z" fill="#34B8FE"/>
<path d="M327.37 89.1605C320.508 95.6233 312.433 103.246 305.968 109.356C299.196 115.753 294.19 120.483 294.19 120.483C292.626 122.251 292.107 121.763 292.107 121.763C292.107 121.763 289.574 120.71 287.888 120.117C286.201 119.524 286.832 119.049 286.832 119.049L322.052 85.6289L325.658 88.0259L327.367 89.1631L327.37 89.1605Z" fill="#47DDFC"/>
<path d="M340.855 76.4978C338.926 78.2866 334.605 82.3447 329.338 87.3099C328.878 87.7418 328.41 88.1813 327.937 88.6285C327.751 88.8049 327.559 88.9837 327.37 89.1626L325.66 88.0254L322.055 85.6284L337.344 71.1211C338.008 71.4431 338.491 72.0334 338.491 72.0334C338.711 72.2941 339.273 73.3418 340.012 74.8035C340.275 75.3223 340.556 75.8921 340.855 76.4978Z" fill="#A9E3FF"/>
<path d="M323.648 152.827C323.549 152.911 323.423 153.001 323.28 153.098C323.209 153.144 323.127 153.195 323.045 153.244C322.761 153.417 322.414 153.606 322.015 153.808C321.969 153.831 321.926 153.852 321.88 153.877C319.623 155.007 315.811 156.525 311.931 157.984C311.648 158.091 311.364 158.196 311.078 158.303C310.871 158.38 310.664 158.454 310.459 158.531C310.252 158.607 310.048 158.684 309.844 158.761C309.228 158.988 308.617 159.211 308.019 159.428C307.682 157.437 307.237 155.147 306.81 154.056C306.279 152.689 305.055 148.848 304.234 146.231L306.269 145.493L322.276 139.702C322.943 141.471 323.773 143.359 324.246 144.43C324.936 145.999 326.495 150.438 323.651 152.824L323.648 152.827Z" fill="#2EB7F1"/>
<path d="M304.092 146.285L232.127 172.328L207.046 181.405C206.821 180.965 206.619 180.62 206.432 180.408C205.535 179.386 204.82 177.61 204.822 176.115L243.118 162.142H243.121L301.467 140.855L302.162 140.599C302.42 141.067 302.689 141.626 302.952 142.293C303.113 142.702 303.274 143.149 303.425 143.638C303.465 143.763 303.504 143.896 303.545 144.026C303.741 144.703 303.925 145.452 304.089 146.285H304.092Z" fill="#48DDFE"/>
<path d="M304.234 146.234L304.091 146.285C303.928 145.454 303.744 144.703 303.547 144.026C303.685 144.473 303.933 145.27 304.234 146.231V146.234Z" fill="#47DDFE"/>
<path d="M322.276 139.705L306.268 145.496L304.234 146.234L304.091 146.285C303.927 145.455 303.743 144.704 303.547 144.026C303.506 143.893 303.47 143.763 303.426 143.638C303.276 143.15 303.115 142.703 302.954 142.296C302.69 141.627 302.42 141.067 302.164 140.599L313.927 136.309C316.025 135.675 317.318 134.717 318.092 133.896C318.263 133.971 318.44 134.047 318.619 134.124C318.619 134.124 318.639 134.134 318.675 134.152C318.685 134.16 318.7 134.167 318.718 134.175C318.787 134.213 318.89 134.272 319.012 134.354C319.045 134.374 319.081 134.4 319.12 134.423C319.15 134.441 319.178 134.461 319.209 134.484C319.362 134.589 319.533 134.714 319.715 134.862C319.753 134.893 319.794 134.929 319.835 134.962C319.871 134.993 319.909 135.026 319.947 135.059C319.986 135.092 320.024 135.128 320.062 135.164C320.075 135.177 320.088 135.187 320.101 135.2C320.167 135.261 320.231 135.325 320.295 135.394C320.326 135.425 320.354 135.453 320.382 135.486C320.402 135.509 320.425 135.535 320.448 135.558C320.489 135.601 320.528 135.647 320.568 135.696C320.599 135.734 320.635 135.772 320.666 135.813C320.681 135.834 320.699 135.854 320.717 135.877C320.727 135.892 320.74 135.908 320.75 135.923C320.768 135.946 320.783 135.969 320.801 135.992C320.829 136.028 320.855 136.064 320.883 136.102C320.896 136.12 320.906 136.138 320.921 136.156C320.952 136.204 320.988 136.258 321.018 136.311C321.051 136.365 321.085 136.421 321.118 136.478C321.151 136.536 321.182 136.595 321.212 136.654C321.243 136.715 321.271 136.771 321.299 136.835C321.327 136.894 321.353 136.955 321.376 137.019C321.427 137.147 321.471 137.277 321.509 137.41C321.698 138.09 321.971 138.882 322.283 139.702L322.276 139.705Z" fill="#ABE4FF"/>
<path d="M119.493 66.2123C118.292 66.1765 116.283 66.1152 114.436 65.9568C114.436 65.9568 114.436 65.9568 114.433 65.9568C114.433 65.9568 114.433 65.9568 114.43 65.9568C113.531 65.8827 112.782 65.7932 112.205 65.691C111.995 65.6527 111.778 65.6271 111.561 65.6118C111.448 65.6041 111.346 65.599 111.246 65.5964C111.157 65.5964 111.067 65.5964 110.978 65.5964C110.96 65.5964 110.935 65.5964 110.917 65.5964C110.835 65.599 110.751 65.6041 110.666 65.6092C110.546 65.6169 110.441 65.6271 110.342 65.6373C110.278 65.645 110.209 65.6527 110.142 65.6603C110.114 65.6629 110.086 65.668 110.055 65.6731H110.04C110.022 65.6782 110.004 65.6808 109.986 65.6833C109.917 65.6961 109.854 65.7063 109.787 65.7191L109.746 65.7268C109.718 65.7319 109.695 65.737 109.672 65.7396H109.664C109.616 65.7498 109.567 65.76 109.521 65.7728H109.526C109.457 65.7856 109.388 65.8034 109.322 65.8213L109.302 65.8264C109.233 65.8443 109.148 65.8648 109.051 65.8954C109.005 65.9082 108.959 65.9235 108.913 65.9363C108.862 65.9517 108.811 65.9695 108.762 65.9849C108.64 66.0232 108.517 66.0667 108.397 66.1152C108.387 66.1178 108.377 66.1229 108.366 66.128C108.351 66.1331 108.336 66.1382 108.323 66.1459L108.29 66.1587C108.236 66.1791 108.182 66.2021 108.131 66.2251L108.098 66.2404C108.049 66.2609 108.001 66.2813 107.955 66.3043C107.896 66.3299 107.837 66.358 107.781 66.3835C107.533 66.4985 107.288 66.6288 107.048 66.7668L107.037 66.772C106.989 66.8001 106.943 66.8282 106.897 66.8563L106.889 66.8614C106.848 66.8844 106.81 66.91 106.772 66.933C106.639 67.0147 106.511 67.0991 106.381 67.1911C106.373 67.1962 106.365 67.2013 106.358 67.2064C106.332 67.2243 106.307 67.2422 106.281 67.2626L106.222 67.3086C106.184 67.3393 106.146 67.3699 106.11 67.4006C106.036 67.467 105.959 67.5309 105.888 67.5948C105.819 67.6536 105.75 67.7149 105.683 67.7737C101.543 71.3769 99.3813 73.0839 98.2774 73.8378C98.078 73.1606 97.8429 72.21 97.572 70.9936C97.5388 70.8454 97.5082 70.7099 97.4826 70.5873C97.4213 70.3062 97.3804 70.1349 97.3421 69.9944C97.1453 69.2686 91.7277 52.3132 88.1731 41.2378L87.7565 39.9397C87.4805 39.0836 87.2122 38.2479 86.9541 37.4353C85.5716 33.137 83.8365 27.7501 83.4072 26.4826C81.8432 21.8496 79.1958 21.479 78.4393 21.4714C78.3576 21.4714 70.2005 21.3973 64.6296 21.4637C63.8426 21.4739 63.2293 21.4841 62.6926 21.4969C59.9481 21.5608 59.3756 21.6503 59.0051 21.7448C58.7828 21.801 57.7785 22.0847 56.8917 22.7721C56.8917 22.7721 56.8866 22.7747 56.8841 22.7772C56.8764 22.7823 56.8687 22.7874 56.8636 22.7951C56.8585 22.7977 56.8534 22.8028 56.8483 22.8053C56.8483 22.8053 56.8432 22.8079 56.8432 22.8104C56.8125 22.8334 56.7818 22.859 56.7537 22.882L56.0459 23.3343C55.5476 23.4288 55.0748 23.6614 54.6915 24.0217L4.08831 71.612C2.05417 73.5235 0.715111 75.9869 0.214241 78.7315C-0.286628 81.4786 0.0941347 84.2538 1.32075 86.7633L40.2301 166.414C41.2344 168.471 43.3325 169.744 45.6145 169.698C45.7065 169.706 45.8598 169.716 46.0668 169.729C46.0975 169.729 46.1307 169.734 46.1614 169.734C46.1844 169.734 46.2048 169.736 46.2278 169.739C46.2304 169.739 46.2355 169.739 46.238 169.739C46.3888 169.749 46.56 169.759 46.7466 169.77C46.8079 169.772 46.8718 169.777 46.9382 169.78C46.9817 169.78 47.0251 169.785 47.0685 169.788C47.181 169.793 47.2985 169.8 47.4186 169.805C47.4442 169.805 47.4698 169.805 47.4953 169.808C47.6614 169.816 47.8377 169.823 48.0192 169.831C50.0457 169.913 51.7323 169.9 53.0355 169.795C53.6846 169.744 54.5688 169.683 55.5067 169.619C61.2232 169.23 63.4311 169.016 64.4227 168.576C65.0104 168.318 65.8997 167.672 68.2891 165.888L68.3913 165.811L68.5139 165.719C68.6954 165.584 68.8845 165.443 69.0736 165.303C69.3112 165.124 69.5566 164.942 69.7993 164.761C69.9987 164.613 70.198 164.465 70.3973 164.316C71.2355 163.698 72.0635 163.097 72.7637 162.62L93.1128 191.575C93.3862 191.971 93.7593 192.265 94.1758 192.442C94.5259 192.725 94.9271 192.976 95.3718 193.185C95.3744 193.185 95.3769 193.188 95.3795 193.19C95.3795 193.19 95.382 193.19 95.3846 193.19C95.3871 193.19 95.3897 193.193 95.3948 193.196C95.3974 193.196 95.4025 193.196 95.405 193.201C97.1836 194.044 99.6394 194.256 101.533 193.727C101.566 193.719 101.73 193.691 102.19 193.679C102.571 193.668 103.031 193.668 103.559 193.671C106.802 193.679 111.704 193.691 115.496 191.092C115.828 190.865 116.148 190.607 116.444 190.326C118.389 188.496 119.6 185.596 120.042 181.709C120.3 179.434 120.211 177.49 120.17 176.864L121.179 165.729L127.174 99.7987C127.22 99.4077 127.701 95.3139 128.179 90.4534C128.194 90.2924 128.209 90.1288 128.227 89.9678L128.253 89.6944C128.307 89.1424 128.36 88.5777 128.411 88.0129C128.411 88.0104 128.411 88.0078 128.411 88.0027C128.419 87.9184 128.427 87.834 128.434 87.7497L128.457 87.5172C128.457 87.5172 128.457 87.5044 128.457 87.4967C128.47 87.3587 128.48 87.2233 128.493 87.0853L128.529 86.6892C128.529 86.6892 128.529 86.6841 128.529 86.6815C128.529 86.6764 128.529 86.6713 128.529 86.6662L128.608 85.7488C129.042 80.6736 129.242 76.9376 129.201 74.6479C129.201 74.6402 129.201 74.6351 129.201 74.6274V74.6095C129.201 74.584 129.201 74.561 129.201 74.5354C129.201 74.5176 129.201 74.4971 129.201 74.4792C129.188 73.9528 129.163 73.5081 129.122 73.1197C129.111 73.0073 129.096 72.8872 129.083 72.7798C129.083 72.7747 129.083 72.7696 129.083 72.7645C129.048 72.4987 129.002 72.2687 128.948 72.0618C128.043 68.5608 124.507 66.3759 119.485 66.2174L119.493 66.2123Z" fill="black"/>
<path d="M126.042 89.7536C125.523 95.0919 124.991 99.5717 124.991 99.5717L118.994 165.531L117.966 176.844C117.966 176.844 118.776 186.176 114.253 189.278C110.438 191.893 104.834 191.402 102.125 191.481L104.762 164.636L112.331 87.6121C111.504 87.3975 110.737 87.239 110.034 87.124C110.504 87.193 111.337 87.3131 112.347 87.4588C115.094 87.8498 119.132 88.4069 120.611 88.5142C121.792 88.6011 124.076 89.1888 126.039 89.7485L126.042 89.7536Z" fill="#0042C6"/>
<path d="M126.041 89.754C125.522 95.0923 124.991 99.572 124.991 99.572L118.993 165.531L104.762 164.639L112.331 87.615C111.503 87.4004 110.736 87.2419 110.034 87.127C110.504 87.196 111.337 87.3161 112.346 87.4617C115.093 87.8527 119.131 88.4098 120.611 88.5171C121.791 88.604 124.076 89.1918 126.038 89.7514L126.041 89.754Z" fill="#265DFA"/>
<path d="M126.349 86.4702C126.326 86.7462 126.3 87.0247 126.275 87.3007C126.259 87.4668 126.244 87.6304 126.229 87.7965C126.249 87.5767 126.267 87.357 126.287 87.1346C126.308 86.9149 126.328 86.6925 126.349 86.4702Z" fill="#265DFA"/>
<path d="M66.1714 149.419L69.6264 154.335C69.859 154.65 70.0941 154.984 70.3266 155.334L73.3881 159.686C73.2041 159.758 72.9562 159.888 72.6597 160.065C71.3386 160.854 69.0438 162.574 67.071 164.051C65.3946 165.303 63.9508 166.382 63.5291 166.568C62.4686 167.036 55.7273 167.376 52.855 167.606C51.3907 167.723 49.5533 167.695 48.1069 167.636C46.7602 167.58 45.7508 167.506 45.6895 167.501C46.5123 167.458 47.3301 167.138 47.997 166.509L66.1714 149.416V149.419Z" fill="#215DFA"/>
<path d="M66.1729 149.418L69.6279 154.335C69.8604 154.649 70.0955 154.984 70.3281 155.334L73.3895 159.686C73.2055 159.758 72.9577 159.888 72.6612 160.065C71.3401 160.854 69.0453 162.574 67.0724 164.051C64.4275 162.382 60.9905 160.397 58.5244 158.999C57.9316 158.662 57.3949 158.36 56.9375 158.102L66.1704 149.418H66.1729Z" fill="#0357E4"/>
<path d="M79.4448 69.8187C76.6849 61.2579 73.2452 50.5684 70.332 41.4914C70.2502 41.241 70.171 40.9906 70.0918 40.7427C70.5799 41.0212 71.1498 41.218 71.7835 41.2129C73.3883 41.2027 81.9338 41.6805 86.0685 41.9207C90.0474 54.3122 95.0458 69.9797 95.2094 70.5827C95.24 70.6952 95.2784 70.8613 95.3244 71.0708C91.8771 71.1015 83.2038 70.2224 79.4397 69.8187H79.4448Z" fill="#0042C6"/>
<path d="M107.121 69.4403C107.533 70.5059 107.844 72.1005 107.51 74.2931L106.303 86.8966L106.232 87.6428L100.252 150.165L96.3294 191.205C95.8899 190.998 95.5117 190.735 95.2306 190.418C95.3174 190.388 95.389 190.308 95.3992 190.196L99.5263 144.402L104.586 88.2561L106.099 71.4795C106.117 71.2648 105.866 71.1371 105.703 71.2802L80.1227 93.8193C79.8927 94.0212 79.5349 93.9215 79.4378 93.6353L57.0239 25.8467C56.9702 25.6857 56.8476 25.5733 56.707 25.5222L58.0614 24.6559C58.1074 24.6124 58.1585 24.5715 58.2071 24.5332L64.7899 44.8056L79.9566 91.5041C79.9566 91.5041 80.115 92.2886 81.3902 91.0058C82.6654 89.7229 84.7302 87.8728 84.7302 87.8728C84.7302 87.8728 85.3997 87.6121 84.4695 85.4144C84.4695 85.4144 82.3306 78.783 79.4429 69.8185C83.2046 70.2197 91.8803 71.0988 95.3277 71.0706C95.6803 72.632 96.4623 76.4831 97.3005 76.547C98.2307 76.6134 99.2094 76.3272 107.121 69.4428V69.4403Z" fill="#0042C6"/>
<path d="M126.229 87.7961C126.249 87.5764 126.267 87.3566 126.287 87.1343C126.282 87.1905 126.28 87.2442 126.275 87.3004C126.259 87.4665 126.244 87.63 126.229 87.7961Z" fill="#0042C6"/>
<path d="M70.332 155.335L73.3935 159.687C73.2095 159.758 72.9616 159.888 72.6652 160.065C72.195 158.427 71.2852 156.761 70.332 155.332V155.335Z" fill="#0649D1"/>
<path d="M69.629 154.335C68.4024 152.667 67.2601 151.509 67.0429 151.44C66.5471 151.287 59.7981 157.811 58.7657 158.779C58.7121 158.828 58.6303 158.902 58.523 158.997C57.1047 160.233 51.2603 165.045 48.1069 167.634C46.7602 167.578 45.7508 167.504 45.6895 167.499C46.5123 167.455 47.3301 167.136 47.997 166.507L66.1714 149.414L69.6264 154.33L69.629 154.335Z" fill="#0649D1"/>
<path d="M106.101 71.4845L104.588 88.2611L99.5283 144.407L95.4012 190.201C95.391 190.313 95.322 190.393 95.2326 190.423C95.1252 190.464 94.9949 190.433 94.9208 190.321L73.3936 159.686L70.3322 155.334C70.0996 154.984 69.8645 154.652 69.632 154.335L66.177 149.418L48.0026 166.512C47.3356 167.138 46.5179 167.46 45.695 167.503H45.6925C44.2972 167.575 42.8891 166.847 42.2094 165.454L3.29231 85.8002C1.21727 81.5556 2.15002 76.4549 5.59222 73.2171L56.1877 25.6319C56.3359 25.4914 56.5378 25.4633 56.709 25.5221C56.8496 25.5732 56.9722 25.6831 57.0259 25.8466L79.4373 93.6403C79.5318 93.9291 79.8921 94.0288 80.1221 93.8243L105.702 71.2852C105.866 71.1446 106.119 71.2724 106.098 71.4845H106.101Z" fill="#34B8FE"/>
<path d="M69.6289 154.335C69.8615 154.649 70.0966 154.984 70.3291 155.334L69.6289 154.335Z" fill="#34B7FE"/>
<path d="M86.0717 41.9178C90.0505 54.3092 95.049 69.9767 95.2125 70.5798C95.2432 70.6923 95.2815 70.8584 95.3275 71.0679C91.8802 71.0986 83.207 70.2195 79.4428 69.8157C76.6829 61.255 73.2433 50.5655 70.3301 41.4885C70.2483 41.2381 70.1691 40.9876 70.0898 40.7397C70.5779 41.0183 71.1478 41.2151 71.7816 41.2099C73.3864 41.1997 81.9318 41.6776 86.0666 41.9178H86.0717Z" fill="#275EFB"/>
<path d="M81.3151 27.1908C81.6806 28.2769 83.0758 32.5905 84.8493 38.1078C85.2378 39.3267 85.6492 40.6019 86.0708 41.9179C81.9361 41.6803 73.3907 41.1999 71.7858 41.2101C71.1495 41.2152 70.5822 41.0184 70.0941 40.7399C69.8922 40.1138 69.6955 39.4979 69.5013 38.8897C67.2652 31.921 65.4406 26.2095 64.6484 23.6694C70.2602 23.6004 78.4121 23.6771 78.4121 23.6771C78.4121 23.6771 80.1064 23.6055 81.3177 27.1934L81.3151 27.1908Z" fill="#34B8FE"/>
<path d="M70.3371 41.4912C73.2478 50.5682 76.6874 61.2602 79.4499 69.8185C82.3375 78.783 84.4765 85.4144 84.4765 85.4144C85.4092 87.6121 84.7371 87.8728 84.7371 87.8728C84.7371 87.8728 82.6749 89.7255 81.3971 91.0058C80.1219 92.2886 79.9635 91.5041 79.9635 91.5041L64.7969 44.8056L68.556 42.5568L70.3371 41.4912Z" fill="#47DDFC"/>
<path d="M64.6481 23.6695C65.4403 26.2097 67.2624 31.9211 69.501 38.8899C69.6952 39.4981 69.8919 40.1165 70.0938 40.74C70.173 40.9879 70.2522 41.2409 70.334 41.4888L68.5529 42.5544L64.7938 44.8032L58.2109 24.5307C58.7936 24.0656 59.5423 23.8791 59.5423 23.8791C59.8745 23.7922 61.0782 23.736 62.7341 23.6977C63.3219 23.6849 63.9658 23.6747 64.6481 23.667V23.6695Z" fill="#A9E3FF"/>
<path d="M126.824 72.6115C126.858 72.7393 126.886 72.8926 126.911 73.0664C126.922 73.1533 126.934 73.2478 126.945 73.3449C126.98 73.6797 127.001 74.0783 127.014 74.5306C127.014 74.5818 127.014 74.6329 127.016 74.684C127.065 77.2369 126.791 81.3767 126.433 85.5523C126.408 85.859 126.38 86.1631 126.354 86.4697C126.334 86.6921 126.313 86.9144 126.293 87.1342C126.272 87.3565 126.252 87.5763 126.234 87.796C126.173 88.4579 126.109 89.1121 126.048 89.7535C124.085 89.1939 121.8 88.6036 120.62 88.5192C119.14 88.4093 115.103 87.8548 112.355 87.4638L112.568 85.2866L114.252 68.1548C116.158 68.3158 118.241 68.3797 119.424 68.4154C121.156 68.4691 125.887 68.9802 126.827 72.6141L126.824 72.6115Z" fill="#2EB7F1"/>
<path d="M112.334 87.6143L104.765 164.638L102.128 191.483C101.627 191.499 101.226 191.532 100.95 191.609C99.626 191.982 97.6941 191.862 96.332 191.207L100.255 150.169L106.234 87.6424L106.306 86.8963C106.843 86.8656 107.471 86.863 108.197 86.9116H108.2C108.642 86.9397 109.12 86.9908 109.631 87.0649C109.764 87.0803 109.899 87.1032 110.037 87.1262C110.74 87.2412 111.506 87.3997 112.334 87.6143Z" fill="#48DDFE"/>
<path d="M112.348 87.4617L112.333 87.615C111.505 87.4004 110.738 87.2419 110.035 87.127C110.505 87.196 111.338 87.3161 112.348 87.4617Z" fill="#47DDFE"/>
<path d="M114.246 68.1523L112.562 85.2841L112.35 87.4614L112.335 87.6147C111.507 87.4 110.74 87.2416 110.038 87.1266C109.9 87.1062 109.764 87.0832 109.631 87.0653C109.12 86.9912 108.642 86.9426 108.2 86.912H108.198C107.474 86.8608 106.846 86.8634 106.307 86.8966L107.513 74.2931C107.85 72.1005 107.538 70.5059 107.124 69.4403C107.267 69.3151 107.413 69.1899 107.561 69.0595C107.561 69.0595 107.579 69.0468 107.612 69.0212C107.623 69.0135 107.638 69.0033 107.653 68.9931C107.72 68.9471 107.814 68.8806 107.945 68.8014C107.978 68.7784 108.016 68.758 108.055 68.735C108.085 68.7145 108.116 68.6992 108.149 68.6788C108.31 68.5842 108.499 68.482 108.716 68.3823C108.762 68.3593 108.811 68.3389 108.86 68.3159C108.903 68.2954 108.949 68.2776 108.998 68.2571C109.044 68.2367 109.095 68.2188 109.143 68.1983C109.159 68.1932 109.176 68.1856 109.192 68.1804C109.276 68.1472 109.363 68.1166 109.455 68.0885C109.496 68.0731 109.534 68.0603 109.578 68.0476C109.608 68.0373 109.642 68.0271 109.672 68.0195C109.731 68.0016 109.787 67.9862 109.849 67.9709C109.897 67.9581 109.948 67.9453 109.997 67.9326C110.022 67.9275 110.048 67.9198 110.076 67.9147C110.094 67.9147 110.114 67.907 110.132 67.9045C110.16 67.8994 110.188 67.8942 110.216 67.8891C110.262 67.8789 110.306 67.8712 110.352 67.8636C110.375 67.8636 110.395 67.8559 110.418 67.8534C110.477 67.8457 110.541 67.838 110.602 67.8304C110.664 67.8227 110.733 67.8176 110.797 67.8125C110.866 67.8074 110.932 67.8048 110.998 67.8022C111.067 67.8022 111.131 67.8022 111.2 67.8022C111.267 67.8022 111.333 67.8074 111.402 67.8125C111.54 67.8201 111.681 67.838 111.819 67.8636C112.522 67.9888 113.365 68.0833 114.249 68.1549L114.246 68.1523Z" fill="#ABE4FF"/>
<path d="M246.373 87.2816C245.386 86.2952 243.735 84.6444 242.294 83.0396C242.294 83.0396 242.294 83.0396 242.291 83.037C242.291 83.037 242.291 83.037 242.291 83.0345C241.589 82.2551 241.024 81.583 240.618 81.0387C240.469 80.8393 240.306 80.6451 240.135 80.4611C240.045 80.364 239.963 80.2797 239.879 80.1979C239.805 80.1238 239.731 80.0548 239.652 79.9833C239.636 79.9679 239.613 79.95 239.598 79.9347C239.526 79.8708 239.452 79.8095 239.378 79.7456C239.271 79.6562 239.174 79.5795 239.082 79.5131C239.023 79.4696 238.957 79.4211 238.895 79.3751C238.867 79.3546 238.842 79.3367 238.813 79.3163L238.798 79.3061C238.78 79.2933 238.762 79.2805 238.745 79.2703C238.678 79.2243 238.614 79.1834 238.548 79.1425L238.507 79.117C238.479 79.0991 238.456 79.0837 238.433 79.071L238.425 79.0658C238.377 79.0352 238.328 79.0045 238.279 78.979H238.285C238.213 78.9406 238.144 78.8997 238.072 78.8614L238.049 78.8486C237.978 78.8077 237.886 78.7592 237.784 78.7081C237.735 78.6825 237.684 78.657 237.633 78.634C237.577 78.6059 237.52 78.5803 237.464 78.5548C237.329 78.4909 237.191 78.4295 237.05 78.3733C237.04 78.3682 237.027 78.3631 237.014 78.358C236.997 78.3503 236.981 78.3452 236.963 78.3375L236.922 78.3222C236.859 78.2967 236.797 78.2737 236.736 78.2507L236.695 78.2353C236.636 78.2149 236.58 78.1944 236.524 78.174C236.452 78.1484 236.381 78.1254 236.314 78.1024C236.013 78.0028 235.701 77.9159 235.389 77.8443H235.376C235.313 77.8265 235.251 77.8137 235.192 77.8009H235.182C235.129 77.7881 235.077 77.7753 235.026 77.7651C234.85 77.7293 234.674 77.6987 234.49 77.6731C234.479 77.6731 234.469 77.6706 234.456 77.668C234.421 77.6629 234.385 77.6578 234.349 77.6552L234.265 77.6476C234.209 77.6425 234.152 77.6373 234.096 77.6373C233.981 77.6322 233.866 77.6297 233.751 77.6246C233.646 77.6195 233.539 77.6169 233.437 77.6118C227.064 77.3665 223.877 77.0905 222.341 76.8503C222.712 76.1169 223.269 75.1253 224.01 73.8808C224.099 73.7301 224.184 73.5895 224.258 73.4643C224.429 73.1781 224.531 72.9992 224.61 72.851C225.022 72.0818 233.933 53.4193 239.739 41.2144L240.421 39.7834C240.871 38.8404 241.308 37.9179 241.734 37.026C243.986 32.2856 246.804 26.3468 247.451 24.9336C249.815 19.769 247.87 17.3464 247.236 16.7382C247.167 16.6718 240.324 10.1171 235.553 5.73956C234.881 5.12114 234.352 4.64071 233.889 4.22673C231.515 2.09547 230.961 1.71727 230.57 1.50261C230.335 1.37228 229.259 0.812635 227.963 0.689973C227.96 0.689973 227.955 0.689973 227.953 0.689973C227.943 0.689973 227.932 0.689974 227.922 0.687418C227.914 0.687418 227.907 0.687418 227.902 0.687418C227.899 0.687418 227.897 0.687418 227.891 0.687418C227.845 0.682307 227.802 0.679752 227.759 0.677196L226.798 0.495759C226.299 0.178882 225.717 0 225.103 0H144.407C141.164 0 138.07 1.01707 135.461 2.94133C132.849 4.86559 130.963 7.52071 130.005 10.6179L99.536 109C98.7489 111.541 99.513 114.288 101.478 116.066C101.55 116.146 101.672 116.276 101.838 116.452C101.861 116.478 101.89 116.506 101.915 116.534C101.933 116.552 101.948 116.57 101.966 116.59C101.969 116.593 101.971 116.595 101.974 116.598C102.094 116.726 102.229 116.869 102.38 117.027C102.431 117.081 102.482 117.134 102.534 117.188C102.569 117.224 102.603 117.262 102.638 117.298C102.728 117.393 102.825 117.49 102.922 117.592C102.942 117.612 102.963 117.633 102.983 117.656C103.119 117.796 103.259 117.942 103.408 118.093C105.058 119.774 106.494 121.108 107.68 122.056C108.273 122.529 109.068 123.183 109.911 123.873C115.058 128.095 117.097 129.669 118.285 130.088C118.988 130.336 120.256 130.497 123.698 130.891L123.846 130.908L124.025 130.929C124.288 130.96 124.556 130.99 124.83 131.021C125.175 131.059 125.525 131.1 125.878 131.141C126.164 131.174 126.45 131.207 126.739 131.243C127.942 131.386 129.121 131.54 130.092 131.69L124.265 172.394C124.183 172.946 124.265 173.49 124.475 173.973C124.546 174.494 124.687 175.023 124.894 175.555C124.894 175.557 124.894 175.562 124.896 175.565V175.57C124.896 175.573 124.899 175.578 124.901 175.58C124.901 175.583 124.904 175.588 124.907 175.591C125.74 177.719 127.651 179.856 129.672 180.914C129.706 180.934 129.867 181.041 130.268 181.397C130.6 181.69 130.986 182.056 131.436 182.48C134.175 185.069 138.312 188.981 143.589 189.799C144.052 189.87 144.525 189.906 145.003 189.906C148.105 189.906 151.437 188.416 154.908 185.478C156.937 183.758 158.409 182.043 158.874 181.478L168.592 172.859L226.144 121.831C226.494 121.538 230.158 118.453 234.433 114.722C234.577 114.599 234.717 114.474 234.86 114.349L235.1 114.14C235.586 113.713 236.079 113.281 236.575 112.841C236.577 112.841 236.58 112.836 236.583 112.834C236.657 112.767 236.731 112.703 236.805 112.637L237.009 112.458C237.009 112.458 237.02 112.448 237.027 112.443C237.147 112.335 237.267 112.231 237.385 112.123L237.73 111.817C237.73 111.817 237.735 111.814 237.735 111.811C237.74 111.806 237.745 111.804 237.748 111.799L238.545 111.086C242.953 107.138 246.094 104.135 247.88 102.162C247.885 102.157 247.89 102.152 247.896 102.144L247.908 102.129C247.929 102.108 247.947 102.085 247.965 102.065C247.98 102.05 247.995 102.034 248.008 102.016C248.417 101.562 248.749 101.163 249.023 100.803C249.102 100.7 249.186 100.588 249.26 100.483C249.263 100.478 249.268 100.473 249.27 100.468C249.449 100.215 249.595 99.9848 249.715 99.7651C251.736 96.0826 250.482 91.4189 246.36 87.2868L246.373 87.2816Z" fill="black"/>
<path d="M233.183 112.417C228.493 116.521 224.479 119.889 224.479 119.889L166.902 170.94L157.028 179.697C157.028 179.697 150.284 188.24 143.987 187.267C138.677 186.444 134.325 181.565 131.969 179.478L155.568 158.858L223.283 99.6962C222.751 98.8555 222.23 98.1118 221.727 97.4551C222.069 97.887 222.68 98.6536 223.418 99.5787C225.432 102.096 228.407 105.781 229.572 107.051C230.502 108.063 231.966 110.381 233.183 112.417Z" fill="#0042C6"/>
<path d="M233.181 112.417C228.491 116.521 224.477 119.889 224.477 119.889L166.9 170.94L155.566 158.858L223.281 99.6962C222.749 98.8555 222.228 98.1118 221.725 97.4551C222.067 97.887 222.678 98.6536 223.416 99.5787C225.43 102.096 228.405 105.781 229.57 107.051C230.5 108.063 231.964 110.381 233.181 112.417Z" fill="#265DFA"/>
<path d="M236.052 109.882C235.812 110.097 235.569 110.312 235.329 110.526C235.183 110.654 235.04 110.782 234.895 110.91C235.086 110.738 235.278 110.567 235.472 110.396C235.664 110.225 235.858 110.054 236.052 109.882Z" fill="#265DFA"/>
<path d="M135.022 115.259L134.033 122.171C133.979 122.624 133.912 123.094 133.831 123.574L132.957 129.695C132.745 129.608 132.43 129.521 132.039 129.437C130.294 129.053 126.982 128.683 124.135 128.361C121.72 128.085 119.64 127.85 119.134 127.671C117.864 127.224 111.89 122.143 109.275 120.053C107.941 118.987 106.411 117.5 105.233 116.299C104.136 115.18 103.342 114.313 103.293 114.26C104.024 114.878 104.972 115.259 106.035 115.259H135.022Z" fill="#215DFA"/>
<path d="M135.022 115.258L134.033 122.171C133.979 122.623 133.913 123.093 133.831 123.574L132.957 129.694C132.745 129.607 132.431 129.52 132.04 129.436C130.294 129.053 126.983 128.682 124.136 128.36C123.226 124.844 121.897 120.428 120.924 117.28C120.691 116.523 120.476 115.838 120.295 115.258H135.022Z" fill="#0357E4"/>
<path d="M209.611 58.4564C214.088 49.014 219.687 37.2282 224.448 27.2287C224.579 26.9527 224.712 26.6768 224.842 26.4033C225.034 27.0269 225.358 27.6478 225.9 28.1487C227.267 29.4162 234.118 36.6252 237.427 40.1185C230.932 53.7723 222.693 71.0114 222.35 71.6528C222.286 71.7729 222.187 71.9441 222.059 72.1588C219.118 69.4398 212.476 61.7913 209.611 58.4564Z" fill="#0042C6"/>
<path d="M233.334 80.1676C232.836 81.3968 231.829 82.9965 229.8 84.5834L218.748 94.2916L218.094 94.8666L163.266 143.022H163.264L127.278 174.633C127.071 174.109 126.961 173.585 126.974 173.092C127.073 173.135 127.196 173.125 127.293 173.038L167.237 137.566L216.21 94.0769L230.843 81.0824C231.029 80.9163 230.917 80.6071 230.666 80.5969L191.075 79.3115C190.72 79.3013 190.495 78.9307 190.643 78.6113L225.64 3.39654C225.724 3.21766 225.709 3.026 225.63 2.87012L227.464 3.2151C227.539 3.2151 227.613 3.22021 227.687 3.22788L217.123 25.6239L192.787 77.2186C192.787 77.2186 192.296 78.0082 194.397 77.9392C196.497 77.8702 199.717 77.9443 199.717 77.9443C199.717 77.9443 200.492 78.2587 201.452 75.6572C201.452 75.6572 204.92 68.3435 209.612 58.4564C212.477 61.7913 219.118 69.4398 222.06 72.1588C221.114 73.7611 218.712 77.6428 219.369 78.3634C220.102 79.1607 221.16 79.6974 233.337 80.1676H233.334Z" fill="#0042C6"/>
<path d="M234.893 110.91C235.084 110.738 235.276 110.567 235.47 110.396C235.422 110.439 235.376 110.483 235.327 110.526C235.181 110.654 235.038 110.782 234.893 110.91Z" fill="#0042C6"/>
<path d="M133.828 123.575L132.955 129.695C132.742 129.608 132.428 129.521 132.037 129.437C132.942 127.676 133.499 125.542 133.828 123.575Z" fill="#0649D1"/>
<path d="M134.033 122.171C134.324 119.782 134.278 117.894 134.148 117.664C133.849 117.14 122.944 117.288 121.301 117.288C121.217 117.288 121.089 117.285 120.923 117.28C118.738 117.199 109.96 116.618 105.233 116.299C104.136 115.18 103.342 114.313 103.293 114.26C104.024 114.878 104.972 115.259 106.035 115.259H135.022L134.033 122.171Z" fill="#0649D1"/>
<path d="M230.843 81.0822L216.211 94.0767L167.238 137.565L127.293 173.038C127.196 173.125 127.074 173.135 126.974 173.091C126.851 173.04 126.764 172.913 126.79 172.757L132.954 129.695L133.828 123.574C133.909 123.094 133.976 122.624 134.03 122.171L135.019 115.259H106.032C104.969 115.259 104.021 114.878 103.29 114.26H103.287C102.048 113.207 101.437 111.472 101.971 109.749L132.44 11.3667C134.063 6.12294 138.913 2.54785 144.402 2.54785H225.098C225.336 2.54785 225.528 2.68329 225.627 2.86984C225.707 3.02572 225.722 3.21738 225.638 3.39626L190.643 78.611C190.495 78.9305 190.72 79.301 191.075 79.3112L230.667 80.5966C230.917 80.6069 231.03 80.9161 230.843 81.0822Z" fill="#34B8FE"/>
<path d="M134.032 122.171C133.978 122.623 133.912 123.093 133.83 123.574L134.032 122.171Z" fill="#34B7FE"/>
<path d="M237.427 40.1185C230.932 53.7723 222.693 71.0114 222.35 71.6528C222.286 71.7729 222.187 71.9441 222.059 72.1588C219.118 69.4398 212.476 61.7913 209.611 58.4564C214.088 49.014 219.687 37.2282 224.448 27.2287C224.579 26.9527 224.712 26.6768 224.842 26.4033C225.034 27.0269 225.358 27.6478 225.9 28.1487C227.267 29.4162 234.118 36.6252 237.427 40.1185Z" fill="#275EFB"/>
<path d="M245.126 23.8677C244.572 25.079 242.318 29.8398 239.428 35.9218C238.786 37.2634 238.119 38.6689 237.429 40.1179C234.12 36.6246 227.269 29.4156 225.902 28.1481C225.36 27.6472 225.035 27.0263 224.844 26.4027C225.171 25.7128 225.495 25.033 225.815 24.3635C229.469 16.6843 232.472 10.4005 233.824 7.62012C238.628 12.0283 245.466 18.5805 245.466 18.5805C245.466 18.5805 246.956 19.8684 245.126 23.8677Z" fill="#34B8FE"/>
<path d="M224.448 27.2284C219.687 37.2279 214.088 49.0136 209.611 58.456C204.919 68.3431 201.452 75.6568 201.452 75.6568C200.491 78.2583 199.716 77.944 199.716 77.944C199.716 77.944 196.497 77.8699 194.396 77.9388C192.295 78.0078 192.786 77.2182 192.786 77.2182L217.122 25.6235L222.092 26.7122L224.448 27.2284Z" fill="#47DDFC"/>
<path d="M233.821 7.62037C232.469 10.4007 229.467 16.6846 225.812 24.3637C225.493 25.0333 225.168 25.713 224.841 26.403C224.711 26.6764 224.578 26.9524 224.448 27.2284L222.091 26.7122L217.121 25.6236L227.685 3.22754C228.549 3.29909 229.331 3.73608 229.331 3.73608C229.681 3.92773 230.744 4.83748 232.175 6.12287C232.684 6.5803 233.236 7.08372 233.821 7.62037Z" fill="#A9E3FF"/>
<path d="M247.482 98.5307C247.408 98.6662 247.311 98.8169 247.193 98.983C247.134 99.0648 247.068 99.1543 246.999 99.2437C246.761 99.5555 246.462 99.9107 246.112 100.302C246.071 100.345 246.033 100.389 245.992 100.435C244.001 102.632 240.475 105.919 236.846 109.169C236.58 109.407 236.315 109.644 236.049 109.882C235.855 110.053 235.66 110.224 235.469 110.396C235.275 110.567 235.083 110.738 234.891 110.909C234.314 111.42 233.739 111.924 233.177 112.417C231.96 110.38 230.496 108.063 229.566 107.051C228.4 105.781 225.426 102.096 223.412 99.5785L225.326 97.9046L240.388 84.7466C241.873 86.4 243.585 88.1121 244.559 89.0858C245.982 90.5117 249.58 94.7078 247.482 98.5307Z" fill="#2EB7F1"/>
<path d="M223.28 99.6958L155.566 158.857L131.966 179.477C131.532 179.091 131.164 178.8 130.87 178.647C129.451 177.908 127.913 176.27 127.279 174.632L163.265 143.024H163.268L218.095 94.866L218.749 94.291C219.23 94.6922 219.764 95.1905 220.336 95.809C220.686 96.1872 221.052 96.6088 221.425 97.079C221.525 97.1991 221.622 97.3269 221.721 97.4547C222.225 98.1114 222.746 98.8551 223.278 99.6958H223.28Z" fill="#48DDFE"/>
<path d="M223.416 99.5787L223.281 99.6962C222.749 98.8555 222.228 98.1118 221.725 97.4551C222.067 97.887 222.678 98.6536 223.416 99.5787Z" fill="#47DDFE"/>
<path d="M240.392 84.7459L225.33 97.9039L223.416 99.5778L223.28 99.6953C222.749 98.8546 222.227 98.1109 221.724 97.4542C221.624 97.3264 221.527 97.1986 221.428 97.0785C221.054 96.6083 220.689 96.1867 220.339 95.811C219.766 95.19 219.232 94.6917 218.752 94.2905L229.804 84.5823C231.833 82.9954 232.84 81.3957 233.339 80.1665C233.558 80.1742 233.783 80.1844 234.011 80.1921C234.011 80.1921 234.036 80.1946 234.085 80.1997C234.1 80.2023 234.12 80.2048 234.141 80.2074C234.233 80.2202 234.368 80.2406 234.54 80.2764C234.586 80.2841 234.634 80.2968 234.685 80.3071C234.726 80.3147 234.767 80.3249 234.81 80.3352C235.023 80.3837 235.263 80.4476 235.526 80.5345C235.582 80.5524 235.641 80.5728 235.7 80.5933C235.753 80.6112 235.807 80.6316 235.863 80.652C235.92 80.6725 235.976 80.6955 236.035 80.7185C236.052 80.7262 236.073 80.7338 236.091 80.7415C236.188 80.7798 236.288 80.8233 236.387 80.8718C236.433 80.8923 236.477 80.9127 236.523 80.9357C236.556 80.951 236.592 80.9689 236.625 80.9868C236.689 81.0175 236.75 81.0507 236.814 81.0865C236.865 81.1146 236.919 81.1427 236.97 81.1734C236.995 81.1887 237.023 81.204 237.052 81.2219C237.069 81.2347 237.09 81.2449 237.108 81.2577C237.136 81.2756 237.164 81.2935 237.192 81.3114C237.238 81.3395 237.282 81.3676 237.328 81.3982C237.348 81.4136 237.368 81.4263 237.391 81.4417C237.448 81.4826 237.506 81.526 237.565 81.5695C237.624 81.6129 237.685 81.6614 237.744 81.71C237.805 81.7611 237.864 81.8122 237.923 81.8633C237.982 81.917 238.038 81.9681 238.094 82.0243C238.15 82.078 238.204 82.1342 238.258 82.193C238.368 82.3105 238.472 82.4358 238.57 82.5661C239.065 83.2305 239.704 83.9818 240.394 84.7459H240.392Z" fill="#ABE4FF"/>
</svg>
