<svg width="102" height="105" viewBox="0 0 102 105" fill="none" xmlns="http://www.w3.org/2000/svg">
<path d="M101.92 50.76C101.92 50.76 101.92 50.74 101.92 50.73C101.97 48.6 101.89 46.34 101.68 43.99C101.65 43.66 101.62 43.34 101.58 43.01C101.57 42.82 101.54 42.63 101.51 42.45C101.5 42.34 101.47 42.21 101.45 42.09C101.45 42.03 101.43 41.97 101.42 41.91C101.42 41.91 101.42 41.89 101.42 41.88L101.39 41.69V41.61L101.36 41.48C101.36 41.46 101.35 41.44 101.34 41.42C101.34 41.4 101.34 41.38 101.33 41.36V41.29L101.3 41.2L101.26 40.99L101.21 40.73L101.17 40.54L101.14 40.41C101.14 40.41 101.14 40.37 101.13 40.34C101.11 40.27 101.1 40.21 101.09 40.14C101.07 40.04 101.05 39.93 101.02 39.83C100.89 39.24 100.72 38.57 100.5 37.83C100.5 37.83 100.5 37.83 100.5 37.82C100.5 37.82 100.5 37.81 100.5 37.8C100.5 37.8 100.5 37.78 100.5 37.77C100.42 37.48 100.33 37.19 100.24 36.9C100.24 36.88 100.23 36.86 100.22 36.84L100.11 36.51C100.03 36.28 99.96 36.06 99.87 35.83C99.87 35.82 99.87 35.81 99.86 35.79C99.86 35.79 99.86 35.78 99.86 35.77C99.86 35.76 99.86 35.75 99.85 35.74C99.62 35.11 99.38 34.48 99.09 33.78C99.01 33.58 98.92 33.39 98.84 33.2C98.81 33.13 98.78 33.07 98.76 33L98.66 32.78C98.55 32.52 98.43 32.26 98.3 32.01L98.19 31.79C98.19 31.79 98.18 31.77 98.17 31.76C98.15 31.72 98.13 31.68 98.11 31.64C97.97 31.36 97.83 31.09 97.69 30.82C97.69 30.81 97.69 30.8 97.68 30.79C97.51 30.45 97.34 30.13 97.16 29.81L97.05 29.62C96.88 29.31 96.7 29 96.52 28.69L96.36 28.41L96.16 28.07C95.93 27.68 95.7 27.3 95.45 26.92C95.09 26.36 94.7 25.78 94.18 25.04C93.99 24.75 93.75 24.43 93.52 24.11C93.34 23.85 93.12 23.57 92.91 23.28L92.84 23.19C92.84 23.19 92.8 23.14 92.78 23.12C92.75 23.08 92.72 23.04 92.69 23.01C92.63 22.94 92.58 22.86 92.52 22.79C92.52 22.79 92.51 22.78 92.51 22.77L92.33 22.54L92.15 22.31C92.15 22.31 92.07 22.22 92.03 22.17L91.73 21.79L91.41 21.39C89.18 18.72 86.69 16.2 83.97 13.88C83.04 13.08 82.31 12.49 81.61 11.96C80.84 11.37 80.03 10.77 79.18 10.17L78.8 9.91C78.5 9.7 78.2 9.5 77.9 9.3C77.5 9.02 77.1 8.77 76.72 8.53C76 8.06 75.34 7.66 74.69 7.3L73.79 6.78C73.36 6.53 72.91 6.28 72.4 6.02L72.18 5.91L71.97 5.8L71.85 5.74C71.79 5.71 71.73 5.68 71.68 5.65C71.64 5.63 71.6 5.61 71.57 5.59L71.36 5.49L71.2 5.41C71 5.3 70.76 5.18 70.52 5.07C70.43 5.02 70.34 4.98 70.27 4.96C69.96 4.81 69.66 4.67 69.35 4.53C69.24 4.48 69.15 4.43 69.06 4.4C68.81 4.28 68.56 4.17 68.31 4.07C67.56 3.74 66.73 3.4 65.79 3.04C65.78 3.04 65.76 3.03 65.75 3.02C65.73 3.02 65.7 3 65.68 2.99C65.24 2.82 64.81 2.67 64.37 2.52C64.1 2.42 63.8 2.33 63.5 2.23C63.5 2.23 63.49 2.23 63.48 2.23C63.37 2.19 63.27 2.17 63.16 2.13C63.13 2.13 63.11 2.11 63.08 2.1C62.63 1.96 62.16 1.82 61.7 1.69L60.31 1.32C59.96 1.23 59.64 1.16 59.32 1.09C58.86 0.98 58.4 0.89 57.95 0.8C57.64 0.74 57.32 0.68 56.99 0.62C56.22 0.49 55.46 0.37 54.7 0.29C54.65 0.29 54.59 0.28 54.53 0.27C53.1 0.11 51.69 0 50.3 0C44.43 0 39.12 1.44 34.5 4.29C34.39 4.36 33.1 5.14 31.37 6.76C31.36 6.77 31.34 6.79 31.33 6.8C31.29 6.83 31.25 6.87 31.21 6.92C31.21 6.92 31.21 6.92 31.2 6.93C31.16 6.96 31.12 7 31.09 7.03C31.03 7.08 30.98 7.13 30.92 7.19C30.89 7.22 30.85 7.25 30.82 7.28C30.76 7.33 30.7 7.39 30.63 7.46L30.48 7.61L30.44 7.65C30.44 7.65 30.4 7.69 30.38 7.71C30.37 7.72 30.36 7.73 30.35 7.74C30.34 7.75 30.32 7.77 30.31 7.78C30.31 7.78 30.3 7.79 30.29 7.8C29.08 8.99 27.87 10.31 26.69 11.74C26.43 12.05 26.16 12.39 25.89 12.74L25.77 12.89C23.82 15.39 22.04 18.05 20.48 20.81L20.31 21.11C20.18 21.34 20.06 21.57 19.93 21.8C19.37 22.84 18.81 23.95 18.27 25.09L17.97 25.74L17.83 26.05C17.75 26.2 17.68 26.36 17.62 26.53C17.48 26.84 17.34 27.16 17.2 27.48C17.03 27.88 16.87 28.28 16.71 28.7C16.65 28.84 16.59 28.99 16.54 29.13C16.31 29.73 16.08 30.35 15.85 30.98C15.79 31.13 15.74 31.27 15.71 31.38C15.56 31.81 15.41 32.26 15.27 32.7C15.13 33.14 14.99 33.59 14.85 34.05C14.85 34.07 14.83 34.1 14.83 34.12C14.69 34.58 14.56 35.05 14.43 35.53C14.32 35.9 14.22 36.33 14.11 36.75L14.06 36.95C13.94 37.42 13.83 37.87 13.72 38.34C13.7 38.39 13.69 38.44 13.68 38.49C13.44 39.59 13.24 40.59 13.08 41.55C12.88 42.68 12.72 43.74 12.59 44.79C12.46 45.8 12.34 46.9 12.24 48.13C12.02 51.03 11.98 53.94 12.11 56.81C12.11 56.85 12.11 56.89 12.11 56.94C12.12 57.05 12.2 57.72 12.34 58.74C12.38 59.03 12.43 59.36 12.48 59.7C12.58 60.4 12.71 61.2 12.86 62.06C13.55 66.05 14.74 71.49 16.56 75.07L16.53 75.14L16.51 75.18C15.88 75.95 15.4 76.46 15.08 76.76C14.85 76.61 14.59 76.45 14.29 76.29C14.26 76.28 14.24 76.26 14.21 76.25C14.08 76.18 13.95 76.11 13.81 76.05C13.76 76.03 13.71 76.01 13.66 75.98C13.53 75.92 13.4 75.86 13.27 75.81C13.2 75.78 13.13 75.76 13.07 75.74C12.94 75.69 12.81 75.64 12.67 75.6C12.59 75.57 12.5 75.55 12.41 75.53C12.28 75.49 12.14 75.46 12 75.43C11.89 75.41 11.77 75.39 11.66 75.38C11.53 75.36 11.4 75.33 11.27 75.32C11.09 75.3 10.9 75.3 10.71 75.29C10.63 75.29 10.56 75.28 10.48 75.28C10.08 75.28 9.68 75.31 9.27 75.37C8.86 75.43 8.45 75.52 8.03 75.64C2.93 77.11 0 81.1 0 86.59C0 89.03 0.81 91.35 2.35 93.3C4.12 95.56 6.78 97.13 9.29 97.38C9.77 97.43 10.27 97.46 10.75 97.46C12.83 97.46 14.35 96.98 15.39 96.55C15.39 96.59 15.37 96.64 15.37 96.69C15.28 97.15 15.27 97.64 15.34 98.14C15.34 98.14 15.34 98.14 15.34 98.15C15.71 100.78 18.25 103.59 21.7 104.25C22.19 104.34 22.7 104.39 23.23 104.39C24.22 104.39 25.2 104.21 26.16 103.84C29.1 102.73 31.41 100.15 32.34 96.95C33.02 94.61 32.78 92.43 31.69 90.99C31.41 90.61 31.13 90.27 30.87 89.95C30.78 89.84 30.68 89.72 30.58 89.59C30.69 89.51 30.78 89.42 30.87 89.32C32.42 90.25 35.18 91.74 38.93 93.04C40.13 93.46 41.37 93.83 42.63 94.15C43.06 94.26 43.5 94.37 43.96 94.47C47 95.15 50.06 95.5 53.05 95.5C54.33 95.5 55.61 95.44 56.87 95.31C57.71 95.23 58.61 95.1 59.55 94.94C59.93 94.88 60.32 94.81 60.73 94.72C63.65 94.12 66.54 93.17 69.31 91.88C69.33 91.88 69.34 91.86 69.36 91.86C69.38 91.86 69.41 91.84 69.44 91.82C69.45 91.82 69.46 91.81 69.48 91.8C69.48 91.8 69.48 91.8 69.49 91.8C70.96 91.11 72.43 90.39 73.87 89.65C76.31 88.39 78.59 87.09 80.63 85.79C80.63 85.79 80.64 85.78 80.65 85.77C80.69 85.75 80.73 85.73 80.76 85.7C81.34 85.33 81.91 84.95 82.44 84.58C82.49 84.55 82.54 84.52 82.59 84.48C82.77 84.36 82.95 84.23 83.12 84.11L83.36 83.94C83.47 83.87 83.59 83.78 83.7 83.7C84.06 83.44 84.41 83.18 84.74 82.93C85.7 82.19 86.51 81.53 87.25 80.88C90.22 78.27 92.4 75.59 93.92 72.71C95.67 71.06 97.18 69.03 98.38 66.64C98.38 66.64 98.38 66.62 98.39 66.61C98.39 66.6 98.41 66.58 98.41 66.57C98.51 66.36 98.61 66.17 98.71 65.97C98.71 65.97 98.74 65.9 98.76 65.87C99.01 65.33 99.21 64.87 99.39 64.41C99.45 64.25 99.52 64.08 99.58 63.92L99.69 63.62C99.81 63.3 99.91 63.01 100.01 62.72C100.11 62.43 100.19 62.17 100.27 61.9L100.31 61.78C100.34 61.71 100.36 61.63 100.38 61.55C100.38 61.55 100.38 61.54 100.38 61.53C100.39 61.48 100.4 61.44 100.42 61.4C100.6 60.74 100.76 60.13 100.89 59.54C100.89 59.54 100.89 59.53 100.89 59.52C100.89 59.5 100.89 59.48 100.9 59.47C100.98 59.15 101.04 58.82 101.1 58.5C101.19 58.05 101.28 57.56 101.35 57.06C101.43 56.6 101.51 56.04 101.58 55.4L101.61 55.16C101.63 54.98 101.64 54.82 101.66 54.66C101.66 54.57 101.68 54.48 101.69 54.39C101.69 54.36 101.69 54.33 101.69 54.3C101.69 54.24 101.7 54.19 101.7 54.13V54.09C101.7 54.09 101.71 54.02 101.71 53.98C101.71 53.96 101.71 53.93 101.71 53.91C101.73 53.74 101.75 53.58 101.76 53.41C101.77 53.29 101.78 53.16 101.78 53.04C101.78 53 101.78 52.96 101.78 52.92C101.78 52.79 101.79 52.66 101.8 52.52C101.8 52.38 101.81 52.23 101.82 52.09C101.82 52.06 101.82 52.04 101.82 52.01C101.82 51.82 101.83 51.63 101.84 51.43C101.84 51.2 101.86 50.98 101.86 50.75L101.92 50.76Z" fill="#231F20"/>
<path d="M25.4205 102.01C21.3105 103.57 17.6505 100.42 17.3005 97.9C17.2605 97.62 17.2605 97.35 17.3105 97.09C17.8005 94.52 16.5505 93.83 15.6505 94.25C14.7505 94.66 12.8005 95.77 9.47047 95.42C7.58047 95.23 5.41047 94.02 3.90047 92.09C2.75047 90.63 1.98047 88.76 1.98047 86.62C1.98047 81.62 4.69047 78.71 8.57047 77.59C12.4605 76.46 14.2605 79.06 15.1605 79.06C15.2305 79.06 15.3105 79.04 15.3905 79.01C16.3005 78.68 17.9405 76.63 18.1905 76.32L18.0405 76.67C18.0405 76.67 18.0405 76.68 18.0605 76.7C18.0805 76.72 18.1105 76.75 18.1405 76.78C18.1605 76.8 18.1905 76.82 18.2105 76.84C18.2305 76.87 18.2605 76.89 18.2805 76.92C18.6005 77.24 19.2105 77.85 20.0005 78.63C20.1305 78.76 20.2605 78.89 20.4005 79.03C21.2305 79.87 22.2205 80.85 23.2205 81.85C24.2505 82.01 25.2705 82.09 26.0405 82.16C26.8605 82.22 27.4105 82.24 27.4105 82.24L27.0405 85.68C27.1905 85.83 27.3305 85.98 27.4705 86.12C27.6105 86.26 27.7505 86.39 27.8705 86.52C28.2505 86.9 28.5805 87.24 28.8405 87.5C27.1405 89.25 28.5005 90.13 30.0705 92.23C31.7405 94.45 30.0005 100.28 25.4205 102.01Z" fill="#DD9874"/>
<path d="M15.3905 79.01C15.4405 81.38 15.0405 83.96 13.7005 86.27C11.5305 90.03 7.51047 91.87 3.90047 92.09C2.75047 90.63 1.98047 88.76 1.98047 86.62C1.98047 81.62 4.69047 78.71 8.57047 77.59C12.4605 76.46 14.2605 79.06 15.1605 79.06C15.2305 79.06 15.3105 79.04 15.3905 79.01Z" fill="#F9D9AC"/>
<path d="M25.4208 102.01C21.3108 103.57 17.6508 100.42 17.3008 97.9C21.2408 99.02 24.9408 97.25 25.8208 95.77C26.7708 94.18 23.6908 92.23 23.0708 88.77C22.8008 87.29 23.7708 85.35 24.9708 83.6C25.3208 83.1 25.6808 82.61 26.0408 82.16C26.8608 82.22 27.4108 82.24 27.4108 82.24L27.0408 85.68C27.1908 85.83 27.3308 85.98 27.4708 86.12C27.6108 86.26 27.7508 86.39 27.8708 86.52C28.2508 86.9 28.5808 87.24 28.8408 87.5C27.1408 89.25 28.5008 90.13 30.0708 92.23C31.7408 94.45 30.0008 100.28 25.4208 102.01Z" fill="#C67952"/>
<path d="M64.0201 50.24C61.3601 52.45 57.8901 52.95 55.4401 51.23C52.7101 49.32 52.1501 45.3 53.9101 41.76C55.4401 44.02 57.5701 46.13 60.5101 47.57C62.1001 48.34 63.2501 49.26 64.0201 50.24Z" fill="#B45527"/>
<path d="M87.1212 61.64C84.0212 64.07 80.0012 65.72 75.2212 66.28C74.0512 62.36 74.7112 58.72 77.1412 57.32C79.9512 55.7 84.1712 57.61 87.1212 61.64Z" fill="#B45527"/>
<path d="M29.3109 87.96L28.9609 87.57H28.9709C28.9709 87.57 29.1509 87.76 29.3109 87.96Z" fill="#B45527"/>
<path d="M29.3805 88.04L29.3505 88.02C29.3505 88.02 29.3305 87.99 29.3105 87.97C29.3405 87.99 29.3605 88.02 29.3805 88.04Z" fill="#B45527"/>
<path d="M18.6707 76.2C18.5207 76.22 18.3707 76.25 18.2207 76.28L18.3507 76C18.4507 76.07 18.5607 76.14 18.6707 76.2Z" fill="#B45527"/>
<path d="M24.351 30.48C24.341 30.38 24.331 30.27 24.321 30.17C24.301 29.92 24.291 29.67 24.291 29.42C24.291 29.77 24.321 30.12 24.351 30.48Z" fill="#B45527"/>
<path d="M24.4806 32.01C24.4806 31.95 24.4606 31.9 24.4506 31.84L24.4206 31.48C24.4206 31.36 24.4006 31.24 24.3906 31.13C24.3906 31.14 24.3906 31.15 24.4006 31.16C24.4206 31.44 24.4506 31.72 24.4806 32.01Z" fill="#B45527"/>
<path d="M25.3302 36.95C25.3102 36.85 25.2802 36.75 25.2602 36.65C25.2202 36.49 25.1902 36.33 25.1602 36.17C25.2202 36.43 25.2802 36.68 25.3302 36.95Z" fill="#B45527"/>
<path d="M28.0396 14.06C28.0396 14.06 28.0296 14.08 28.0296 14.09C27.9596 14.19 27.8996 14.29 27.8496 14.39C27.9096 14.27 27.9696 14.17 28.0396 14.06Z" fill="#B45527"/>
<path d="M29.5105 11.84C29.4305 11.95 29.3405 12.07 29.2605 12.19C29.1905 12.28 29.1205 12.38 29.0605 12.47C29.1405 12.32 29.2405 12.19 29.3505 12.05C29.4105 11.98 29.4605 11.91 29.5105 11.84Z" fill="#B45527"/>
<path d="M32.4798 8.46999C32.2798 8.66999 32.0798 8.85999 31.8698 9.07999C31.7398 9.20999 31.6198 9.32999 31.4898 9.46999C31.3598 9.60999 31.2298 9.74999 31.0998 9.88999C31.0198 9.97999 30.9298 10.08 30.8398 10.18C31.1598 9.79999 31.4698 9.44999 31.7798 9.12999C31.7998 9.10999 31.8098 9.08999 31.8298 9.07999L32.0398 8.86999C32.0398 8.86999 32.1098 8.79999 32.1498 8.76999C32.1798 8.73999 32.2198 8.69999 32.2498 8.67999C32.3098 8.61999 32.3698 8.55999 32.4298 8.50999C32.4498 8.48999 32.4598 8.47999 32.4798 8.46999Z" fill="#B45527"/>
<path d="M32.8302 8.14999C32.8302 8.14999 32.7702 8.19999 32.7402 8.22999C32.7402 8.22999 32.8002 8.16999 32.8302 8.14999Z" fill="#B45527"/>
<path d="M38.5695 77.05V81.99L29.5195 79.46V73.37C30.3495 74.26 38.5695 77.05 38.5695 77.05Z" fill="#B45527"/>
<path d="M39.5698 86.05V91.19C34.9498 89.58 31.9298 87.68 31.3898 87.34L31.3398 83.89L39.5698 86.05Z" fill="#B45527"/>
<path d="M54.1291 85.29C52.6991 85.03 42.6191 83 42.6191 83V77.68C45.9191 79.2 53.1191 80.09 53.1191 80.09L54.1291 85.29Z" fill="#B45527"/>
<path d="M56.6606 93.36C52.1606 93.81 47.9906 93.37 44.3806 92.56C44.1806 90.13 44.2106 87.19 44.2106 87.19C46.1806 88.07 55.3006 89.21 55.3006 89.21L56.6606 93.36Z" fill="#B45527"/>
<path d="M68.6099 90.04C68.6099 90.04 68.5199 90.08 68.4799 90.1C65.7099 91.39 62.9799 92.26 60.3299 92.8L59.4199 89.21C60.6299 89.14 65.0899 89.62 68.6099 90.04Z" fill="#B45527"/>
<path d="M69.1101 87.19C69.1101 87.19 59.3501 86.81 58.4601 85.79C57.5701 84.78 57.9601 81.48 57.9601 81.48C57.9601 81.48 65.1801 81.23 67.4101 81.48C69.6401 81.74 69.1101 87.19 69.1101 87.19Z" fill="#B45527"/>
<path d="M79.5693 84.13C77.6393 85.36 75.4493 86.62 72.9693 87.9L72.5293 83.38L78.1093 83.51L79.5693 84.13Z" fill="#B45527"/>
<path d="M27.4107 82.24L27.0407 85.68C26.4107 85.05 25.7107 84.34 24.9707 83.6C24.4007 83.02 23.8107 82.43 23.2207 81.85C24.2507 82.01 25.2707 82.09 26.0407 82.16C26.8607 82.22 27.4107 82.24 27.4107 82.24Z" fill="#B45527"/>
<path d="M88.4399 73.99C86.8999 74.94 85.1899 75.7 83.3699 76.27C82.3699 76.59 81.3399 76.84 80.2799 77.04C77.2699 77.61 74.0099 77.73 70.6299 77.4C69.2399 77.28 67.8199 77.07 66.3999 76.79C62.6199 76.05 58.7499 74.79 54.9599 73.02C51.2599 71.3 47.6499 69.08 44.2599 66.4H44.2499C43.1899 65.56 42.1599 64.68 41.1499 63.75C40.4099 63.07 39.6899 62.37 38.9899 61.64C37.6299 60.25 36.3399 58.77 35.1399 57.2H35.1299C33.9899 55.74 32.9199 54.22 31.9299 52.61C31.5899 52.08 31.2699 51.54 30.9499 50.99C30.4699 50.13 29.9999 49.27 29.5699 48.38C29.0699 47.42 28.6099 46.43 28.1799 45.42C27.0599 42.81 26.2199 40.34 25.6099 38.01C25.5399 37.76 25.4799 37.51 25.4099 37.26C25.4499 37.47 25.5099 37.68 25.5599 37.89C25.5699 37.91 25.5699 37.94 25.5799 37.96C26.1999 40.33 27.0499 42.82 28.1799 45.47C28.5999 46.45 29.0399 47.4 29.5199 48.34C26.6999 45.86 23.8999 42.03 22.0299 39.84C20.5899 38.14 17.2299 43.02 14.2399 48.3C14.0399 50.99 13.9799 53.8 14.1099 56.74C14.1099 56.74 15.4999 69.57 18.7999 75.02L18.7199 75.19C20.8799 76.2 23.5499 77.23 26.2699 77.63V71.22C26.2699 71.22 22.4099 68.82 20.1699 65.65C20.4399 65.8 24.7999 68.17 26.2699 68.17L27.0299 60.95C27.0299 60.95 28.1699 68 28.8099 69.29C28.9399 69.57 29.4099 69.9 30.0599 70.25C32.4099 71.53 37.2199 73.07 38.3099 73.37V66.5C38.3099 66.5 34.5799 64.83 30.7199 62.67C27.3599 60.79 23.8999 58.55 22.7199 56.74C22.7199 56.74 29.0599 59.53 30.3299 59.86C30.4499 59.89 30.6199 59.95 30.8299 60.03C32.8199 60.83 38.3099 63.74 38.3099 63.74L38.9799 61.68C39.6899 62.42 40.4099 63.12 41.1599 63.8C41.2999 64.4 41.3799 64.98 41.3499 65.51C41.3499 65.51 42.4899 65.81 44.1199 66.35H44.1299C46.4199 68.19 48.8299 69.8 51.2899 71.19C50.8699 71.07 44.0799 69.04 42.6099 68.3C42.6099 68.3 42.3599 73.24 42.6099 74.01C42.8699 74.77 51.8699 76.28 51.8699 76.28L51.3099 71.2C52.5199 71.88 53.7399 72.51 54.9699 73.08C54.9699 73.08 54.6499 77.62 57.6999 77.59C60.7399 77.55 65.5299 78.19 65.5299 78.19C65.5299 78.19 65.8999 77.57 66.3599 76.83C67.7899 77.12 69.2199 77.32 70.6199 77.45V79.71L79.8499 79.07L80.2599 77.09C81.3299 76.89 82.3699 76.63 83.3699 76.32L83.8099 78.82L85.9499 79.4C89.0399 76.68 91.0299 74.06 92.3199 71.53C92.3299 71.53 92.3299 71.53 92.3299 71.53C92.3499 71.5 92.3699 71.47 92.3799 71.44C90.2199 73.41 88.4299 74 88.4299 74L88.4399 73.99ZM31.3699 54.57C29.8199 53.39 28.4199 52.22 27.8899 51.64C26.7499 50.4 24.0699 46.79 25.1999 47.57C25.8099 47.99 28.5199 49.58 30.8999 50.96C30.9099 50.96 30.9099 50.96 30.9099 50.96C31.2399 51.53 31.5699 52.08 31.9199 52.63C32.8899 54.21 33.9399 55.7 35.0499 57.13C33.9799 56.48 32.6199 55.52 31.3699 54.56V54.57Z" fill="#B45527"/>
<path d="M24.351 30.48C24.341 30.38 24.331 30.27 24.321 30.17C24.301 29.92 24.291 29.67 24.291 29.42C24.291 29.77 24.321 30.12 24.351 30.48Z" fill="#D17428"/>
<path d="M24.4806 32.01C24.4806 31.95 24.4606 31.9 24.4506 31.84L24.4206 31.48C24.4206 31.36 24.4006 31.24 24.3906 31.13C24.3906 31.14 24.3906 31.15 24.4006 31.16C24.4206 31.44 24.4506 31.72 24.4806 32.01Z" fill="#D17428"/>
<path d="M25.3302 36.95C25.3102 36.85 25.2802 36.75 25.2602 36.65C25.2202 36.49 25.1902 36.33 25.1602 36.17C25.2202 36.43 25.2802 36.68 25.3302 36.95Z" fill="#D17428"/>
<path d="M27.8899 51.64C28.4199 52.22 29.8199 53.39 31.3699 54.57C31.0899 55.8 30.8999 57.1 30.8699 58.46C30.8599 58.99 30.8399 59.51 30.8299 60.03C30.6199 59.95 30.4499 59.89 30.3299 59.86C29.0599 59.53 22.7199 56.74 22.7199 56.74C23.8999 58.55 27.3599 60.79 30.7199 62.67C30.5799 65.52 30.3699 68.07 30.0599 70.25C29.4099 69.9 28.9399 69.57 28.8099 69.29C28.1699 68 27.0299 60.95 27.0299 60.95L26.2699 68.17C24.7999 68.17 20.4399 65.8 20.1699 65.65C22.4099 68.82 26.2699 71.22 26.2699 71.22V77.63C23.5499 77.23 20.8799 76.2 18.7199 75.19L18.7999 75.02C15.4999 69.57 14.1099 56.74 14.1099 56.74C13.9799 53.8 14.0399 50.99 14.2399 48.3C17.2299 43.02 20.5899 38.14 22.0299 39.84C23.8999 42.03 26.6999 45.86 29.5199 48.34C29.0399 47.4 28.5999 46.45 28.1799 45.47C27.0499 42.82 26.1999 40.33 25.5799 37.97C25.5799 37.97 25.5699 37.91 25.5599 37.89C25.5099 37.68 25.4499 37.47 25.4099 37.26C25.4799 37.51 25.5399 37.76 25.6099 38.01C26.2199 40.34 27.0599 42.81 28.1799 45.42C28.6099 46.43 29.0699 47.42 29.5699 48.38C29.9999 49.27 30.4699 50.13 30.9499 50.98C31.2699 51.54 31.5899 52.08 31.9299 52.61C31.9199 52.62 31.9199 52.63 31.9199 52.64C31.5699 52.09 31.2399 51.54 30.9099 50.97C30.9099 50.97 30.9099 50.97 30.8999 50.97C28.5199 49.59 25.8099 48 25.1999 47.58C24.0699 46.8 26.7499 50.41 27.8899 51.65V51.64Z" fill="#D17428"/>
<path d="M54.8411 59.02C49.5511 56.59 44.0511 51.62 40.1911 45.91C40.9611 45.3 41.6711 44.55 42.2911 43.67C44.4211 40.65 44.7711 37.05 43.3811 34.7C43.0311 34.09 42.5611 33.56 41.9711 33.14C41.1111 32.53 40.0911 32.24 39.0211 32.24C37.7411 32.24 36.3811 32.66 35.1011 33.43C34.8011 31.49 34.7111 29.81 34.7611 28.4C34.8111 26.91 35.0111 25.71 35.2411 24.76C35.5411 23.53 37.1011 23.14 37.9311 24.1C39.5511 25.97 42.2611 28.61 45.4511 29.76C46.2211 30.04 47.0111 30.23 47.8211 30.31C49.0811 30.42 50.0911 31.39 50.3111 32.63C50.7311 34.92 51.7011 38.5 53.9111 41.76C52.1511 45.3 52.7111 49.32 55.4411 51.23C57.8911 52.95 61.3611 52.45 64.0211 50.24C68.1411 55.4 61.9011 62.27 54.8411 59.02Z" fill="#B64826"/>
<path d="M31.7802 9.12999C31.4702 9.44999 31.1602 9.79999 30.8402 10.18C30.8302 10.2 30.8002 10.23 30.7802 10.25C30.5802 10.48 30.3802 10.72 30.1802 10.97C29.9602 11.25 29.7402 11.53 29.5102 11.84C29.4602 11.91 29.4102 11.98 29.3502 12.05C29.2402 12.19 29.1402 12.32 29.0602 12.47C28.9402 12.65 28.8202 12.83 28.7002 13.01C28.5702 13.2 28.4402 13.4 28.3202 13.6C28.2802 13.67 28.2302 13.73 28.1902 13.81C28.1502 13.88 28.1002 13.95 28.0602 14.02C28.0602 14.02 28.0502 14.05 28.0402 14.06C27.9702 14.17 27.9102 14.27 27.8502 14.39C27.7802 14.5 27.7202 14.61 27.6602 14.72C27.5702 14.88 27.4802 15.05 27.3902 15.22C27.3802 15.23 27.3802 15.24 27.3702 15.26C27.2702 15.44 27.1802 15.63 27.0902 15.82C26.9602 16.06 26.8402 16.31 26.7302 16.57C26.5302 17.01 26.3402 17.46 26.1602 17.92C26.0802 18.12 26.0002 18.33 25.9302 18.54C25.7702 18.98 25.6202 19.43 25.4802 19.89C25.3902 20.17 25.3102 20.45 25.2402 20.74C25.2202 20.83 25.1902 20.93 25.1702 21.02C25.0302 21.54 24.9102 22.08 24.8102 22.63C24.7302 23.03 24.6602 23.44 24.6002 23.86C24.5202 24.39 24.4502 24.94 24.4002 25.5C24.3602 25.85 24.3402 26.21 24.3202 26.58C24.2802 27.16 24.2702 27.77 24.2702 28.39C24.2702 28.73 24.2802 29.07 24.2902 29.42C24.2902 29.67 24.2902 29.92 24.3202 30.17C24.3302 30.27 24.3402 30.38 24.3502 30.48C24.3402 30.51 24.3402 30.53 24.3502 30.55C24.3502 30.74 24.3702 30.93 24.3902 31.13C24.4002 31.24 24.4102 31.36 24.4202 31.48L24.4502 31.84C24.4602 31.9 24.4702 31.95 24.4802 32.01C24.4802 32.03 24.4802 32.04 24.4802 32.06C24.4802 32.09 24.4802 32.12 24.4902 32.15C24.5102 32.31 24.5202 32.47 24.5502 32.63C24.5802 32.91 24.6202 33.2 24.6702 33.49C24.7002 33.77 24.7502 34.06 24.8002 34.35C24.8602 34.64 24.9102 34.93 24.9702 35.23C24.9702 35.32 25.0002 35.41 25.0202 35.5C25.0602 35.72 25.1002 35.94 25.1602 36.17C25.1902 36.33 25.2202 36.49 25.2602 36.65C25.2802 36.75 25.3102 36.85 25.3302 36.95C25.3602 37.05 25.3802 37.15 25.4102 37.26C25.4502 37.47 25.5102 37.68 25.5602 37.89C25.5702 37.91 25.5702 37.94 25.5802 37.96C26.2002 40.33 27.0502 42.82 28.1802 45.47C28.6002 46.45 29.0402 47.4 29.5202 48.34C26.7002 45.86 23.9002 42.03 22.0302 39.84C20.5902 38.14 17.2302 43.02 14.2402 48.3C14.3302 47.19 14.4402 46.1 14.5802 45.04C14.7102 43.97 14.8702 42.93 15.0502 41.91C15.2302 40.89 15.4302 39.9 15.6402 38.93C15.6402 38.92 15.6502 38.92 15.6502 38.91C15.7602 38.42 15.8802 37.94 16.0002 37.46C16.1202 36.99 16.2402 36.51 16.3702 36.05C16.4902 35.59 16.6202 35.14 16.7502 34.7C16.7502 34.69 16.7502 34.68 16.7602 34.67C16.9002 34.21 17.0402 33.76 17.1802 33.32C17.3202 32.88 17.4702 32.44 17.6202 32.01C17.6502 31.91 17.6802 31.81 17.7202 31.72C17.9502 31.08 18.1802 30.44 18.4202 29.83C18.4602 29.71 18.5102 29.59 18.5602 29.48C18.7202 29.07 18.8802 28.67 19.0502 28.27C19.1902 27.94 19.3302 27.61 19.4802 27.29C19.5202 27.17 19.5702 27.05 19.6302 26.94C19.7802 26.61 19.9302 26.28 20.0802 25.95C20.6102 24.83 21.1502 23.76 21.7002 22.74C21.8702 22.42 22.0502 22.1 22.2202 21.79C23.9402 18.74 25.7202 16.19 27.3302 14.13C27.6402 13.74 27.9402 13.36 28.2302 13.01C29.6502 11.29 30.9002 9.98999 31.7802 9.12999Z" fill="#E28F46"/>
<path d="M24.351 30.48C24.341 30.38 24.331 30.27 24.321 30.17C24.301 29.92 24.291 29.67 24.291 29.42C24.291 29.77 24.321 30.12 24.351 30.48Z" fill="#E28F46"/>
<path d="M24.4806 32.01C24.4806 31.95 24.4606 31.9 24.4506 31.84L24.4206 31.48C24.4206 31.36 24.4006 31.24 24.3906 31.13C24.3906 31.14 24.3906 31.15 24.4006 31.16C24.4206 31.44 24.4506 31.72 24.4806 32.01Z" fill="#E28F46"/>
<path d="M25.3302 36.95C25.3102 36.85 25.2802 36.75 25.2602 36.65C25.2202 36.49 25.1902 36.33 25.1602 36.17C25.2202 36.43 25.2802 36.68 25.3302 36.95Z" fill="#E28F46"/>
<path d="M28.0396 14.06C28.0396 14.06 28.0296 14.08 28.0296 14.09C27.9596 14.19 27.8996 14.29 27.8496 14.39C27.9096 14.27 27.9696 14.17 28.0396 14.06Z" fill="#E28F46"/>
<path d="M29.5105 11.84C29.4305 11.95 29.3405 12.07 29.2605 12.19C29.1905 12.28 29.1205 12.38 29.0605 12.47C29.1405 12.32 29.2405 12.19 29.3505 12.05C29.4105 11.98 29.4605 11.91 29.5105 11.84Z" fill="#E28F46"/>
<path d="M32.4798 8.46999C32.2798 8.66999 32.0798 8.85999 31.8698 9.07999C31.7398 9.20999 31.6198 9.32999 31.4898 9.46999C31.3598 9.60999 31.2298 9.74999 31.0998 9.88999C31.0198 9.97999 30.9298 10.08 30.8398 10.18C31.1598 9.79999 31.4698 9.44999 31.7798 9.12999C31.7998 9.10999 31.8098 9.08999 31.8298 9.07999L32.0398 8.86999C32.0398 8.86999 32.1098 8.79999 32.1498 8.76999C32.1798 8.73999 32.2198 8.69999 32.2498 8.67999C32.3098 8.61999 32.3698 8.55999 32.4298 8.50999C32.4498 8.48999 32.4598 8.47999 32.4798 8.46999Z" fill="#E28F46"/>
<path d="M32.8302 8.14999C32.8302 8.14999 32.7702 8.19999 32.7402 8.22999C32.7402 8.22999 32.8002 8.16999 32.8302 8.14999Z" fill="#E28F46"/>
<path d="M29.5702 48.38C29.5702 48.38 29.5402 48.35 29.5202 48.34C29.0402 47.4 28.6002 46.45 28.1802 45.47C27.0502 42.82 26.2002 40.33 25.5802 37.97C25.5802 37.97 25.5702 37.91 25.5602 37.89C25.5102 37.68 25.4502 37.47 25.4102 37.26C25.4802 37.51 25.5402 37.76 25.6102 38.01C26.2202 40.34 27.0602 42.81 28.1802 45.42C28.6102 46.43 29.0702 47.42 29.5702 48.38Z" fill="#E28F46"/>
<path d="M18.1912 76.32L18.0312 76.67C18.0312 76.67 18.0413 76.68 18.0613 76.7C18.0513 76.68 18.0413 76.67 18.0413 76.67L18.1912 76.32ZM18.3513 76L18.2213 76.28C18.3713 76.25 18.5213 76.22 18.6713 76.2C18.5613 76.14 18.4513 76.07 18.3513 76ZM18.7113 75.19L18.3513 76L18.7213 75.19H18.7113ZM31.3513 87.31C31.3513 87.31 31.3713 87.33 31.3913 87.35C31.3913 87.35 31.3613 87.32 31.3513 87.31ZM41.1512 63.75C40.4112 63.07 39.6912 62.37 38.9912 61.64V61.68C39.6912 62.42 40.4113 63.12 41.1613 63.8C41.1613 63.78 41.1612 63.76 41.1512 63.75ZM54.9613 73.02C51.2612 71.3 47.6512 69.08 44.2612 66.4H44.2513C44.2513 66.4 44.1713 66.37 44.1413 66.36C46.4313 68.19 48.8413 69.8 51.3013 71.19C51.3112 71.19 51.3113 71.2 51.3213 71.2C52.5312 71.88 53.7513 72.51 54.9813 73.08C54.9813 73.06 54.9813 73.04 54.9613 73.02ZM66.4012 76.79C66.4012 76.79 66.3812 76.82 66.3713 76.83C67.8013 77.12 69.2313 77.32 70.6313 77.45V77.4C69.2413 77.28 67.8212 77.07 66.4012 76.79ZM83.3712 76.27C82.3712 76.59 81.3413 76.84 80.2813 77.04V77.09C81.3413 76.89 82.3813 76.63 83.3813 76.32V76.27H83.3712Z" fill="#9F4122"/>
<path d="M83.8208 78.82L83.3808 76.32C82.3808 76.63 81.3408 76.89 80.2708 77.09L79.8608 79.07L70.6308 79.71V77.45C69.2308 77.32 67.8008 77.12 66.3708 76.83C65.9108 77.57 65.5408 78.19 65.5408 78.19C65.5408 78.19 60.7508 77.55 57.7108 77.59C54.6608 77.62 54.9808 73.09 54.9808 73.09C53.7508 72.51 52.5308 71.88 51.3208 71.2L51.8808 76.28C51.8808 76.28 42.8808 74.77 42.6208 74.01C42.3708 73.24 42.6208 68.3 42.6208 68.3C44.0908 69.04 50.8808 71.07 51.3008 71.19C48.8408 69.8 46.4308 68.19 44.1408 66.36H44.1308C42.5008 65.81 41.3608 65.51 41.3608 65.51C41.3908 64.98 41.3108 64.4 41.1708 63.81C40.4208 63.12 39.7008 62.42 38.9908 61.68L38.3208 63.74C38.3208 63.74 32.8308 60.83 30.8408 60.03C30.6308 59.95 30.4608 59.89 30.3408 59.86C29.0708 59.53 22.7308 56.74 22.7308 56.74C23.9108 58.55 27.3708 60.79 30.7308 62.67C34.5908 64.83 38.3208 66.5 38.3208 66.5V73.37C37.2308 73.07 32.4208 71.53 30.0708 70.25C29.4208 69.9 28.9508 69.57 28.8208 69.29C28.1808 68 27.0408 60.95 27.0408 60.95L26.2808 68.17C24.8108 68.17 20.4508 65.8 20.1808 65.65C22.4208 68.82 26.2808 71.22 26.2808 71.22V77.63C23.5608 77.23 20.8908 76.2 18.7308 75.19L18.3608 76C18.4608 76.07 18.5708 76.14 18.6808 76.2C18.5308 76.22 18.3808 76.25 18.2308 76.28L18.2108 76.31H18.2008L18.0508 76.67C18.0508 76.67 18.0508 76.68 18.0708 76.7C18.0908 76.72 18.1208 76.75 18.1508 76.78C18.1708 76.8 18.2008 76.82 18.2208 76.84C18.2408 76.87 18.2708 76.89 18.2908 76.92C18.6108 77.24 19.2208 77.85 20.0108 78.63C20.1408 78.75 20.2708 78.89 20.4108 79.03C21.2408 79.87 22.2308 80.85 23.2308 81.85C24.2608 82.01 25.2808 82.09 26.0508 82.16C26.8708 82.22 27.4208 82.24 27.4208 82.24L27.0508 85.68C27.2008 85.83 27.3408 85.98 27.4808 86.12C27.6208 86.26 27.7608 86.39 27.8808 86.52C28.2608 86.9 28.5908 87.24 28.8508 87.5C29.0408 87.69 29.1908 87.85 29.3108 87.97H29.3208L28.9708 87.57H28.9808C29.1008 87.49 30.0608 86.91 30.9408 87.13C31.0808 87.17 31.2208 87.23 31.3508 87.31H31.3608C31.3608 87.31 31.3808 87.33 31.4008 87.34L31.3508 83.89L39.5808 86.05V91.19C40.6708 91.57 41.8508 91.93 43.1108 92.25C43.5308 92.36 43.9508 92.46 44.3908 92.56C44.1908 90.13 44.2208 87.19 44.2208 87.19C46.1908 88.07 55.3108 89.21 55.3108 89.21L56.6708 93.36C57.5008 93.28 58.3508 93.16 59.2108 93.01C59.5908 92.95 59.9608 92.88 60.3408 92.8L59.4308 89.21C60.6408 89.14 65.1008 89.62 68.6208 90.04C70.1608 89.32 71.6208 88.6 72.9808 87.9L72.5408 83.38L78.1208 83.51L79.5808 84.13C79.5808 84.13 79.6608 84.08 79.6908 84.06C80.2908 83.68 80.8608 83.3 81.4008 82.92C81.4208 82.91 81.4408 82.9 81.4508 82.89C81.7308 82.7 81.9908 82.51 82.2608 82.32C82.3508 82.26 82.4508 82.19 82.5408 82.12C82.9008 81.86 83.2408 81.61 83.5708 81.36C84.4408 80.69 85.2408 80.04 85.9708 79.4L83.8308 78.82H83.8208ZM38.5708 81.99L29.5208 79.46V73.37C30.3508 74.26 38.5708 77.05 38.5708 77.05V81.99ZM42.6208 83V77.68C45.9208 79.2 53.1208 80.09 53.1208 80.09L54.1308 85.29C52.7008 85.03 42.6208 83 42.6208 83ZM69.1108 87.19C69.1108 87.19 59.3508 86.81 58.4608 85.79C57.5708 84.78 57.9608 81.48 57.9608 81.48C57.9608 81.48 65.1808 81.23 67.4108 81.48C69.6408 81.74 69.1108 87.19 69.1108 87.19Z" fill="#9F4122"/>
<path d="M35.05 57.14C33.98 56.49 32.62 55.53 31.37 54.57C29.82 53.39 28.42 52.22 27.89 51.64C26.75 50.4 24.07 46.79 25.2 47.57C25.81 47.99 28.52 49.58 30.9 50.96C30.91 50.96 30.91 50.96 30.91 50.96C31.24 51.53 31.57 52.08 31.92 52.63C32.89 54.21 33.94 55.7 35.05 57.13V57.14Z" fill="#9F4122"/>
<path d="M35.1302 57.19C35.1302 57.19 35.0902 57.16 35.0602 57.15H35.0502C33.9402 55.71 32.8902 54.22 31.9202 52.64C31.5702 52.09 31.2402 51.54 30.9102 50.97C30.9102 50.98 30.9402 50.98 30.9502 50.98C31.2702 51.54 31.5902 52.08 31.9302 52.61C32.9202 54.22 33.9902 55.74 35.1302 57.19Z" fill="#9F4122"/>
<path d="M73.2298 16.35C71.2998 18.68 68.6498 19.84 66.1898 19.12C63.6298 18.37 61.9398 15.77 61.5898 12.57C65.3698 13.34 69.4598 14.61 73.2298 16.35Z" fill="#E06232"/>
<path d="M64.0201 50.24C61.3601 52.45 57.8901 52.95 55.4401 51.23C52.7101 49.32 52.1501 45.3 53.9101 41.76C55.4401 44.02 57.5701 46.13 60.5101 47.57C62.1001 48.34 63.2501 49.26 64.0201 50.24Z" fill="#E06232"/>
<path d="M87.1193 61.64C84.0193 64.07 79.9992 65.72 75.2192 66.28C74.0492 62.36 74.7093 58.72 77.1393 57.32C79.9493 55.7 84.1693 57.61 87.1193 61.64Z" fill="#E06232"/>
<path d="M89.1099 42.23C88.2999 45.72 83.1599 47.51 77.5499 46.3C78.5899 45.29 79.3399 44.1 79.5199 42.71C79.9299 39.52 78.6599 35.81 77.1699 33.01C78.1699 33.04 79.2099 33.18 80.2699 33.42C85.9699 34.75 89.9299 38.69 89.1099 42.23Z" fill="#E06232"/>
<path d="M64.9391 4.84999C64.5291 4.68999 64.1191 4.54999 63.7091 4.40999C63.4291 4.30999 63.1491 4.21999 62.8691 4.12999C62.8591 4.12999 62.8491 4.11999 62.8391 4.11999C62.7191 4.07999 62.5991 4.03999 62.4791 4.00999C63.3391 4.27999 64.1991 4.57999 65.0591 4.89999C65.0191 4.87999 64.9791 4.86999 64.9391 4.84999ZM35.5491 5.98999C35.5491 5.98999 34.3591 6.69999 32.7391 8.21999C32.6991 8.25999 32.6491 8.29999 32.5991 8.35999C32.6491 8.31999 32.6991 8.26999 32.7391 8.22999C32.7691 8.19999 32.7991 8.17999 32.8291 8.14999C32.9391 8.05999 33.0391 7.95999 33.1391 7.87999H33.1491L33.1591 7.86999C34.5591 6.62999 35.5491 6.03999 35.5491 6.03999C35.9591 5.78999 36.3791 5.54999 36.7991 5.31999C37.0191 5.19999 37.2491 5.07999 37.4791 4.96999C37.7691 4.81999 38.0591 4.67999 38.3491 4.54999C38.8691 4.30999 39.3991 4.08999 39.9291 3.87999C40.5291 3.64999 41.1391 3.43999 41.7591 3.25999C42.3791 3.07999 42.9991 2.90999 43.6291 2.76999C44.2491 2.62999 44.8891 2.50999 45.5291 2.40999C45.8491 2.35999 46.1691 2.30999 46.4891 2.26999C47.1291 2.18999 47.7791 2.12999 48.4291 2.08999C48.7591 2.06999 49.0791 2.05999 49.4091 2.04999C50.1591 2.02999 50.9191 2.03999 51.6791 2.05999C52.1391 2.07999 52.5891 2.10999 53.0491 2.13999C53.9491 2.20999 54.8391 2.30999 55.7391 2.43999C55.7691 2.44999 55.7891 2.44999 55.8191 2.44999C56.6891 2.58999 57.5591 2.74999 58.4391 2.93999C58.8891 3.02999 59.3391 3.13999 59.7891 3.24999C60.2391 3.36999 60.6891 3.48999 61.1391 3.60999C52.1891 1.02999 43.0791 1.33999 35.5491 5.98999ZM80.3791 13.57C81.1591 14.17 81.9191 14.79 82.6691 15.43C81.9191 14.79 81.1591 14.16 80.3791 13.57ZM90.5591 23.55H90.5491C90.6891 23.72 90.8191 23.88 90.9491 24.05C90.8191 23.88 90.6891 23.72 90.5591 23.55ZM96.1891 56.51C96.4191 55.81 96.6191 55.1 96.7791 54.38C96.6091 55.1 96.4091 55.81 96.1891 56.51ZM96.8091 33.61C96.6691 33.29 96.5191 32.98 96.3691 32.66C96.3491 32.63 96.3291 32.59 96.3191 32.55C96.1791 32.27 96.0391 31.99 95.8891 31.72C96.3691 32.66 96.8191 33.61 97.2191 34.56C97.0891 34.24 96.9491 33.93 96.8091 33.61ZM98.3191 37.52C98.1991 37.17 98.0891 36.82 97.9591 36.47C98.1791 37.11 98.3891 37.75 98.5791 38.39C98.4991 38.1 98.4091 37.81 98.3191 37.52ZM99.3791 41.77H99.3691C99.3791 41.83 99.3891 41.91 99.4091 41.98C99.3991 41.91 99.3891 41.84 99.3791 41.77ZM99.6291 55.16C99.6391 55.09 99.6491 55.01 99.6591 54.93C99.6891 54.66 99.7091 54.38 99.7391 54.1C99.6991 54.46 99.6691 54.81 99.6291 55.16ZM99.7591 53.83C99.7791 53.65 99.7991 53.47 99.8091 53.29C99.8191 53.17 99.8291 53.05 99.8291 52.92C99.8091 53.23 99.7791 53.53 99.7591 53.83ZM99.6891 44.18C99.6591 43.86 99.6291 43.54 99.5891 43.22C99.5791 43.07 99.5591 42.92 99.5291 42.78C99.5091 42.61 99.4891 42.43 99.4491 42.25C99.4691 42.37 99.4791 42.49 99.4991 42.6C99.5691 43.13 99.6291 43.66 99.6791 44.18C99.8891 46.54 99.9591 48.71 99.9191 50.72C99.9691 48.71 99.8991 46.53 99.6891 44.18ZM32.4291 8.50999C32.3691 8.55999 32.3091 8.61999 32.2491 8.67999C32.2191 8.69999 32.1791 8.73999 32.1491 8.76999C32.1091 8.79999 32.0791 8.82999 32.0391 8.86999L31.8291 9.07999C31.8291 9.07999 31.7991 9.10999 31.7791 9.12999C31.4691 9.44999 31.1591 9.79999 30.8391 10.18C30.9291 10.08 31.0191 9.97999 31.0991 9.88999C31.2291 9.74999 31.3591 9.60999 31.4891 9.46999C31.6191 9.32999 31.7391 9.20999 31.8691 9.07999C32.0791 8.85999 32.2791 8.66999 32.4791 8.46999C32.4591 8.47999 32.4491 8.48999 32.4291 8.50999ZM29.3491 12.05C29.2391 12.19 29.1391 12.32 29.0591 12.47C29.1191 12.38 29.1891 12.28 29.2591 12.19C29.3391 12.07 29.4291 11.95 29.5091 11.84C29.4591 11.91 29.4091 11.98 29.3491 12.05ZM24.2891 29.42C24.2891 29.67 24.2891 29.92 24.3191 30.17C24.3291 30.27 24.3391 30.38 24.3491 30.48C24.3191 30.12 24.2991 29.77 24.2891 29.42Z" fill="#E06232"/>
<path d="M24.2891 29.42C24.2891 29.67 24.2891 29.92 24.3191 30.17C24.3291 30.27 24.3391 30.38 24.3491 30.48C24.3191 30.12 24.2991 29.77 24.2891 29.42ZM24.3991 31.16C24.3991 31.16 24.3891 31.14 24.3891 31.13C24.3991 31.24 24.4091 31.36 24.4191 31.48L24.4491 31.84C24.4591 31.9 24.4691 31.95 24.4791 32.01C24.4491 31.72 24.4191 31.44 24.3991 31.16ZM25.1591 36.17C25.1891 36.33 25.2191 36.49 25.2591 36.65C25.2791 36.75 25.3091 36.85 25.3291 36.95C25.2791 36.68 25.2191 36.43 25.1591 36.17ZM27.8491 14.39C27.8991 14.29 27.9591 14.19 28.0291 14.09C28.0291 14.09 28.0291 14.07 28.0391 14.06C27.9691 14.17 27.9091 14.27 27.8491 14.39ZM29.3491 12.05C29.3491 12.05 29.2891 12.14 29.2591 12.19C29.3391 12.07 29.4291 11.95 29.5091 11.84C29.4591 11.91 29.4091 11.98 29.3491 12.05ZM99.6891 44.18C99.6591 43.86 99.6291 43.54 99.5891 43.22C99.5791 43.07 99.5591 42.92 99.5291 42.78L99.4991 42.6C99.5691 43.13 99.6291 43.66 99.6791 44.18C99.8891 46.54 99.9591 48.71 99.9191 50.72C99.9691 48.71 99.8991 46.53 99.6891 44.18ZM99.7591 53.83C99.7791 53.65 99.7991 53.47 99.8091 53.29C99.8191 53.17 99.8291 53.05 99.8291 52.92C99.8091 53.23 99.7791 53.53 99.7591 53.83ZM99.6291 55.16C99.6391 55.09 99.6491 55.01 99.6591 54.93C99.6891 54.66 99.7091 54.38 99.7391 54.1C99.6991 54.46 99.6691 54.81 99.6291 55.16ZM98.3191 37.52C98.1991 37.17 98.0891 36.82 97.9591 36.47C98.1791 37.11 98.3891 37.75 98.5791 38.39C98.4991 38.1 98.4091 37.81 98.3191 37.52ZM97.4491 47.52C97.4691 48.07 97.4691 48.62 97.4491 49.16C97.4691 48.75 97.4691 48.33 97.4591 47.92C97.4591 47.79 97.4591 47.65 97.4491 47.52ZM96.8091 33.61C96.6691 33.29 96.5191 32.98 96.3691 32.66C96.3491 32.63 96.3291 32.59 96.3191 32.55C96.1791 32.27 96.0391 31.99 95.8891 31.72C96.3691 32.66 96.8191 33.61 97.2191 34.56C97.0891 34.24 96.9491 33.93 96.8091 33.61ZM98.4891 61C98.6691 60.37 98.8391 59.72 98.9891 59.03C98.8291 59.71 98.6591 60.37 98.4891 61ZM92.3891 71.43C90.2291 73.4 88.4391 73.99 88.4391 73.99C86.8991 74.94 85.1891 75.7 83.3691 76.27C82.3691 76.59 81.3391 76.84 80.2791 77.04C77.2691 77.61 74.0091 77.73 70.6291 77.4C69.2391 77.28 67.8191 77.07 66.3991 76.79C62.6191 76.05 58.7491 74.79 54.9591 73.02C51.2591 71.3 47.6491 69.08 44.2591 66.4H44.2491C43.1891 65.56 42.1591 64.68 41.1491 63.75C40.4091 63.07 39.6891 62.37 38.9891 61.64C37.6291 60.25 36.3391 58.77 35.1391 57.2H35.1291C33.9891 55.74 32.9191 54.22 31.9291 52.61C31.5891 52.08 31.2691 51.54 30.9491 50.99C30.4691 50.13 29.9991 49.27 29.5691 48.38C29.0691 47.42 28.6091 46.43 28.1791 45.42C27.0591 42.81 26.2191 40.34 25.6091 38.01C25.5391 37.76 25.4791 37.51 25.4091 37.26C25.4491 37.47 25.5091 37.68 25.5591 37.89C25.5691 37.91 25.5691 37.94 25.5791 37.96C26.1991 40.33 27.0491 42.82 28.1791 45.47C28.5991 46.45 29.0391 47.4 29.5191 48.34C29.9591 49.24 30.4291 50.1 30.8991 50.96C30.9091 50.96 30.9091 50.96 30.9091 50.96C31.2391 51.53 31.5691 52.08 31.9191 52.63C32.8891 54.21 33.9391 55.7 35.0491 57.13H35.0591C36.2791 58.74 37.5991 60.25 38.9791 61.67C39.6891 62.41 40.4091 63.11 41.1591 63.79C42.1191 64.7 43.1091 65.54 44.1191 66.34H44.1291C46.4191 68.18 48.8291 69.79 51.2891 71.18C51.2991 71.18 51.2991 71.19 51.3091 71.19C52.5191 71.87 53.7391 72.5 54.9691 73.07C58.7391 74.83 62.5891 76.09 66.3591 76.82C67.7891 77.11 69.2191 77.31 70.6191 77.44C73.9991 77.77 77.2491 77.65 80.2591 77.08C81.3291 76.88 82.3691 76.62 83.3691 76.31C85.1891 75.74 86.8891 74.98 88.4291 74.03C88.4291 74.03 90.1791 73.45 92.3191 71.52C92.3291 71.52 92.3291 71.52 92.3291 71.52C93.7491 70.24 95.3191 68.37 96.6591 65.69C95.3191 68.31 93.7791 70.16 92.3791 71.43H92.3891ZM90.5591 23.55C90.5591 23.55 90.5091 23.5 90.4891 23.47C90.5091 23.5 90.5291 23.52 90.5491 23.55C90.6891 23.72 90.8191 23.88 90.9491 24.05C90.8191 23.88 90.6891 23.72 90.5591 23.55ZM64.9391 4.84999C64.5291 4.68999 64.1191 4.54999 63.7091 4.40999C63.4291 4.30999 63.1491 4.21999 62.8691 4.12999C62.8591 4.12999 62.8491 4.11999 62.8391 4.11999C62.7191 4.07999 62.5991 4.03999 62.4791 4.00999C63.3391 4.27999 64.1991 4.57999 65.0591 4.89999C65.0191 4.87999 64.9791 4.86999 64.9391 4.84999ZM55.8191 2.44999C56.6891 2.58999 57.5591 2.74999 58.4391 2.93999C57.5691 2.73999 56.6891 2.57999 55.8191 2.44999ZM53.0491 2.13999C53.9491 2.20999 54.8391 2.30999 55.7391 2.43999C54.8391 2.29999 53.9491 2.19999 53.0491 2.13999ZM49.4091 2.04999C50.1591 2.02999 50.9191 2.03999 51.6791 2.05999C50.9191 2.02999 50.1591 2.01999 49.4091 2.04999Z" fill="#FAB66D"/>
<path d="M99.6294 55.16C99.5694 55.72 99.4994 56.26 99.4094 56.78C99.3394 57.25 99.2594 57.71 99.1694 58.15C99.1194 58.45 99.0594 58.74 98.9894 59.03C98.8294 59.71 98.6594 60.37 98.4894 61C98.4894 61.03 98.4794 61.06 98.4594 61.09C98.3594 61.42 98.2694 61.74 98.1594 62.06C98.0594 62.35 97.9594 62.64 97.8594 62.92C97.7594 63.18 97.6694 63.44 97.5694 63.69C97.3694 64.19 97.1594 64.66 96.9494 65.11C96.9494 65.12 96.9494 65.13 96.9394 65.14C96.8494 65.33 96.7594 65.51 96.6694 65.69C95.3294 68.31 93.7894 70.16 92.3894 71.43C90.2294 73.4 88.4394 73.99 88.4394 73.99C86.8994 74.94 85.1894 75.7 83.3694 76.27C82.3694 76.59 81.3394 76.84 80.2794 77.04C77.2694 77.61 74.0094 77.73 70.6294 77.4C69.2394 77.28 67.8194 77.07 66.3994 76.79C62.6194 76.05 58.7494 74.79 54.9594 73.02C51.2594 71.3 47.6494 69.08 44.2594 66.4H44.2494C43.1894 65.56 42.1594 64.68 41.1494 63.75C40.4094 63.07 39.6894 62.37 38.9894 61.64C37.6294 60.25 36.3394 58.77 35.1394 57.2H35.1294C33.9894 55.74 32.9194 54.22 31.9294 52.61C31.5894 52.08 31.2694 51.54 30.9494 50.99C30.4694 50.13 29.9994 49.27 29.5694 48.38C29.0694 47.42 28.6094 46.43 28.1794 45.42C27.0594 42.81 26.2194 40.34 25.6094 38.01C28.0494 42.49 29.1494 45.78 29.5094 44C30.0194 41.5 29.3894 38.52 30.0494 35.05C30.0194 34.87 29.9894 34.69 29.9694 34.51C30.2894 36.65 30.7794 38.96 31.4994 41.42C32.1494 43.64 33.0394 45.8 34.1294 47.86C34.4994 48.56 34.8894 49.24 35.3094 49.91C43.4694 63.24 60.0794 72.44 74.0694 72.56C79.2394 72.6 83.7394 71.12 87.3794 68.58C89.5894 69.67 91.9094 67.99 94.0094 65.27C96.2594 62.38 98.2594 58.3 99.6294 55.16Z" fill="#FAB66D"/>
<path d="M97.4107 46.67C97.3507 45.8 97.2507 44.92 97.1107 44.05C97.0207 43.46 96.9007 42.88 96.7707 42.29C96.7007 42 96.6307 41.71 96.5507 41.42C96.4207 40.94 96.2807 40.46 96.1407 39.98C95.6907 38.52 95.1407 37.04 94.4907 35.54C94.2707 35.04 94.0507 34.54 93.8107 34.04C93.1007 32.54 92.2807 31.03 91.3807 29.53C84.1307 17.55 70.7907 6.30999 52.6907 4.92999C52.6907 4.92999 43.0907 4.52999 36.2507 10.43C35.0507 11.46 33.9307 12.68 32.9707 14.14C32.9707 14.14 29.7607 18.72 29.5307 27.46C29.5107 28.22 29.5107 29.02 29.5507 29.85C29.5507 30.09 29.5607 30.33 29.5807 30.58C29.5907 30.84 29.6007 31.11 29.6307 31.39C29.6507 31.73 29.6807 32.09 29.7207 32.44C29.7807 33.11 29.8607 33.8 29.9707 34.51C30.2907 36.65 30.7807 38.96 31.5007 41.42C32.1507 43.64 33.0407 45.8 34.1307 47.86C34.5007 48.56 34.8907 49.24 35.3107 49.91C43.4707 63.24 60.0807 72.44 74.0707 72.56C79.2407 72.6 83.7407 71.12 87.3807 68.58C87.7807 68.3 88.1607 68.01 88.5307 67.72C88.7207 67.57 88.9107 67.41 89.0907 67.26C89.4607 66.95 89.8207 66.62 90.1607 66.29C90.3407 66.11 90.5207 65.94 90.6907 65.76C91.0207 65.42 91.3307 65.07 91.6407 64.71C91.7907 64.53 91.9507 64.35 92.1007 64.16C92.2507 63.97 92.3907 63.78 92.5407 63.59C92.6507 63.44 92.7607 63.29 92.8707 63.14C92.9007 63.09 92.9307 63.05 92.9607 63.01C93.1007 62.81 93.2307 62.61 93.3707 62.41C93.6307 62.01 93.8807 61.6 94.1207 61.18C94.3607 60.76 94.5907 60.33 94.8107 59.9C94.9207 59.68 95.0207 59.46 95.1207 59.24C95.3207 58.8 95.5207 58.35 95.6907 57.9C95.7807 57.67 95.8607 57.45 95.9407 57.22C96.0307 56.98 96.1107 56.75 96.1907 56.51C96.4107 55.81 96.6107 55.1 96.7807 54.38C96.8307 54.15 96.8807 53.93 96.9307 53.71C97.0307 53.2 97.1207 52.69 97.1907 52.17C97.2207 51.96 97.2507 51.74 97.2807 51.52C97.2907 51.45 97.3007 51.38 97.3007 51.31C97.3507 50.9 97.3807 50.49 97.4107 50.07C97.4107 50 97.4107 49.93 97.4107 49.86C97.4207 49.63 97.4307 49.4 97.4407 49.16C97.4607 48.62 97.4607 48.07 97.4407 47.52C97.4307 47.23 97.4107 46.95 97.4007 46.67H97.4107ZM42.1507 15.37C44.5307 13.3 48.3907 11.8 53.0607 11.68C55.4407 11.62 58.4107 11.92 61.5907 12.57C65.3707 13.34 69.4607 14.61 73.2307 16.35C77.7207 18.43 81.7507 21.19 84.2707 24.59C84.8407 25.36 83.9507 26.37 83.1107 25.91C80.7807 24.64 77.3407 23.1 73.7507 22.71C72.4607 22.57 71.4307 23.82 71.8507 25.05C72.1507 25.95 72.6907 27.04 73.6107 28.19C73.7907 28.41 73.5307 28.73 73.2707 28.6C70.6707 27.27 64.8507 24.6 59.4207 24.19C58.3407 24.1 57.2807 24.11 56.2607 24.23C55.1507 24.37 54.1007 24.54 53.1107 24.73C50.7707 25.16 48.7707 25.64 47.0207 25.81C46.9507 25.82 46.8807 25.82 46.8107 25.83C44.1307 26.07 42.0707 25.51 40.3507 22.79C38.7907 20.33 39.6507 17.53 42.1507 15.37ZM73.4407 42.82C73.2807 43.12 73.0907 43.4 72.8507 43.65C70.5207 46.1 65.1407 44.78 60.8407 40.7C56.5407 36.62 54.9507 31.32 57.2807 28.86C57.3707 28.76 57.4707 28.67 57.5707 28.59C60.0407 26.52 65.1607 27.89 69.2907 31.81C73.1607 35.48 74.8307 40.13 73.4407 42.82ZM54.8407 59.02C49.5507 56.59 44.0507 51.62 40.1907 45.91C39.7707 45.29 39.3807 44.67 39.0107 44.03C38.4107 43.04 37.8707 42.03 37.4007 41.01C36.5307 39.17 35.8707 37.31 35.4807 35.48C35.3307 34.77 35.2007 34.08 35.1007 33.43C34.8007 31.49 34.7107 29.81 34.7607 28.4C34.8107 26.91 35.0107 25.71 35.2407 24.76C35.5407 23.53 37.1007 23.14 37.9307 24.1C39.5507 25.97 42.2607 28.61 45.4507 29.76C46.2207 30.04 47.0107 30.23 47.8207 30.31C49.0807 30.42 50.0907 31.39 50.3107 32.63C50.7307 34.92 51.7007 38.5 53.9107 41.76C55.4407 44.02 57.5707 46.13 60.5107 47.57C62.1007 48.34 63.2507 49.26 64.0207 50.24C68.1407 55.4 61.9007 62.27 54.8407 59.02ZM89.7407 59.13C88.9707 60.04 88.0907 60.88 87.1207 61.64C84.0207 64.07 80.0007 65.72 75.2207 66.28C72.4907 66.61 69.5007 66.58 66.3107 66.13C65.5507 66.02 65.2707 65.07 65.8507 64.58C68.4307 62.41 73.4007 57.92 72.9107 55.84C72.5507 54.29 71.1207 52.91 69.9207 51.99C69.2807 51.49 69.4507 50.49 70.2207 50.24C72.2307 49.59 75.2907 48.38 77.3507 46.48C77.4207 46.42 77.4907 46.36 77.5507 46.3C78.5907 45.29 79.3407 44.1 79.5207 42.71C79.9307 39.52 78.6607 35.81 77.1707 33.01C76.7407 32.22 76.3007 31.5 75.8707 30.88C75.1907 29.91 75.9107 28.59 77.1007 28.64C82.0207 28.85 91.0507 30.78 93.5807 41.78C95.1307 48.48 93.6207 54.64 89.7407 59.13Z" fill="#E06232"/>
<path d="M99.9198 50.72C99.9198 51.15 99.8898 51.57 99.8798 51.98C99.8598 52.3 99.8498 52.61 99.8298 52.92C99.8098 53.23 99.7798 53.53 99.7598 53.83V53.86C99.7498 53.94 99.7398 54.02 99.7398 54.1C99.6998 54.46 99.6698 54.81 99.6298 55.16C98.2598 58.3 96.2598 62.38 94.0098 65.27C91.9098 67.99 89.5898 69.67 87.3798 68.58C87.7698 68.32 88.1598 68.03 88.5298 67.72C88.7198 67.59 88.9098 67.43 89.0898 67.26C89.4598 66.96 89.8198 66.64 90.1598 66.29C90.3398 66.11 90.5198 65.94 90.6898 65.76C91.0298 65.42 91.3498 65.07 91.6398 64.71C91.8098 64.53 91.9598 64.35 92.0998 64.16C92.2498 63.97 92.3898 63.78 92.5398 63.59C92.6498 63.44 92.7598 63.29 92.8698 63.14C92.8998 63.09 92.9298 63.05 92.9598 63.01C93.0998 62.81 93.2298 62.61 93.3698 62.41C93.6398 62.01 93.8898 61.6 94.1198 61.18C94.3698 60.76 94.5998 60.34 94.8098 59.9C94.9198 59.68 95.0198 59.46 95.1198 59.24C95.3198 58.8 95.5198 58.35 95.6898 57.9C95.7898 57.68 95.8698 57.45 95.9398 57.22C96.0298 56.98 96.1098 56.75 96.1898 56.51C96.4198 55.81 96.6198 55.1 96.7798 54.38C96.8298 54.15 96.8798 53.93 96.9298 53.71C97.0298 53.2 97.1198 52.69 97.1898 52.17C97.2198 51.96 97.2498 51.74 97.2798 51.52C97.2898 51.45 97.2998 51.38 97.2998 51.31C97.3598 50.9 97.3898 50.49 97.4098 50.07C97.4098 50 97.4098 49.93 97.4098 49.86C97.4198 49.63 97.4298 49.4 97.4398 49.16C97.4598 48.75 97.4598 48.33 97.4498 47.92C97.4498 47.79 97.4498 47.65 97.4398 47.52C97.4398 47.39 97.4398 47.28 97.4298 47.16C97.4198 47 97.4098 46.83 97.3998 46.67C97.3398 45.8 97.2398 44.92 97.0998 44.05C97.0098 43.46 96.8898 42.88 96.7598 42.29C96.6898 42 96.6198 41.71 96.5398 41.42C96.4098 40.94 96.2698 40.46 96.1298 39.98C95.6798 38.52 95.1298 37.04 94.4798 35.54C94.2598 35.04 94.0398 34.54 93.7998 34.04C93.0898 32.54 92.2698 31.03 91.3698 29.53C84.1198 17.55 70.7798 6.30999 52.6798 4.92999C52.6798 4.92999 43.0798 4.52999 36.2398 10.43C35.0398 11.46 33.9198 12.68 32.9598 14.14C32.9598 14.14 29.7498 18.72 29.5198 27.46C29.4998 28.22 29.4998 29.02 29.5398 29.85C29.5398 30.09 29.5498 30.33 29.5698 30.58C29.5798 30.84 29.5898 31.11 29.6198 31.39C29.6398 31.73 29.6698 32.09 29.7098 32.44C29.7698 33.11 29.8498 33.8 29.9598 34.51C29.9798 34.69 30.0098 34.87 30.0398 35.05C29.3798 38.52 30.0098 41.5 29.4998 44C29.1398 45.78 28.0398 42.49 25.5998 38.01C25.5298 37.76 25.4698 37.51 25.3998 37.26C25.3698 37.15 25.3498 37.05 25.3198 36.95C25.2698 36.68 25.2098 36.43 25.1498 36.17C25.0898 35.94 25.0498 35.72 25.0098 35.5C24.9898 35.41 24.9698 35.32 24.9598 35.23C24.8998 34.93 24.8498 34.64 24.7898 34.35C24.7398 34.06 24.6898 33.77 24.6598 33.49C24.6098 33.2 24.5698 32.91 24.5398 32.63C24.5098 32.47 24.4998 32.31 24.4798 32.15C24.4698 32.12 24.4698 32.09 24.4698 32.06C24.4698 32.04 24.4698 32.03 24.4698 32.01C24.4398 31.72 24.4098 31.44 24.3898 31.16C24.3798 31.16 24.3798 31.14 24.3798 31.13C24.3598 30.93 24.3498 30.74 24.3398 30.55V30.48C24.3098 30.12 24.2898 29.77 24.2798 29.42C24.2698 29.07 24.2598 28.73 24.2598 28.39C24.2598 27.77 24.2698 27.16 24.3098 26.58C24.3298 26.21 24.3498 25.85 24.3898 25.5C24.4398 24.94 24.5098 24.39 24.5898 23.86C24.6498 23.44 24.7198 23.03 24.7998 22.63C24.8998 22.08 25.0198 21.54 25.1598 21.02C25.1798 20.93 25.2098 20.83 25.2298 20.74C25.2998 20.45 25.3798 20.17 25.4698 19.89C25.6098 19.43 25.7598 18.98 25.9198 18.54C25.9898 18.33 26.0698 18.12 26.1498 17.92C26.3298 17.46 26.5198 17.01 26.7198 16.57C26.8298 16.31 26.9498 16.06 27.0798 15.82C27.1698 15.63 27.2598 15.44 27.3598 15.26C27.3698 15.24 27.3698 15.23 27.3798 15.22C27.4698 15.05 27.5598 14.88 27.6498 14.72C27.7098 14.61 27.7698 14.5 27.8398 14.39C27.8898 14.29 27.9498 14.19 28.0198 14.09C28.0198 14.09 28.0198 14.07 28.0298 14.06C28.0298 14.05 28.0498 14.03 28.0498 14.02C28.0898 13.95 28.1398 13.88 28.1798 13.81C28.2198 13.73 28.2698 13.67 28.3098 13.6C28.4298 13.4 28.5598 13.2 28.6898 13.01C28.8098 12.83 28.9298 12.65 29.0498 12.47C29.1098 12.38 29.1798 12.28 29.2498 12.19C29.3298 12.07 29.4198 11.95 29.4998 11.84C29.7298 11.53 29.9498 11.25 30.1698 10.97C30.3698 10.72 30.5698 10.48 30.7698 10.25C30.7898 10.23 30.8198 10.2 30.8298 10.18C30.9198 10.08 31.0098 9.97999 31.0898 9.88999C31.2198 9.74999 31.3498 9.60999 31.4798 9.46999C31.6098 9.32999 31.7298 9.21 31.8598 9.08C32.0698 8.86 32.2698 8.66999 32.4698 8.46999C32.4798 8.46999 32.4998 8.45 32.5098 8.43999C32.5098 8.43999 32.5598 8.37999 32.5898 8.35999C32.6398 8.31999 32.6898 8.26999 32.7298 8.22999C32.7598 8.19999 32.7898 8.18 32.8198 8.14999C32.9298 8.05999 33.0298 7.95999 33.1298 7.87999H33.1398L33.1498 7.87C34.5498 6.63 35.5398 6.04 35.5398 6.04C35.9498 5.79 36.3698 5.54999 36.7898 5.31999C37.0098 5.19999 37.2398 5.07999 37.4698 4.96999C37.7598 4.81999 38.0498 4.67999 38.3398 4.54999C38.8598 4.30999 39.3898 4.08999 39.9198 3.87999C40.5198 3.65999 41.1298 3.44999 41.7498 3.25999C42.3698 3.07999 42.9898 2.90999 43.6198 2.76999C44.2398 2.62999 44.8798 2.50999 45.5198 2.40999C45.8398 2.35999 46.1598 2.30999 46.4798 2.26999C47.1198 2.18999 47.7698 2.12999 48.4198 2.08999C48.7498 2.06999 49.0698 2.05999 49.3998 2.04999C50.1498 2.02999 50.9098 2.03999 51.6698 2.05999C52.1298 2.07999 52.5798 2.10999 53.0398 2.13999C53.9398 2.20999 54.8298 2.30999 55.7298 2.43999C55.7598 2.44999 55.7798 2.44999 55.8098 2.44999C56.6798 2.58999 57.5498 2.74999 58.4298 2.93999C58.8798 3.02999 59.3298 3.13999 59.7798 3.24999C60.2298 3.36999 60.6798 3.48999 61.1298 3.60999C61.5798 3.73999 62.0298 3.86999 62.4698 4.00999C63.3298 4.27999 64.1898 4.57999 65.0498 4.89999C65.8698 5.20999 66.6898 5.53999 67.4998 5.89999C67.7598 6.00999 68.0098 6.12 68.2598 6.24C68.3198 6.25999 68.3698 6.27999 68.4198 6.31C68.7698 6.47 69.1198 6.62999 69.4698 6.79999C69.4998 6.81 69.5398 6.81999 69.5698 6.83999C69.7998 6.95 70.0398 7.06999 70.2698 7.18999C70.3898 7.24999 70.5198 7.31 70.6398 7.37C70.7598 7.44 70.8798 7.49999 71.0098 7.56999C71.1498 7.64 71.2998 7.72 71.4398 7.79C71.8798 8.02 72.3198 8.26 72.7498 8.51L73.6798 9.05C74.3398 9.42 74.9898 9.81999 75.6198 10.23C76.0098 10.47 76.3898 10.72 76.7698 10.98C77.1798 11.25 77.5798 11.53 77.9898 11.81C78.7898 12.38 79.5898 12.97 80.3698 13.57C81.1498 14.17 81.9098 14.79 82.6598 15.43C85.2798 17.67 87.6898 20.1 89.8398 22.68C90.0498 22.94 90.2698 23.21 90.4798 23.47C90.4998 23.5 90.5198 23.52 90.5398 23.55C90.6798 23.72 90.8098 23.88 90.9398 24.05C91.0398 24.17 91.1298 24.3 91.2298 24.42C91.4498 24.71 91.6798 25.01 91.8898 25.31C92.1098 25.61 92.3298 25.91 92.5298 26.21C92.9498 26.81 93.3598 27.41 93.7498 28.02C93.9798 28.38 94.1998 28.74 94.4198 29.11C94.5498 29.33 94.6698 29.54 94.7998 29.76C95.0098 30.1 95.1998 30.45 95.3898 30.79C95.5598 31.1 95.7198 31.41 95.8798 31.72C96.3598 32.66 96.8098 33.61 97.2098 34.56C97.4698 35.2 97.7198 35.84 97.9498 36.47C98.1698 37.11 98.3798 37.75 98.5698 38.39C98.7598 39.04 98.9298 39.68 99.0698 40.32C99.1098 40.49 99.1398 40.66 99.1798 40.83C99.1998 40.93 99.2198 41.02 99.2398 41.12C99.2698 41.28 99.2998 41.45 99.3298 41.61C99.3398 41.66 99.3498 41.71 99.3598 41.76C99.3698 41.83 99.3798 41.91 99.3998 41.98C99.3998 42.05 99.4198 42.12 99.4298 42.19C99.4298 42.21 99.4298 42.23 99.4398 42.25C99.4598 42.37 99.4698 42.49 99.4898 42.6C99.5598 43.13 99.6198 43.66 99.6698 44.18C99.8798 46.54 99.9498 48.71 99.9098 50.72H99.9198Z" fill="#F9E7D8"/>
<path d="M24.4804 32.01C24.4804 31.95 24.4604 31.9 24.4504 31.84L24.4204 31.48C24.4204 31.37 24.4004 31.27 24.4004 31.16C24.4204 31.44 24.4504 31.72 24.4804 32.01Z" fill="#F9E7D8"/>
<path d="M25.3302 36.95C25.3102 36.85 25.2802 36.75 25.2602 36.65C25.2202 36.49 25.1902 36.33 25.1602 36.17C25.2202 36.43 25.2802 36.68 25.3302 36.95Z" fill="#F9E7D8"/>
<path d="M25.5802 37.97C25.5802 37.97 25.5702 37.91 25.5602 37.89C25.5102 37.68 25.4502 37.47 25.4102 37.26C25.4802 37.51 25.5402 37.76 25.6102 38.01C25.6102 38 25.5902 37.98 25.5802 37.97Z" fill="#F9E7D8"/>
<path d="M96.7795 54.38C96.6195 55.1 96.4195 55.81 96.1895 56.51C96.4095 55.81 96.6095 55.1 96.7795 54.38Z" fill="#F9E7D8"/>
<path d="M69.2899 31.81C65.1599 27.89 60.0399 26.52 57.5699 28.59C57.4699 28.67 57.3699 28.76 57.2799 28.86C54.9499 31.32 56.5399 36.62 60.8399 40.7C65.1399 44.78 70.5199 46.1 72.8499 43.65C73.0899 43.4 73.2799 43.12 73.4399 42.82C74.8299 40.13 73.1599 35.48 69.2899 31.81ZM70.0199 39.69C69.9399 39.9 69.8199 40.1 69.6599 40.26C68.3899 41.59 65.3899 40.79 62.9599 38.48C60.5199 36.17 59.5699 33.21 60.8399 31.88C60.9099 31.8 60.9899 31.73 61.0699 31.67C62.4399 30.65 65.2399 31.47 67.5399 33.65C69.6699 35.68 70.6599 38.2 70.0199 39.69Z" fill="#F9E7D8"/>
<path d="M70.0207 39.69C69.9407 39.9 69.8207 40.1 69.6607 40.26C68.3907 41.59 65.3907 40.79 62.9607 38.48C60.5207 36.17 59.5707 33.21 60.8407 31.88C60.9107 31.8 60.9907 31.73 61.0707 31.67C62.4407 30.65 65.2407 31.47 67.5407 33.65C69.6707 35.68 70.6607 38.2 70.0207 39.69Z" fill="#FAB66D"/>
<path d="M89.7389 59.13C88.9689 60.04 88.0889 60.88 87.1189 61.64C84.1689 57.61 79.9489 55.7 77.1389 57.32C74.7089 58.72 74.0489 62.36 75.2189 66.28C72.4889 66.61 69.4989 66.58 66.3089 66.13C65.5489 66.02 65.2689 65.07 65.8489 64.58C68.4289 62.41 73.3989 57.92 72.9089 55.84C72.5489 54.29 71.1189 52.91 69.9189 51.99C69.2789 51.49 69.4489 50.49 70.2189 50.24C72.2289 49.59 75.2889 48.38 77.3489 46.48C77.4189 46.42 77.4889 46.36 77.5489 46.3C83.1589 47.51 88.2989 45.72 89.1089 42.23C89.9289 38.69 85.9689 34.75 80.2689 33.42C79.2089 33.18 78.1689 33.04 77.1689 33.01C76.7389 32.22 76.2989 31.5 75.8689 30.88C75.1889 29.91 75.9089 28.59 77.0989 28.64C82.0189 28.85 91.0489 30.78 93.5789 41.78C95.1289 48.48 93.6189 54.64 89.7389 59.13Z" fill="#B64826"/>
<path d="M87.1193 61.64C84.0193 64.07 79.9992 65.72 75.2192 66.28C74.0492 62.36 74.7093 58.72 77.1393 57.32C79.9493 55.7 84.1693 57.61 87.1193 61.64Z" fill="#B64826"/>
<path d="M89.108 42.23C88.298 45.72 83.158 47.51 77.548 46.3C78.588 45.29 79.338 44.1 79.518 42.71C79.928 39.52 78.658 35.81 77.168 33.01C78.168 33.04 79.208 33.18 80.268 33.42C85.968 34.75 89.928 38.69 89.108 42.23Z" fill="#B64826"/>
<path d="M89.108 42.23C88.298 45.72 83.158 47.51 77.548 46.3C78.588 45.29 79.338 44.1 79.518 42.71C79.928 39.52 78.658 35.81 77.168 33.01C78.168 33.04 79.208 33.18 80.268 33.42C85.968 34.75 89.928 38.69 89.108 42.23Z" fill="#C45128"/>
<path d="M87.1193 61.64C84.0193 64.07 79.9992 65.72 75.2192 66.28C74.0492 62.36 74.7093 58.72 77.1393 57.32C79.9493 55.7 84.1693 57.61 87.1193 61.64Z" fill="#C45128"/>
<path d="M83.109 25.91C80.779 24.64 77.339 23.1 73.749 22.71C72.459 22.57 71.429 23.82 71.849 25.05C72.149 25.95 72.689 27.04 73.609 28.19C73.789 28.41 73.529 28.73 73.269 28.6C70.669 27.27 64.849 24.6 59.419 24.19C58.129 20.44 55.309 17.94 52.359 18.28C50.819 18.46 49.489 19.38 48.519 20.78C47.589 22.11 46.979 23.86 46.809 25.83C44.129 26.07 42.069 25.51 40.349 22.79C38.789 20.33 39.649 17.53 42.149 15.37C44.529 13.3 48.389 11.8 53.059 11.68C55.439 11.62 58.409 11.92 61.589 12.57C61.939 15.77 63.629 18.37 66.189 19.12C68.649 19.84 71.299 18.68 73.229 16.35C77.719 18.43 81.749 21.19 84.269 24.59C84.839 25.36 83.949 26.37 83.109 25.91Z" fill="#B64826"/>
<path d="M73.2298 16.35C71.2998 18.68 68.6498 19.84 66.1898 19.12C63.6298 18.37 61.9398 15.77 61.5898 12.57C65.3698 13.34 69.4598 14.61 73.2298 16.35Z" fill="#B64826"/>
<path d="M73.2298 16.35C71.2998 18.68 68.6498 19.84 66.1898 19.12C63.6298 18.37 61.9398 15.77 61.5898 12.57C65.3698 13.34 69.4598 14.61 73.2298 16.35Z" fill="#C45128"/>
<path d="M59.4205 24.19C58.3405 24.1 57.2805 24.11 56.2605 24.23C55.1505 24.37 54.1005 24.54 53.1105 24.73C50.7705 25.16 48.7705 25.64 47.0205 25.81C46.9505 25.82 46.8805 25.82 46.8105 25.83C46.9805 23.86 47.5905 22.11 48.5205 20.78C49.4905 19.38 50.8205 18.46 52.3605 18.28C55.3105 17.94 58.1305 20.44 59.4205 24.19Z" fill="#C45128"/>
<path d="M64.0201 50.24C61.3601 52.45 57.8901 52.95 55.4401 51.23C52.7101 49.32 52.1501 45.3 53.9101 41.76C55.4401 44.02 57.5701 46.13 60.5101 47.57C62.1001 48.34 63.2501 49.26 64.0201 50.24Z" fill="#B64826"/>
<path d="M42.2896 43.67C41.6696 44.55 40.9596 45.3 40.1896 45.91C39.7696 45.29 39.3796 44.67 39.0096 44.03C38.4096 43.04 37.8696 42.03 37.3996 41.01C36.5296 39.17 35.8696 37.31 35.4796 35.48C35.3296 34.77 35.1996 34.08 35.0996 33.43C36.3796 32.66 37.7396 32.24 39.0196 32.24C40.0896 32.24 41.1096 32.53 41.9696 33.14C42.5596 33.56 43.0296 34.09 43.3796 34.7C44.7696 37.05 44.4196 40.65 42.2896 43.67Z" fill="#C45128"/>
<path d="M64.0201 50.24C61.3601 52.45 57.8901 52.95 55.4401 51.23C52.7101 49.32 52.1501 45.3 53.9101 41.76C55.4401 44.02 57.5701 46.13 60.5101 47.57C62.1001 48.34 63.2501 49.26 64.0201 50.24Z" fill="#C45128"/>
</svg>
