<?xml version="1.0" encoding="UTF-8"?>
<svg id="Layer_2" data-name="Layer 2" xmlns="http://www.w3.org/2000/svg" viewBox="0 0 624.79 794.14">
  <defs>
    <style>
      .cls-1 {
        opacity: .08;
      }

      .cls-1, .cls-2, .cls-3 {
        fill: #fff;
      }

      .cls-2 {
        opacity: .48;
      }

      .cls-3 {
        opacity: .32;
      }

      .cls-4 {
        fill: #b77165;
      }

      .cls-5 {
        fill: #c1766c;
      }

      .cls-6 {
        fill: #a46659;
      }

      .cls-7 {
        fill: #995e55;
      }

      .cls-8 {
        fill: #7f4e46;
      }
    </style>
  </defs>
  <g id="Layer_1-2" data-name="Layer 1">
    <g>
      <path class="cls-7" d="M509.4,128.11C504.57,47.33,418.22,0,312.4,0S120.22,47.33,115.39,128.11l-.22,276.36h67.79v-224.56h.15c1.01-108.5,59.84-128.99,129.29-128.99s129.9,24.69,129.29,128.99h.15v224.56h67.79V128.11h-.22Z"/>
      <g>
        <path class="cls-8" d="M284.59,50.91c-69.45,0-128.28,20.48-129.29,128.99h-.15v224.56h27.8v-224.56h.15c.94-100.9,51.89-125.68,114.88-128.66-4.41-.22-8.88-.33-13.39-.33Z"/>
        <path class="cls-8" d="M509.4,128.11C504.57,47.33,418.22,0,312.4,0c-4.67,0-9.31.1-13.9.28,99.39,3.97,178.49,50.62,183.1,127.83h.22v276.36h27.8V128.11h-.22Z"/>
      </g>
      <path class="cls-3" d="M143.8,109c4.34-.46,7-3.83,8.95-6.86,9.86-15.35,18.15-31.88,34.02-43.85,7.79-5.88,17.09-10.39,26.38-14.77,4.11-1.94,8.75-4.53,8.7-8.24-.05-3.58-4.86-6.25-9.49-6.39-4.63-.14-8.99,1.57-13,3.37-20.79,9.34-38.44,22.39-51.85,37.78-5.07,5.82-27.62,41.49-3.7,38.96Z"/>
      <path class="cls-3" d="M236.72,30.79c4.87,1.36,10.44.57,15.61-.23,5.48-.85,10.95-1.69,16.43-2.54,3.37-.52,6.81-1.06,9.74-2.32,2.93-1.26,5.3-3.39,5.26-5.73-.03-2.18-2.17-4.14-4.89-5.27-2.73-1.13-5.97-1.53-9.17-1.73-9.47-.57-23,.34-30.94,4.47-6.09,3.17-11.72,10.65-2.04,13.34Z"/>
      <path class="cls-6" d="M517.19,285.92l-409.6-.96S8,346.46,8.88,512.45c.72,135.1,45.67,216.46,167.96,257.45,85.88,28.79,185.22,29.76,271.1.97,122.29-41,167.25-122.35,167.96-257.45.88-165.99-98.72-227.5-98.72-227.5Z"/>
      <path class="cls-8" d="M447.95,755.74c-85.88,28.79-185.22,27.83-271.1-.96C56.75,714.51,11.24,635.33,8.97,504.55c-.06,3.32-.1,6.66-.09,10.06.72,135.1,45.67,216.46,167.96,257.45,85.88,28.79,185.22,29.76,271.1.96,122.29-41,167.25-122.35,167.96-257.45.02-3.4-.02-6.75-.09-10.06-2.28,130.78-47.79,209.97-167.88,250.23Z"/>
      <g>
        <path class="cls-8" d="M341.17,591.93c10-6.89,16.57-18.43,16.57-31.5,0-21.11-17.12-38.23-38.23-38.23s-38.23,17.12-38.23,38.23c0,13.07,6.56,24.6,16.57,31.5l-13.85,60.4c-1.39,6.07,3.22,11.87,9.45,11.87h52.11c6.23,0,10.85-5.79,9.45-11.87l-13.85-60.4Z"/>
        <path class="cls-6" d="M342.42,558.31c0,12.66-10.26,22.92-22.92,22.92s-22.92-10.26-22.92-22.92,10.26-22.92,22.92-22.92,22.92,10.26,22.92,22.92Z"/>
      </g>
      <path class="cls-8" d="M47.1,590.44c4.93,24.32,13.12,48.81,29.66,67.31,16.53,18.5,42.89,29.82,66.74,22.98,20.52-5.89,36.38-25.41,37.92-46.71,1.06-14.67-4.72-30.13-16.46-39s-29.44-9.83-41.04-.78c-7.39,5.77-11.87,15.9-9.02,24.84,2.84,8.94,14.25,14.71,22.4,10.06-10.79,11.33-31.04,7.34-41.64-4.17-10.6-11.51-13.95-27.77-16.39-43.23-2.08-13.16-3.8-26.49-2.66-39.76,1.82-21.14,11.15-41.56,25.95-56.77,7.74-7.96,17.83-18.03,13.34-28.18-1.46-3.31-4.31-5.79-7.32-7.8-23.43-15.66-58.42-5.46-63.04,22.8-6.43,39.34-6.39,79.27,1.54,118.42Z"/>
      <path class="cls-8" d="M590.19,590.44c-4.93,24.32-13.12,48.81-29.66,67.31-16.53,18.5-42.89,29.82-66.75,22.98-20.52-5.89-36.37-25.41-37.92-46.71-1.06-14.67,4.72-30.13,16.46-39,11.74-8.87,29.44-9.83,41.04-.78,7.39,5.77,11.87,15.9,9.02,24.84-2.84,8.94-14.25,14.71-22.4,10.06,10.79,11.33,31.04,7.34,41.64-4.17,10.6-11.51,13.95-27.77,16.39-43.23,2.08-13.16,3.8-26.49,2.66-39.76-1.82-21.14-11.15-41.56-25.95-56.77-7.74-7.96-17.83-18.03-13.34-28.18,1.46-3.31,4.31-5.79,7.32-7.8,23.43-15.66,58.42-5.46,63.04,22.8,6.43,39.34,6.39,79.27-1.54,118.42Z"/>
      <path class="cls-4" d="M583.16,590.44c-4.93,24.32-13.12,48.81-29.66,67.31-16.53,18.5-42.89,29.82-66.75,22.98-20.52-5.89-36.38-25.41-37.92-46.71-1.06-14.67,4.72-30.13,16.46-39s29.44-9.83,41.04-.78c7.4,5.77,11.87,15.9,9.02,24.84-2.84,8.94-14.25,14.71-22.4,10.06,10.79,11.33,31.04,7.34,41.64-4.17,10.6-11.51,13.95-27.77,16.39-43.23,2.08-13.16,3.8-26.49,2.66-39.76-1.82-21.14-11.15-41.56-25.95-56.77-7.74-7.96-17.83-18.03-13.34-28.18,1.46-3.31,4.31-5.79,7.32-7.8,23.43-15.66,58.42-5.46,63.04,22.8,6.43,39.34,6.39,79.27-1.54,118.42Z"/>
      <path class="cls-4" d="M40.06,590.44c4.93,24.32,13.12,48.81,29.66,67.31,16.53,18.5,42.89,29.82,66.75,22.98,20.52-5.89,36.37-25.41,37.92-46.71,1.06-14.67-4.72-30.13-16.46-39-11.74-8.87-29.44-9.83-41.04-.78-7.4,5.77-11.87,15.9-9.02,24.84,2.84,8.94,14.25,14.71,22.4,10.06-10.79,11.33-31.04,7.34-41.64-4.17-10.6-11.51-13.95-27.77-16.39-43.23-2.08-13.16-3.8-26.49-2.66-39.76,1.82-21.14,11.15-41.56,25.95-56.77,7.74-7.96,17.83-18.03,13.34-28.18-1.46-3.31-4.31-5.79-7.32-7.8-23.43-15.66-58.42-5.46-63.04,22.8-6.43,39.34-6.39,79.27,1.54,118.42Z"/>
      <path class="cls-8" d="M19.13,487.73c6.34,8.1,15.6,13.4,25.12,17.3,29.31,11.98,63.34,11.9,92.59-.23,24.57-10.19,45.32-28.22,70.06-37.98,26.41-10.42,55.58-10.76,83.96-10.35,22.62.33,45.23,1.05,67.83,2.16,19.93.98,40,2.29,59.32,7.29,22.97,5.95,38.59,19.21,59.17,31.03,24.02,13.79,52.21,11.74,75.87,9.99,23.66-1.76,47.72-14.48,57.22-36.23,3.28-7.52,4.7-16.18,2.13-23.98-3.85-11.69-15.44-18.84-26.54-24.17-36.68-17.63-77.04-26.35-117.42-31.41-95.4-11.96-192.17-4.2-287.6,7.53-29.67,3.65-205.92,32.58-161.7,89.06Z"/>
      <path class="cls-4" d="M583.96,340.22c-23.9-34.86-59.76-60.75-59.76-60.75H100.59s-35.85,25.88-59.76,60.75C16.93,375.08,0,428.89,0,428.89c0,0,0,57.35,76.69,66.7,76.69,9.35,85.65-32.48,119.51-42.13,33.86-9.65,116.2-8.67,116.2-8.67,0,0,82.33-.99,116.2,8.67,33.86,9.65,42.83,51.49,119.51,42.13,76.69-9.35,76.69-66.7,76.69-66.7,0,0-16.93-53.8-40.83-88.67Z"/>
      <g>
        <path class="cls-8" d="M147,325.47c0,12.97-10.28,23.49-22.95,23.49s-22.95-10.52-22.95-23.49,10.28-23.49,22.95-23.49,22.95,10.52,22.95,23.49Z"/>
        <path class="cls-5" d="M140.5,321.95c0,11.65-9.45,21.1-21.1,21.1s-21.1-9.45-21.1-21.1,9.45-21.1,21.1-21.1,21.1,9.45,21.1,21.1Z"/>
        <path class="cls-6" d="M128.63,302.97c3.27,3.72,5.26,8.59,5.26,13.93,0,11.65-9.45,21.1-21.1,21.1-3.31,0-6.44-.76-9.23-2.12,3.87,4.4,9.53,7.17,15.84,7.17,11.65,0,21.1-9.45,21.1-21.1,0-8.34-4.84-15.55-11.87-18.98Z"/>
        <path class="cls-2" d="M102.49,320.39c-.03,1.48.18,3.09,1.24,4.12,1.06,1.02,2.74,1.17,4.15.74,1.11-.34,2.13-1.02,2.79-1.97.86-1.23,1.06-2.79,1.45-4.24.66-2.48,2.04-4.91,4.32-6.09,1.68-.88,3.93-1.2,4.71-2.92,2.55-5.59-7.91-4.8-10.54-3.39-4.81,2.58-7.99,8.43-8.12,13.76Z"/>
      </g>
      <g>
        <path class="cls-8" d="M535.38,324.15c0,12.97-10.28,23.49-22.95,23.49s-22.95-10.52-22.95-23.49,10.28-23.49,22.95-23.49,22.95,10.52,22.95,23.49Z"/>
        <path class="cls-5" d="M528.87,320.63c0,11.65-9.45,21.1-21.1,21.1s-21.1-9.45-21.1-21.1,9.45-21.1,21.1-21.1,21.1,9.45,21.1,21.1Z"/>
        <path class="cls-6" d="M517,301.65c3.27,3.72,5.26,8.59,5.26,13.93,0,11.65-9.45,21.1-21.1,21.1-3.31,0-6.44-.76-9.23-2.12,3.87,4.4,9.53,7.17,15.84,7.17,11.65,0,21.1-9.45,21.1-21.1,0-8.34-4.84-15.55-11.87-18.98Z"/>
        <path class="cls-2" d="M490.86,319.07c-.03,1.48.18,3.09,1.24,4.12,1.06,1.02,2.74,1.17,4.15.74,1.11-.34,2.13-1.02,2.79-1.97.86-1.23,1.06-2.79,1.45-4.24.66-2.48,2.04-4.91,4.32-6.09,1.68-.88,3.93-1.2,4.71-2.92,2.55-5.59-7.91-4.8-10.54-3.39-4.82,2.58-7.99,8.43-8.12,13.76Z"/>
      </g>
      <g>
        <path class="cls-8" d="M94.12,380.98c0,12.97-10.28,23.49-22.95,23.49s-22.95-10.52-22.95-23.49,10.28-23.49,22.95-23.49,22.95,10.52,22.95,23.49Z"/>
        <path class="cls-5" d="M87.62,377.46c0,11.65-9.45,21.1-21.1,21.1s-21.1-9.45-21.1-21.1,9.45-21.1,21.1-21.1,21.1,9.45,21.1,21.1Z"/>
        <path class="cls-6" d="M75.75,358.48c3.27,3.72,5.26,8.59,5.26,13.93,0,11.65-9.45,21.1-21.1,21.1-3.31,0-6.44-.76-9.23-2.12,3.87,4.4,9.53,7.17,15.84,7.17,11.65,0,21.1-9.45,21.1-21.1,0-8.34-4.84-15.55-11.87-18.98Z"/>
        <path class="cls-2" d="M49.61,375.89c-.03,1.48.18,3.09,1.24,4.12,1.06,1.02,2.74,1.17,4.15.74,1.11-.34,2.13-1.02,2.79-1.97.86-1.23,1.06-2.79,1.45-4.24.66-2.48,2.04-4.91,4.32-6.09,1.68-.88,3.93-1.2,4.71-2.92,2.55-5.59-7.91-4.8-10.54-3.39-4.82,2.58-7.99,8.43-8.12,13.76Z"/>
      </g>
      <g>
        <path class="cls-8" d="M581.57,376.35c0,12.97-10.28,23.49-22.95,23.49s-22.95-10.52-22.95-23.49,10.28-23.49,22.95-23.49,22.95,10.51,22.95,23.49Z"/>
        <path class="cls-5" d="M575.07,372.83c0,11.65-9.45,21.1-21.1,21.1s-21.1-9.45-21.1-21.1,9.45-21.1,21.1-21.1,21.1,9.45,21.1,21.1Z"/>
        <path class="cls-6" d="M563.2,353.85c3.27,3.72,5.26,8.59,5.26,13.93,0,11.66-9.45,21.1-21.1,21.1-3.31,0-6.44-.76-9.23-2.12,3.87,4.39,9.53,7.17,15.84,7.17,11.65,0,21.1-9.45,21.1-21.1,0-8.34-4.84-15.55-11.87-18.98Z"/>
        <path class="cls-2" d="M537.06,371.27c-.03,1.48.18,3.09,1.24,4.11,1.06,1.02,2.74,1.17,4.15.74,1.11-.34,2.13-1.02,2.79-1.97.86-1.23,1.06-2.79,1.45-4.24.66-2.48,2.04-4.91,4.32-6.09,1.68-.88,3.93-1.2,4.71-2.92,2.55-5.59-7.91-4.8-10.54-3.39-4.81,2.58-7.99,8.43-8.12,13.76Z"/>
      </g>
      <g>
        <path class="cls-8" d="M223.22,317.72c0,12.97-10.28,23.49-22.95,23.49s-22.95-10.52-22.95-23.49,10.28-23.49,22.95-23.49,22.95,10.51,22.95,23.49Z"/>
        <path class="cls-5" d="M216.71,314.21c0,11.65-9.45,21.1-21.1,21.1s-21.1-9.45-21.1-21.1,9.45-21.1,21.1-21.1,21.1,9.45,21.1,21.1Z"/>
        <path class="cls-6" d="M204.84,295.23c3.27,3.72,5.26,8.59,5.26,13.93,0,11.65-9.45,21.1-21.1,21.1-3.31,0-6.44-.76-9.23-2.12,3.87,4.39,9.53,7.17,15.84,7.17,11.65,0,21.1-9.45,21.1-21.1,0-8.34-4.84-15.55-11.87-18.98Z"/>
        <path class="cls-2" d="M178.7,312.64c-.03,1.48.18,3.09,1.24,4.11,1.06,1.02,2.74,1.17,4.15.74,1.11-.34,2.13-1.02,2.79-1.97.86-1.23,1.06-2.79,1.45-4.24.66-2.48,2.04-4.91,4.32-6.09,1.68-.88,3.93-1.2,4.71-2.92,2.55-5.59-7.91-4.8-10.54-3.39-4.82,2.58-7.99,8.43-8.12,13.76Z"/>
      </g>
      <g>
        <path class="cls-8" d="M460.48,314.77c0,12.97-10.28,23.49-22.95,23.49s-22.95-10.52-22.95-23.49,10.28-23.49,22.95-23.49,22.95,10.52,22.95,23.49Z"/>
        <path class="cls-5" d="M453.97,311.25c0,11.65-9.45,21.1-21.1,21.1s-21.1-9.45-21.1-21.1,9.45-21.1,21.1-21.1,21.1,9.45,21.1,21.1Z"/>
        <path class="cls-6" d="M442.1,292.27c3.27,3.72,5.26,8.59,5.26,13.93,0,11.65-9.45,21.1-21.1,21.1-3.31,0-6.44-.76-9.23-2.12,3.87,4.4,9.53,7.17,15.84,7.17,11.65,0,21.1-9.45,21.1-21.1,0-8.34-4.84-15.55-11.87-18.98Z"/>
        <path class="cls-2" d="M415.96,309.69c-.03,1.48.18,3.09,1.24,4.12,1.06,1.02,2.74,1.17,4.15.74,1.11-.34,2.13-1.02,2.79-1.97.86-1.23,1.06-2.79,1.45-4.24.66-2.48,2.04-4.91,4.32-6.09,1.68-.88,3.93-1.2,4.71-2.92,2.55-5.59-7.91-4.8-10.54-3.39-4.81,2.58-7.99,8.43-8.12,13.76Z"/>
      </g>
      <path class="cls-1" d="M459.8,613.28c-2.51,4.91-2.71,10.63-2.85,16.14-.15,5.61-.23,11.51,2.43,16.45,1.51,2.8,3.82,5.09,6.25,7.14,2.55,2.15,5.36,4.12,8.61,4.88,3.24.75,7,.05,9.18-2.47,3.82-4.42,1.04-11.32-2.57-15.92-3.61-4.6-8.21-9.42-7.67-15.24.53-5.7,6.09-9.81,11.7-10.93,3.17-.64,6.84-.76,8.93-3.23,2.11-2.5,1.43-6.63-1.02-8.79-8.84-7.83-28.67,3.5-32.99,11.97Z"/>
      <path class="cls-1" d="M48.67,601.22c1.6,5.17,4.15,10.95,9.37,12.37.73.2,1.54.3,2.24.02,1.95-.77,1.9-3.51,1.49-5.57-3.38-17.01-7.46-34.16-7.53-51.59-.04-9.59,10.72-36.18-1.74-40.07-21.95-6.84-7.13,74.21-3.83,84.84Z"/>
      <path class="cls-1" d="M124.43,598.32c-2.71,2.22-5.41,4.86-6.09,8.3-.68,3.43,1.69,7.62,5.19,7.53,2.58-.07,4.53-2.26,6.8-3.51,2.73-1.51,5.98-1.65,8.94-2.59,2.97-.94,5.98-3.27,5.9-6.39-.03-1.2-.54-2.36-1.26-3.32-2.15-2.88-6.07-4-9.65-3.63-3.58.36-6.89,1.99-10.03,3.74l.19-.12Z"/>
    </g>
  </g>
</svg>