<?xml version="1.0" encoding="UTF-8"?>
<svg id="Layer_2" data-name="Layer 2" xmlns="http://www.w3.org/2000/svg" viewBox="0 0 87.41 87.54">
  <defs>
    <style>
      .cls-1 {
        fill: #3c419a;
      }
    </style>
  </defs>
  <g id="Layer_1-2" data-name="Layer 1">
    <g>
      <path class="cls-1" d="M70.77,62.85c-1.4,1.99-3.02,3.81-4.82,5.44h14.02c1.18-1.74,2.23-3.56,3.15-5.44h-12.35Z"/>
      <path class="cls-1" d="M85.69,56.22c.79-2.67,1.32-5.42,1.59-8.22h-10.71c-.37,2.87-1.11,5.63-2.16,8.22h11.29Z"/>
      <path class="cls-1" d="M10.85,48H.14c.27,2.81,.8,5.56,1.59,8.22H13.01c-1.06-2.59-1.79-5.35-2.16-8.22Z"/>
      <path class="cls-1" d="M16.64,62.85H4.29c.91,1.88,1.96,3.7,3.15,5.44h14.02c-1.8-1.63-3.41-3.46-4.82-5.44Z"/>
      <path class="cls-1" d="M32.71,86.15c3.55,.91,7.24,1.39,11,1.39s7.45-.47,11-1.39h-21.99Z"/>
      <path class="cls-1" d="M10.67,41.37c1.23-17.15,15.58-30.73,33.04-30.73s31.8,13.58,33.04,30.73h10.67c-.58-10.79-5.05-20.85-12.75-28.55C66.39,4.55,55.4,0,43.7,0S21.02,4.55,12.75,12.82C5.05,20.52,.58,30.58,0,41.37H10.67Z"/>
      <path class="cls-1" d="M74.46,74.91h-19.47c-3.52,1.28-7.32,1.98-11.28,1.98s-7.76-.7-11.28-1.98H12.95c1.72,1.7,3.56,3.24,5.49,4.61h50.52c1.94-1.37,3.77-2.91,5.49-4.61Z"/>
    </g>
    <circle class="cls-1" cx="43.7" cy="43.77" r="10.3"/>
  </g>
</svg>